<svg width="84" height="84" viewBox="0 0 84 84" fill="none" xmlns="http://www.w3.org/2000/svg">
<rect x="3" y="3" width="78.0013" height="78" rx="39" fill="#152644"/>
<rect x="3" y="3" width="78.0013" height="78" rx="39" stroke="#CBFD42" stroke-width="6"/>
<path d="M38.4547 34.1572C39.1758 32.0473 42.0911 31.9834 42.9459 33.9655L43.0183 34.1584L43.9913 37.0038C44.2143 37.6564 44.5746 38.2536 45.048 38.755C45.5214 39.2565 46.0968 39.6506 46.7354 39.9108L46.9971 40.0084L49.8425 40.9802C51.9524 41.7012 52.0163 44.6166 50.0354 45.4714L49.8425 45.5437L46.9971 46.5167C46.3443 46.7396 45.7469 47.0998 45.2452 47.5732C44.7435 48.0466 44.3492 48.6221 44.0889 49.2609L43.9913 49.5213L43.0195 52.3679C42.2985 54.4779 39.3831 54.5418 38.5295 52.5609L38.4547 52.3679L37.483 49.5225C37.2601 48.8697 36.8999 48.2724 36.4265 47.7707C35.9531 47.269 35.3776 46.8747 34.7388 46.6144L34.4784 46.5167L31.633 45.545C29.5218 44.8239 29.4579 41.9086 31.44 41.055L31.633 40.9802L34.4784 40.0084C35.1309 39.7854 35.7281 39.4251 36.2296 38.9517C36.731 38.4783 37.1251 37.9029 37.3853 37.2643L37.483 37.0038L38.4547 34.1572ZM40.7371 34.9361L39.7653 37.7815C39.4258 38.7766 38.8734 39.6857 38.1467 40.4455C37.42 41.2053 36.5364 41.7976 35.5575 42.1811L35.2561 42.2908L32.4106 43.2626L35.2561 44.2344C36.2511 44.5739 37.1602 45.1263 37.92 45.853C38.6798 46.5797 39.2721 47.4633 39.6556 48.4422L39.7653 48.7436L40.7371 51.5891L41.7089 48.7436C42.0484 47.7486 42.6008 46.8395 43.3275 46.0797C44.0542 45.3199 44.9378 44.7276 45.9168 44.3441L46.2182 44.2356L49.0636 43.2626L46.2182 42.2908C45.2231 41.9513 44.314 41.3989 43.5542 40.6722C42.7944 39.9455 42.2021 39.0619 41.8186 38.0829L41.7101 37.7815L40.7371 34.9361ZM50.3826 30C50.6082 30 50.8292 30.0633 51.0206 30.1826C51.212 30.302 51.3661 30.4726 51.4653 30.6752L51.5232 30.8163L51.9452 32.0533L53.1834 32.4753C53.4095 32.5521 53.6077 32.6943 53.7528 32.8838C53.898 33.0733 53.9836 33.3017 53.9988 33.5399C54.0141 33.7782 53.9582 34.0156 53.8384 34.2221C53.7186 34.4285 53.5401 34.5948 53.3257 34.6998L53.1834 34.7576L51.9464 35.1796L51.5244 36.4179C51.4475 36.6439 51.3052 36.8419 51.1156 36.987C50.926 37.132 50.6976 37.2175 50.4594 37.2326C50.2211 37.2477 49.9838 37.1917 49.7774 37.0718C49.5709 36.9519 49.4048 36.7734 49.2999 36.5589L49.2421 36.4179L48.8201 35.1808L47.5818 34.7589C47.3558 34.6821 47.1576 34.5399 47.0125 34.3503C46.8673 34.1608 46.7817 33.9325 46.7664 33.6942C46.7512 33.456 46.807 33.2186 46.9269 33.0121C47.0467 32.8056 47.2251 32.6393 47.4395 32.5344L47.5818 32.4765L48.8189 32.0545L49.2408 30.8163C49.3221 30.578 49.476 30.3712 49.6807 30.2249C49.8855 30.0785 50.1309 29.9998 50.3826 30Z" fill="white"/>
</svg>
