<svg width="32" height="32" viewBox="0 0 32 32" fill="none" xmlns="http://www.w3.org/2000/svg">
<path d="M8 5L5 6.5V22L7 23.5L13 24L16 27L19 24L25.5 23.5L27 21.5V7.5L25 5H21.5H8Z" fill="#8CC3E1"/>
<path d="M13 14L16 11L18.5 14.5L16 18.5L13 14Z" fill="#CBFD42"/>
<path fill-rule="evenodd" clip-rule="evenodd" d="M16.9748 8.72229C16.9245 8.51712 16.8006 8.33392 16.6234 8.20269C16.4463 8.07147 16.2264 8 15.9998 8C15.7731 8 15.5532 8.07147 15.3761 8.20269C15.1989 8.33392 15.075 8.51712 15.0247 8.72229L14.4712 10.9821C14.3457 11.4942 14.067 11.9629 13.6671 12.3342C13.2672 12.7055 12.7625 12.9644 12.211 13.0808L9.77785 13.5948C9.5569 13.6416 9.3596 13.7566 9.21828 13.9211C9.07696 14.0856 9 14.2898 9 14.5002C9 14.7107 9.07696 14.9148 9.21828 15.0793C9.3596 15.2438 9.5569 15.3589 9.77785 15.4056L12.211 15.9196C12.7625 16.0361 13.2672 16.2949 13.6671 16.6662C14.067 17.0376 14.3457 17.5063 14.4712 18.0184L15.0247 20.2777C15.075 20.4829 15.1989 20.6661 15.3761 20.7973C15.5532 20.9285 15.7731 21 15.9998 21C16.2264 21 16.4463 20.9285 16.6234 20.7973C16.8006 20.6661 16.9245 20.4829 16.9748 20.2777L17.5283 18.0184C17.6538 17.5063 17.9325 17.0376 18.3324 16.6662C18.7323 16.2949 19.237 16.0361 19.7885 15.9196L22.2222 15.4056C22.4431 15.3589 22.6404 15.2438 22.7817 15.0793C22.923 14.9148 23 14.7107 23 14.5002C23 14.2898 22.923 14.0856 22.7817 13.9211C22.6404 13.7566 22.4431 13.6416 22.2222 13.5948L19.7885 13.0808C19.237 12.9644 18.7323 12.7055 18.3324 12.3342C17.9325 11.9629 17.6538 11.4942 17.5283 10.9821L16.9748 8.72229ZM13.8186 14.5002C14.7572 14.0552 15.5205 13.3464 15.9998 12.4749C16.479 13.3464 17.2423 14.0552 18.1809 14.5002C17.2423 14.9452 16.479 15.654 15.9998 16.5256C15.5205 15.654 14.7572 14.9452 13.8186 14.5002Z" fill="#152644"/>
<path fill-rule="evenodd" clip-rule="evenodd" d="M8.8 4C6.1492 4 4 6.1492 4 8.8V20C4 22.6508 6.1492 24.8 8.8 24.8H12.8368L15.398 27.7268C15.4731 27.8126 15.5656 27.8813 15.6695 27.9284C15.7733 27.9755 15.886 27.9999 16 27.9999C16.114 27.9999 16.2267 27.9755 16.3305 27.9284C16.4343 27.8813 16.5269 27.8126 16.602 27.7268L19.1628 24.8H23.2C25.8508 24.8 28 22.6508 28 20V8.8C28 6.1492 25.8508 4 23.2 4H8.8ZM5.6 8.8C5.6 7.9513 5.93714 7.13737 6.53726 6.53726C7.13737 5.93714 7.9513 5.6 8.8 5.6H23.2C24.0487 5.6 24.8626 5.93714 25.4627 6.53726C26.0628 7.13737 26.4 7.9513 26.4 8.8V20C26.4 20.8487 26.0628 21.6626 25.4627 22.2627C24.8626 22.8628 24.0487 23.2 23.2 23.2H18.8C18.686 23.2 18.5733 23.2244 18.4694 23.2715C18.3656 23.3186 18.2731 23.3874 18.198 23.4732L16 25.9852L13.802 23.4732C13.7269 23.3874 13.6344 23.3186 13.5305 23.2715C13.4267 23.2244 13.314 23.2 13.2 23.2H8.8C7.9513 23.2 7.13737 22.8628 6.53726 22.2627C5.93714 21.6626 5.6 20.8487 5.6 20V8.8Z" fill="#152644"/>
</svg>
