<svg width="32" height="32" viewBox="0 0 32 32" fill="none" xmlns="http://www.w3.org/2000/svg">
<path d="M7 12.5V16L9 15H12.5L16 17L17.5 21.5L16.5 25L17.5 25.5L21 24.5L23 24L25.5 25H28L27.5 18.5L28 14L26.5 9.5L23.5 6L20 4.5L16.5 4L11.5 5.5L8.5 9L7 12.5Z" fill="#8CC3E1"/>
<path d="M5 17.5L7.5 15.5L11 14.5L14.5 15.5L17 18L17.5 22L16.5 25L13.5 27.5L11 28H9L7.5 27L6.5 27.5L4 28V27.5L4.5 25V23.5L4 20.5L5 17.5Z" fill="#CBFD42"/>
<path d="M27.092 18.9755L26.406 18.6723C26.3492 18.8007 26.3296 18.9425 26.3495 19.0816L27.092 18.9755ZM5.91644 14.6667C5.91644 15.0809 6.25223 15.4167 6.66644 15.4167C7.08066 15.4167 7.41644 15.0809 7.41644 14.6667H6.66644H5.91644ZM22.5528 23.9704L22.7347 23.2428C22.5488 23.1963 22.3521 23.2228 22.1851 23.3167L22.5528 23.9704ZM17.3322 24.5833C16.918 24.5833 16.5822 24.9191 16.5822 25.3333C16.5822 25.7475 16.918 26.0833 17.3322 26.0833V25.3333V24.5833ZM28 25.3323L27.8181 26.0599C28.0603 26.1205 28.3169 26.0565 28.5023 25.8893C28.6877 25.722 28.7778 25.4735 28.7425 25.2263L28 25.3323ZM4.56747 24.0264L5.30994 24.1324C5.32979 23.9934 5.31022 23.8516 5.25345 23.7231L4.56747 24.0264ZM7.4042 27.1482L7.77188 26.4945C7.60485 26.4005 7.40819 26.3741 7.22227 26.4206L7.4042 27.1482ZM4 27.9994L3.25754 27.8933C3.22223 28.1405 3.31227 28.3891 3.49771 28.5563C3.68316 28.7236 3.93967 28.7875 4.18193 28.727L4 27.9994ZM27.998 14.6667H27.248C27.248 16.0936 26.9471 17.4483 26.406 18.6723L27.092 18.9755L27.7779 19.2787C28.4018 17.8674 28.748 16.3065 28.748 14.6667H27.998ZM17.3322 4V4.75C22.8085 4.75 27.248 9.18978 27.248 14.6667H27.998H28.748C28.748 8.36148 23.637 3.25 17.3322 3.25V4ZM6.66644 14.6667H7.41644C7.41644 9.18978 11.8559 4.75 17.3322 4.75V4V3.25C11.0274 3.25 5.91644 8.36148 5.91644 14.6667H6.66644ZM22.5528 23.9704L22.1851 23.3167C20.7513 24.1231 19.0966 24.5833 17.3322 24.5833V25.3333V26.0833C19.3608 26.0833 21.2679 25.5535 22.9204 24.6241L22.5528 23.9704ZM28 25.3323L28.1819 24.6047L22.7347 23.2428L22.5528 23.9704L22.3708 24.698L27.8181 26.0599L28 25.3323ZM27.092 18.9755L26.3495 19.0816L27.2575 25.4384L28 25.3323L28.7425 25.2263L27.8344 18.8695L27.092 18.9755ZM4.00126 21.3333H3.25126C3.25126 22.3981 3.47606 23.4123 3.8815 24.3296L4.56747 24.0264L5.25345 23.7231C4.93083 22.9933 4.75126 22.1853 4.75126 21.3333H4.00126ZM10.6667 14.6667V13.9167C6.57116 13.9167 3.25126 17.2373 3.25126 21.3333H4.00126H4.75126C4.75126 18.0655 7.39984 15.4167 10.6667 15.4167V14.6667ZM17.3322 21.3333H18.0822C18.0822 17.2373 14.7623 13.9167 10.6667 13.9167V14.6667V15.4167C13.9336 15.4167 16.5822 18.0655 16.5822 21.3333H17.3322ZM10.6667 28V28.75C14.7623 28.75 18.0822 25.4293 18.0822 21.3333H17.3322H16.5822C16.5822 24.6011 13.9336 27.25 10.6667 27.25V28ZM7.4042 27.1482L7.03651 27.8019C8.11022 28.4058 9.34942 28.75 10.6667 28.75V28V27.25C9.61364 27.25 8.62692 26.9754 7.77188 26.4945L7.4042 27.1482ZM4 27.9994L4.18193 28.727L7.58613 27.8758L7.4042 27.1482L7.22227 26.4206L3.81807 27.2718L4 27.9994ZM4.56747 24.0264L3.82501 23.9203L3.25754 27.8933L4 27.9994L4.74246 28.1054L5.30994 24.1324L4.56747 24.0264Z" fill="#152644"/>
</svg>
