<svg width="20" height="20" viewBox="0 0 20 20" fill="none" xmlns="http://www.w3.org/2000/svg">
<path d="M17.8507 4.72426L15.1174 15.6577C14.7257 17.216 13.3924 17.916 12.2257 17.916C12.2174 17.916 12.2091 17.916 12.2091 17.916C11.0341 17.9077 9.69239 17.191 9.32573 15.616L8.60907 12.5744L13.0924 8.09096C13.4174 7.76596 13.4174 7.23269 13.0924 6.90769C12.7674 6.58269 12.234 6.58269 11.909 6.90769L7.4257 11.3909L4.38407 10.6744C2.80907 10.3077 2.09239 8.96608 2.08406 7.79941C2.07572 6.62441 2.77574 5.27441 4.34241 4.88275L15.2757 2.14939C16.0007 1.96606 16.7591 2.17432 17.2924 2.70766C17.8257 3.24099 18.034 3.99926 17.8507 4.72426Z" fill="white"/>
</svg>
