<svg width="20" height="19" viewBox="0 0 20 19" fill="none" xmlns="http://www.w3.org/2000/svg">
<path d="M7.04525 3.29113C7.64605 1.62075 10.0754 1.57016 10.7877 3.13936L10.848 3.29208L11.6588 5.54471C11.8446 6.06132 12.1448 6.53407 12.5393 6.93106C12.9338 7.32805 13.4133 7.64005 13.9454 7.84602L14.1635 7.92334L16.5345 8.69267C18.2927 9.26346 18.346 11.5715 16.6953 12.2482L16.5345 12.3055L14.1635 13.0757C13.6195 13.2522 13.1217 13.5374 12.7037 13.9121C12.2856 14.2869 11.9571 14.7425 11.7401 15.2482L11.6588 15.4544L10.849 17.708C10.2482 19.3783 7.81885 19.4289 7.10754 17.8607L7.04525 17.708L6.23547 15.4553C6.04978 14.9385 5.74957 14.4656 5.3551 14.0684C4.96063 13.6713 4.48108 13.3591 3.9488 13.1531L3.73179 13.0757L1.36073 12.3064C-0.398481 11.7356 -0.45173 9.42763 1.19998 8.75185L1.36073 8.69267L3.73179 7.92334C4.27556 7.74681 4.77316 7.46154 5.19102 7.08678C5.60888 6.71202 5.93729 6.25648 6.15409 5.75089L6.23547 5.54471L7.04525 3.29113ZM8.94712 3.90774L8.13734 6.16037C7.85441 6.94812 7.39414 7.66782 6.78858 8.26934C6.18303 8.87086 5.44674 9.33975 4.63098 9.64335L4.37981 9.73021L2.00875 10.4995L4.37981 11.2689C5.20898 11.5377 5.96652 11.9749 6.59966 12.5503C7.23281 13.1256 7.72635 13.8251 8.04591 14.6001L8.13734 14.8387L8.94712 17.0913L9.7569 14.8387C10.0398 14.051 10.5001 13.3313 11.1057 12.7297C11.7112 12.1282 12.4475 11.6593 13.2633 11.3557L13.5144 11.2698L15.8855 10.4995L13.5144 9.73021C12.6853 9.46142 11.9277 9.02414 11.2946 8.44883C10.6614 7.87351 10.1679 7.174 9.84832 6.39899L9.7579 6.16037L8.94712 3.90774ZM16.9846 1.72467e-07C17.1726 -2.25236e-07 17.3568 0.0500907 17.5162 0.14458C17.6757 0.23907 17.8041 0.374168 17.8868 0.534522L17.9351 0.646199L18.2867 1.62552L19.3185 1.9596C19.5069 2.02039 19.672 2.13295 19.7929 2.283C19.9139 2.43305 19.9853 2.61383 19.998 2.80244C20.0106 2.99106 19.9641 3.179 19.8643 3.34247C19.7644 3.50593 19.6157 3.63756 19.4371 3.72066L19.3185 3.76647L18.2877 4.10055L17.9361 5.08082C17.872 5.25973 17.7534 5.41652 17.5954 5.53134C17.4374 5.64616 17.2471 5.71384 17.0486 5.7258C16.85 5.73776 16.6522 5.69347 16.4802 5.59853C16.3082 5.50359 16.1698 5.36228 16.0824 5.1925L16.0342 5.08082L15.6825 4.1015L14.6507 3.76743C14.4624 3.70663 14.2972 3.59407 14.1763 3.44403C14.0553 3.29398 13.984 3.11319 13.9713 2.92458C13.9586 2.73597 14.0051 2.54802 14.105 2.38455C14.2048 2.22109 14.3535 2.08947 14.5322 2.00637L14.6507 1.96055L15.6815 1.62647L16.0332 0.646199C16.1009 0.457614 16.2291 0.2939 16.3997 0.178014C16.5704 0.0621277 16.7749 -0.000119582 16.9846 1.72467e-07Z" fill="white"/>
</svg>
