<svg width="24" height="24" viewBox="0 0 24 24" fill="none" xmlns="http://www.w3.org/2000/svg">
<g clip-path="url(#clip0_750_8191)">
<path d="M7.59597 16.8401H2.44727V7.08412H7.59597V16.8401Z" fill="#68DBF9"/>
<path d="M2.44727 7.08417H7.59597V9.441H2.44727V7.08417Z" fill="#21C1F8"/>
<path d="M16.4043 7.08417H21.553V16.8402H16.4043V7.08417Z" fill="#68DBF9"/>
<path d="M16.4043 7.08417H21.553V9.441H16.4043V7.08417Z" fill="#21C1F8"/>
<path d="M16.4043 7.08417H21.553V9.441H16.4043V7.08417Z" fill="#21C1F8"/>
<path d="M20.1377 7.08417H21.5529V16.8402H20.1377V7.08417Z" fill="#21C1F8"/>
<path d="M21.4328 8.33035H2.5663C2.30858 8.33035 2.09961 8.12143 2.09961 7.86366V7.10124C2.09961 6.84347 2.30853 6.63455 2.5663 6.63455H21.4328C21.6905 6.63455 21.8995 6.84347 21.8995 7.10124V7.86366C21.8995 8.12143 21.6905 8.33035 21.4328 8.33035Z" fill="#8D9DA7"/>
<path d="M16.4043 14.244H23.3635V24H16.4043V14.244Z" fill="#64B9FC"/>
<path d="M16.4043 14.244H23.3635V16.3364H16.4043V14.244Z" fill="#31A7FB"/>
<path d="M21.8535 14.244H23.3642V24H21.8535V14.244Z" fill="#31A7FB"/>
<path d="M7.59597 24H0.636719V14.244H7.59597V24Z" fill="#64B9FC"/>
<path d="M0.636719 14.244H7.59597V16.3364H0.636719V14.244Z" fill="#31A7FB"/>
<path d="M23.5333 15.0919H0.466688C0.208969 15.0919 0 14.883 0 14.6252V13.8628C0 13.605 0.208922 13.3961 0.466688 13.3961H23.5333C23.7911 13.3961 24 13.605 24 13.8628V14.6252C24 14.8829 23.7911 15.0919 23.5333 15.0919Z" fill="#8D9DA7"/>
<path d="M18.6992 10.4585C18.6516 10.4585 18.6045 10.4491 18.5606 10.4309C18.5166 10.4127 18.4767 10.386 18.4431 10.3524C18.4095 10.3188 18.3828 10.2789 18.3646 10.2349C18.3464 10.191 18.337 10.1439 18.337 10.0963V9.76917C18.337 9.67312 18.3752 9.581 18.4431 9.51309C18.511 9.44517 18.6031 9.40701 18.6992 9.40701C18.7952 9.40701 18.8873 9.44517 18.9553 9.51309C19.0232 9.581 19.0613 9.67312 19.0613 9.76917V10.0963C19.0613 10.1924 19.0232 10.2845 18.9553 10.3524C18.8873 10.4203 18.7952 10.4585 18.6992 10.4585ZM19.857 10.4585C19.8095 10.4585 19.7624 10.4491 19.7184 10.4309C19.6745 10.4127 19.6346 10.386 19.6009 10.3524C19.5673 10.3188 19.5406 10.2789 19.5224 10.2349C19.5042 10.191 19.4949 10.1439 19.4949 10.0963V9.76917C19.4949 9.67312 19.533 9.581 19.601 9.51309C19.6689 9.44517 19.761 9.40701 19.857 9.40701C19.9531 9.40701 20.0452 9.44517 20.1131 9.51309C20.181 9.581 20.2192 9.67312 20.2192 9.76917V10.0963C20.2192 10.1924 20.181 10.2845 20.1131 10.3524C20.0452 10.4203 19.9531 10.4585 19.857 10.4585ZM18.6992 11.9198C18.6516 11.9198 18.6045 11.9105 18.5606 11.8923C18.5166 11.8741 18.4767 11.8474 18.4431 11.8138C18.4095 11.7802 18.3828 11.7402 18.3646 11.6963C18.3464 11.6523 18.337 11.6052 18.337 11.5577V11.2305C18.337 11.1345 18.3752 11.0424 18.4431 10.9745C18.511 10.9065 18.6031 10.8684 18.6992 10.8684C18.7952 10.8684 18.8873 10.9065 18.9553 10.9745C19.0232 11.0424 19.0613 11.1345 19.0613 11.2305V11.5577C19.0613 11.6537 19.0232 11.7459 18.9553 11.8138C18.8873 11.8817 18.7952 11.9198 18.6992 11.9198ZM19.857 11.9198C19.8095 11.9198 19.7624 11.9105 19.7184 11.8923C19.6745 11.8741 19.6346 11.8474 19.6009 11.8138C19.5673 11.7802 19.5406 11.7402 19.5224 11.6963C19.5042 11.6523 19.4949 11.6052 19.4949 11.5577V11.2305C19.4949 11.1345 19.533 11.0424 19.601 10.9745C19.6689 10.9065 19.761 10.8684 19.857 10.8684C19.9531 10.8684 20.0452 10.9065 20.1131 10.9745C20.181 11.0424 20.2192 11.1345 20.2192 11.2305V11.5577C20.2192 11.6537 20.181 11.7459 20.1131 11.8138C20.0452 11.8817 19.9531 11.9198 19.857 11.9198ZM4.14243 10.4585C4.04638 10.4585 3.95426 10.4203 3.88635 10.3524C3.81843 10.2845 3.78027 10.1924 3.78027 10.0963V9.76917C3.78027 9.67312 3.81843 9.581 3.88635 9.51309C3.95426 9.44517 4.04638 9.40701 4.14243 9.40701C4.23848 9.40701 4.3306 9.44517 4.39851 9.51309C4.46643 9.581 4.50459 9.67312 4.50459 9.76917V10.0963C4.50459 10.1924 4.46643 10.2845 4.39851 10.3524C4.3306 10.4203 4.23848 10.4585 4.14243 10.4585ZM5.30024 10.4585C5.20419 10.4585 5.11208 10.4203 5.04416 10.3524C4.97624 10.2845 4.93809 10.1924 4.93809 10.0963V9.76917C4.93809 9.67312 4.97624 9.581 5.04416 9.51309C5.11208 9.44517 5.20419 9.40701 5.30024 9.40701C5.39629 9.40701 5.48841 9.44517 5.55633 9.51309C5.62424 9.581 5.6624 9.67312 5.6624 9.76917V10.0963C5.6624 10.1924 5.62424 10.2845 5.55633 10.3524C5.48841 10.4203 5.39629 10.4585 5.30024 10.4585ZM4.14243 11.9198C4.04638 11.9198 3.95426 11.8817 3.88635 11.8138C3.81843 11.7459 3.78027 11.6537 3.78027 11.5577V11.2305C3.78027 11.1345 3.81843 11.0424 3.88635 10.9745C3.95426 10.9065 4.04638 10.8684 4.14243 10.8684C4.23848 10.8684 4.3306 10.9065 4.39851 10.9745C4.46643 11.0424 4.50459 11.1345 4.50459 11.2305V11.5577C4.50459 11.6537 4.46643 11.7459 4.39851 11.8138C4.3306 11.8817 4.23848 11.9198 4.14243 11.9198ZM5.30024 11.9198C5.20419 11.9198 5.11208 11.8817 5.04416 11.8138C4.97624 11.7459 4.93809 11.6537 4.93809 11.5577V11.2305C4.93809 11.1345 4.97624 11.0424 5.04416 10.9745C5.11208 10.9065 5.20419 10.8684 5.30024 10.8684C5.39629 10.8684 5.48841 10.9065 5.55633 10.9745C5.62424 11.0424 5.6624 11.1345 5.6624 11.2305V11.5577C5.6624 11.6537 5.62424 11.7459 5.55633 11.8138C5.48841 11.8817 5.39629 11.9198 5.30024 11.9198Z" fill="#C9F0FD"/>
<path d="M2.37524 16.4812H5.05888C5.09059 16.4812 5.12199 16.4875 5.15129 16.4996C5.18059 16.5117 5.20721 16.5295 5.22963 16.552C5.25205 16.5744 5.26984 16.601 5.28197 16.6303C5.2941 16.6596 5.30034 16.691 5.30034 16.7227V17.5853C5.30034 17.617 5.2941 17.6485 5.28197 17.6777C5.26984 17.707 5.25205 17.7337 5.22963 17.7561C5.20721 17.7785 5.18059 17.7963 5.15129 17.8084C5.12199 17.8206 5.09059 17.8268 5.05888 17.8268H2.37524C2.34353 17.8268 2.31213 17.8206 2.28283 17.8084C2.25354 17.7963 2.22692 17.7785 2.2045 17.7561C2.18207 17.7337 2.16429 17.707 2.15216 17.6777C2.14002 17.6485 2.13378 17.617 2.13379 17.5853V16.7227C2.13378 16.691 2.14002 16.6596 2.15216 16.6303C2.16429 16.601 2.18207 16.5744 2.2045 16.552C2.22692 16.5295 2.25354 16.5117 2.28283 16.4996C2.31213 16.4875 2.34353 16.4812 2.37524 16.4812Z" fill="#C9F0FD"/>
<path d="M5.30038 16.7226V17.5855C5.30036 17.6496 5.27491 17.711 5.22964 17.7562C5.18436 17.8015 5.12296 17.827 5.05893 17.827H4.03809C4.0698 17.827 4.10121 17.8208 4.13052 17.8087C4.15983 17.7965 4.18646 17.7788 4.20889 17.7563C4.23132 17.7339 4.2491 17.7073 4.26122 17.678C4.27335 17.6487 4.27957 17.6172 4.27954 17.5855V16.7226C4.27957 16.6909 4.27335 16.6595 4.26122 16.6302C4.2491 16.6009 4.23132 16.5742 4.20889 16.5518C4.18646 16.5294 4.15983 16.5116 4.13052 16.4995C4.10121 16.4873 4.0698 16.4811 4.03809 16.4812H5.05893C5.12296 16.4812 5.18436 16.5066 5.22964 16.5519C5.27491 16.5972 5.30036 16.6586 5.30038 16.7226Z" fill="#9CE6FB"/>
<path d="M2.37524 19.048H5.05888C5.09059 19.048 5.12199 19.0543 5.15129 19.0664C5.18059 19.0785 5.20721 19.0963 5.22963 19.1187C5.25205 19.1412 5.26984 19.1678 5.28197 19.1971C5.2941 19.2264 5.30034 19.2578 5.30034 19.2895V20.1522C5.30034 20.1839 5.2941 20.2153 5.28197 20.2446C5.26984 20.2739 5.25205 20.3005 5.22963 20.3229C5.20721 20.3453 5.18059 20.3631 5.15129 20.3753C5.12199 20.3874 5.09059 20.3936 5.05888 20.3936H2.37524C2.34353 20.3936 2.31213 20.3874 2.28283 20.3753C2.25354 20.3631 2.22692 20.3453 2.2045 20.3229C2.18207 20.3005 2.16429 20.2739 2.15216 20.2446C2.14002 20.2153 2.13378 20.1839 2.13379 20.1522V19.2895C2.13378 19.2578 2.14002 19.2264 2.15216 19.1971C2.16429 19.1678 2.18207 19.1412 2.2045 19.1187C2.22692 19.0963 2.25354 19.0785 2.28283 19.0664C2.31213 19.0543 2.34353 19.048 2.37524 19.048Z" fill="#C9F0FD"/>
<path d="M5.30038 19.2897V20.1521C5.30036 20.2162 5.27491 20.2776 5.22964 20.3228C5.18436 20.3681 5.12296 20.3936 5.05893 20.3936H4.03809C4.0698 20.3936 4.10121 20.3874 4.13052 20.3753C4.15983 20.3631 4.18646 20.3454 4.20889 20.3229C4.23132 20.3005 4.2491 20.2739 4.26122 20.2446C4.27335 20.2153 4.27957 20.1838 4.27954 20.1521V19.2897C4.27961 19.2579 4.27341 19.2265 4.2613 19.1972C4.24919 19.1679 4.23141 19.1412 4.20897 19.1188C4.18654 19.0964 4.15989 19.0786 4.13057 19.0665C4.10124 19.0543 4.06981 19.0482 4.03809 19.0482H5.05893C5.09065 19.0482 5.12206 19.0544 5.15137 19.0665C5.18067 19.0787 5.2073 19.0964 5.22973 19.1189C5.25216 19.1413 5.26994 19.1679 5.28207 19.1972C5.29419 19.2265 5.30041 19.258 5.30038 19.2897Z" fill="#9CE6FB"/>
<path d="M18.9407 16.4812H21.6243C21.656 16.4812 21.6874 16.4875 21.7167 16.4996C21.746 16.5117 21.7726 16.5295 21.7951 16.552C21.8175 16.5744 21.8353 16.601 21.8474 16.6303C21.8595 16.6596 21.8658 16.691 21.8658 16.7227V17.5853C21.8658 17.617 21.8595 17.6485 21.8474 17.6777C21.8353 17.707 21.8175 17.7337 21.7951 17.7561C21.7726 17.7785 21.746 17.7963 21.7167 17.8084C21.6874 17.8206 21.656 17.8268 21.6243 17.8268H18.9407C18.909 17.8268 18.8776 17.8206 18.8483 17.8084C18.819 17.7963 18.7923 17.7785 18.7699 17.7561C18.7475 17.7337 18.7297 17.707 18.7176 17.6777C18.7055 17.6485 18.6992 17.617 18.6992 17.5853V16.7227C18.6992 16.691 18.7055 16.6596 18.7176 16.6303C18.7297 16.601 18.7475 16.5744 18.7699 16.552C18.7923 16.5295 18.819 16.5117 18.8483 16.4996C18.8776 16.4875 18.909 16.4812 18.9407 16.4812Z" fill="#C9F0FD"/>
<path d="M21.8663 16.7226V17.5855C21.8663 17.6496 21.8408 17.711 21.7956 17.7562C21.7503 17.8015 21.6889 17.827 21.6249 17.827H20.6045C20.6685 17.827 20.7299 17.8015 20.7752 17.7562C20.8205 17.711 20.8459 17.6496 20.8459 17.5855V16.7226C20.8459 16.6586 20.8205 16.5972 20.7752 16.5519C20.7299 16.5066 20.6685 16.4812 20.6045 16.4812H21.6249C21.6889 16.4812 21.7503 16.5066 21.7956 16.5519C21.8409 16.5972 21.8663 16.6586 21.8663 16.7226Z" fill="#9CE6FB"/>
<path d="M18.9407 19.048H21.6243C21.656 19.048 21.6874 19.0543 21.7167 19.0664C21.746 19.0785 21.7726 19.0963 21.7951 19.1187C21.8175 19.1412 21.8353 19.1678 21.8474 19.1971C21.8595 19.2264 21.8658 19.2578 21.8658 19.2895V20.1522C21.8658 20.1839 21.8595 20.2153 21.8474 20.2446C21.8353 20.2739 21.8175 20.3005 21.7951 20.3229C21.7726 20.3453 21.746 20.3631 21.7167 20.3753C21.6874 20.3874 21.656 20.3936 21.6243 20.3936H18.9407C18.909 20.3936 18.8776 20.3874 18.8483 20.3753C18.819 20.3631 18.7923 20.3453 18.7699 20.3229C18.7475 20.3005 18.7297 20.2739 18.7176 20.2446C18.7055 20.2153 18.6992 20.1839 18.6992 20.1522V19.2895C18.6992 19.2578 18.7055 19.2264 18.7176 19.1971C18.7297 19.1678 18.7475 19.1412 18.7699 19.1187C18.7923 19.0963 18.819 19.0785 18.8483 19.0664C18.8776 19.0543 18.909 19.048 18.9407 19.048Z" fill="#C9F0FD"/>
<path d="M21.8663 19.2897V20.1521C21.8663 20.2162 21.8408 20.2776 21.7956 20.3228C21.7503 20.3681 21.6889 20.3936 21.6249 20.3936H20.6045C20.6685 20.3936 20.7299 20.3681 20.7752 20.3228C20.8205 20.2776 20.8459 20.2162 20.8459 20.1521V19.2897C20.846 19.258 20.8398 19.2265 20.8276 19.1972C20.8155 19.1679 20.7977 19.1413 20.7753 19.1189C20.7529 19.0964 20.7262 19.0787 20.6969 19.0665C20.6676 19.0544 20.6362 19.0482 20.6045 19.0482H21.6249C21.6566 19.0482 21.688 19.0544 21.7173 19.0665C21.7466 19.0787 21.7732 19.0964 21.7957 19.1189C21.8181 19.1413 21.8359 19.1679 21.848 19.1972C21.8601 19.2265 21.8664 19.258 21.8663 19.2897Z" fill="#9CE6FB"/>
<path d="M17.3495 4.48031V24H6.65039V4.48031C6.65039 4.21327 6.86672 3.99741 7.1333 3.99741H16.8666C17.1331 3.99741 17.3495 4.21327 17.3495 4.48031Z" fill="#D9E7EB"/>
<path d="M15.9977 5.18728C15.9977 7.39509 14.2081 9.18469 12.0003 9.18469C9.79257 9.18469 8.00293 7.39509 8.00293 5.18728C8.00293 4.77295 8.0657 4.37311 8.18307 3.99741H15.8177C15.935 4.37311 15.9977 4.77295 15.9977 5.18728Z" fill="#C5D3DD"/>
<path d="M14.8724 17.5403V24H9.12695V17.5403C9.12692 17.5086 9.13315 17.4772 9.14527 17.4479C9.15739 17.4186 9.17518 17.3919 9.1976 17.3695C9.22003 17.3471 9.24666 17.3293 9.27597 17.3172C9.30528 17.305 9.33669 17.2988 9.36841 17.2988H14.631C14.6627 17.2988 14.6941 17.305 14.7234 17.3172C14.7528 17.3293 14.7794 17.3471 14.8018 17.3695C14.8242 17.3919 14.842 17.4186 14.8541 17.4479C14.8662 17.4772 14.8725 17.5086 14.8724 17.5403Z" fill="#9CE6FB"/>
<path d="M14.8727 17.5403V24H13.5081V17.5403C13.508 17.4763 13.4826 17.4149 13.4373 17.3696C13.392 17.3243 13.3306 17.2989 13.2666 17.2988H14.6313C14.663 17.2988 14.6944 17.305 14.7237 17.3172C14.753 17.3293 14.7796 17.3471 14.8021 17.3695C14.8245 17.3919 14.8423 17.4186 14.8544 17.4479C14.8665 17.4772 14.8728 17.5086 14.8727 17.5403Z" fill="#68DBF9"/>
<path d="M17.3492 4.48031V24H15.8647V4.48031C15.8647 4.21327 15.6484 3.99741 15.3818 3.99741H16.8663C17.1329 3.99741 17.3492 4.21327 17.3492 4.48031Z" fill="#C5D3DD"/>
<path d="M12.0002 7.99453C14.2078 7.99453 15.9975 6.20489 15.9975 3.99727C15.9975 1.78964 14.2078 0 12.0002 0C9.79257 0 8.00293 1.78964 8.00293 3.99727C8.00293 6.20489 9.79257 7.99453 12.0002 7.99453Z" fill="#F5F7F8"/>
<path d="M13.8599 3.0368H12.9605V2.13741C12.9605 2.05159 12.9264 1.96928 12.8657 1.9086C12.805 1.84792 12.7227 1.81383 12.6369 1.81383H11.363C11.2772 1.81383 11.1949 1.84792 11.1342 1.9086C11.0735 1.96928 11.0394 2.05159 11.0394 2.13741V3.03684H10.14C10.0542 3.03684 9.97186 3.07093 9.91118 3.13162C9.8505 3.1923 9.81641 3.2746 9.81641 3.36042V4.6343C9.81641 4.72011 9.8505 4.80242 9.91118 4.8631C9.97186 4.92378 10.0542 4.95787 10.14 4.95787H11.0394V5.85731C11.0394 5.94313 11.0735 6.02543 11.1342 6.08612C11.1949 6.1468 11.2772 6.18089 11.363 6.18089H12.6369C12.7227 6.18089 12.805 6.1468 12.8657 6.08612C12.9264 6.02543 12.9605 5.94313 12.9605 5.85731V4.95787H13.8599C13.9024 4.95787 13.9445 4.9495 13.9837 4.93324C14.023 4.91698 14.0586 4.89315 14.0887 4.8631C14.1187 4.83305 14.1426 4.79738 14.1588 4.75812C14.1751 4.71887 14.1835 4.67679 14.1835 4.6343V3.36042C14.1835 3.2746 14.1494 3.19229 14.0887 3.1316C14.028 3.07091 13.9457 3.03681 13.8599 3.0368Z" fill="#FB4A59"/>
<path d="M14.1834 3.36043V4.63444C14.1834 4.72026 14.1494 4.80256 14.0887 4.86325C14.028 4.92393 13.9457 4.95802 13.8599 4.95802H12.9608V5.85713C12.9607 5.94294 12.9266 6.02524 12.866 6.08592C12.8053 6.1466 12.723 6.18069 12.6372 6.18071H11.5947C11.6805 6.18069 11.7628 6.1466 11.8235 6.08592C11.8842 6.02524 11.9183 5.94294 11.9183 5.85713V5.2816C11.9183 5.2391 11.9267 5.19703 11.9429 5.15777C11.9592 5.11851 11.983 5.08284 12.0131 5.05279C12.0431 5.02275 12.0788 4.99891 12.1181 4.98265C12.1573 4.96639 12.1994 4.95802 12.2419 4.95802H12.8174C12.9032 4.95802 12.9855 4.92393 13.0462 4.86325C13.1069 4.80256 13.141 4.72026 13.141 4.63444V3.36043C13.141 3.27461 13.1069 3.1923 13.0462 3.13162C12.9855 3.07094 12.9032 3.03685 12.8174 3.03685H12.2419C12.1561 3.03685 12.0738 3.00276 12.0131 2.94207C11.9524 2.88139 11.9183 2.79909 11.9183 2.71327V2.13722C11.9182 2.05143 11.8841 1.96918 11.8234 1.90851C11.7628 1.84785 11.6805 1.81373 11.5947 1.81364H12.6372C12.723 1.81364 12.8053 1.84774 12.866 1.90842C12.9267 1.9691 12.9608 2.0514 12.9608 2.13722V3.0368H13.8599C13.9024 3.0368 13.9444 3.04517 13.9837 3.06144C14.023 3.0777 14.0586 3.10154 14.0887 3.13159C14.1187 3.16164 14.1426 3.19732 14.1588 3.23658C14.1751 3.27585 14.1835 3.31793 14.1834 3.36043Z" fill="#F82F40"/>
<path d="M11.6377 17.2988H12.3621V24H11.6377V17.2988Z" fill="#64B9FC"/>
<path d="M14.6314 15.2902H9.36841C9.3367 15.2902 9.3053 15.284 9.276 15.2718C9.2467 15.2597 9.22008 15.2419 9.19766 15.2195C9.17524 15.1971 9.15745 15.1705 9.14532 15.1412C9.13319 15.1119 9.12695 15.0805 9.12695 15.0488V14.0017C9.12695 13.97 9.13319 13.9386 9.14532 13.9093C9.15745 13.88 9.17524 13.8533 9.19766 13.8309C9.22008 13.8085 9.2467 13.7907 9.276 13.7786C9.3053 13.7664 9.3367 13.7602 9.36841 13.7602H14.6314C14.6631 13.7602 14.6945 13.7664 14.7238 13.7786C14.7531 13.7907 14.7798 13.8085 14.8022 13.8309C14.8246 13.8533 14.8424 13.88 14.8545 13.9093C14.8667 13.9386 14.8729 13.97 14.8729 14.0017V15.0488C14.8729 15.0805 14.8667 15.1119 14.8545 15.1412C14.8424 15.1705 14.8246 15.1971 14.8022 15.2195C14.7798 15.2419 14.7531 15.2597 14.7238 15.2718C14.6945 15.284 14.6631 15.2902 14.6314 15.2902Z" fill="#9CE6FB"/>
<path d="M14.8727 14.0016V15.0485C14.8728 15.0802 14.8666 15.1117 14.8545 15.141C14.8424 15.1703 14.8246 15.197 14.8022 15.2194C14.7797 15.2418 14.7531 15.2596 14.7238 15.2717C14.6944 15.2838 14.663 15.29 14.6313 15.29H13.2666C13.2983 15.29 13.3297 15.2838 13.359 15.2717C13.3883 15.2595 13.415 15.2418 13.4374 15.2193C13.4598 15.1969 13.4776 15.1703 13.4897 15.141C13.5019 15.1117 13.5081 15.0802 13.5081 15.0485V14.0016C13.508 13.9376 13.4826 13.8762 13.4373 13.8309C13.392 13.7856 13.3306 13.7602 13.2666 13.7602H14.6313C14.663 13.7601 14.6944 13.7664 14.7237 13.7785C14.753 13.7906 14.7796 13.8084 14.8021 13.8308C14.8245 13.8532 14.8423 13.8799 14.8544 13.9092C14.8665 13.9385 14.8728 13.9699 14.8727 14.0016Z" fill="#68DBF9"/>
<path d="M14.6314 12.3227H9.36841C9.3367 12.3227 9.3053 12.3164 9.276 12.3043C9.2467 12.2922 9.22008 12.2744 9.19766 12.252C9.17524 12.2296 9.15745 12.2029 9.14532 12.1736C9.13319 12.1443 9.12695 12.1129 9.12695 12.0812V9.87515C9.12695 9.84344 9.13319 9.81204 9.14532 9.78274C9.15745 9.75345 9.17524 9.72683 9.19766 9.7044C9.22008 9.68198 9.2467 9.6642 9.276 9.65206C9.3053 9.63993 9.3367 9.63369 9.36841 9.6337H14.6314C14.6631 9.63369 14.6945 9.63993 14.7238 9.65206C14.7531 9.6642 14.7798 9.68198 14.8022 9.7044C14.8246 9.72683 14.8424 9.75345 14.8545 9.78274C14.8667 9.81204 14.8729 9.84344 14.8729 9.87515V12.0812C14.8729 12.1129 14.8667 12.1443 14.8545 12.1736C14.8424 12.2029 14.8246 12.2296 14.8022 12.252C14.7798 12.2744 14.7531 12.2922 14.7238 12.3043C14.6945 12.3164 14.6631 12.3227 14.6314 12.3227Z" fill="#9CE6FB"/>
<path d="M14.8727 9.87524V12.0811C14.8728 12.1128 14.8665 12.1443 14.8544 12.1736C14.8423 12.2029 14.8245 12.2295 14.8021 12.2519C14.7796 12.2744 14.753 12.2921 14.7237 12.3043C14.6944 12.3164 14.663 12.3226 14.6313 12.3226H13.2666C13.3306 12.3226 13.392 12.2971 13.4373 12.2518C13.4826 12.2066 13.508 12.1452 13.5081 12.0811V9.87524C13.508 9.81121 13.4826 9.74981 13.4373 9.70454C13.392 9.65926 13.3306 9.63381 13.2666 9.63379H14.6313C14.663 9.63376 14.6944 9.63998 14.7237 9.65211C14.753 9.66423 14.7796 9.68201 14.8021 9.70444C14.8245 9.72687 14.8423 9.7535 14.8544 9.78281C14.8665 9.81211 14.8728 9.84353 14.8727 9.87524Z" fill="#68DBF9"/>
</g>
<defs>
<clipPath id="clip0_750_8191">
<rect width="24" height="24" fill="white"/>
</clipPath>
</defs>
</svg>
