<svg width="35" height="35" viewBox="0 0 35 35" fill="none" xmlns="http://www.w3.org/2000/svg">
<rect width="35" height="35" rx="6" fill="#152644"/>
<path d="M17.5 12.5V16.5M19.5 26.5V23.5C19.5 22.9696 19.2893 22.4609 18.9142 22.0858C18.5391 21.7107 18.0304 21.5 17.5 21.5C16.9696 21.5 16.4609 21.7107 16.0858 22.0858C15.7107 22.4609 15.5 22.9696 15.5 23.5V26.5M19.5 14.5H15.5" stroke="white" stroke-width="1.5" stroke-linecap="round" stroke-linejoin="round"/>
<path d="M23.5 16.5H25.5C26.0304 16.5 26.5391 16.7107 26.9142 17.0858C27.2893 17.4609 27.5 17.9696 27.5 18.5V24.5C27.5 25.0304 27.2893 25.5391 26.9142 25.9142C26.5391 26.2893 26.0304 26.5 25.5 26.5H9.5C8.96957 26.5 8.46086 26.2893 8.08579 25.9142C7.71071 25.5391 7.5 25.0304 7.5 24.5V15.5C7.5 14.9696 7.71071 14.4609 8.08579 14.0858C8.46086 13.7107 8.96957 13.5 9.5 13.5H11.5" stroke="white" stroke-width="1.5" stroke-linecap="round" stroke-linejoin="round"/>
<path d="M23.5 26.5V10.5C23.5 9.96957 23.2893 9.46086 22.9142 9.08579C22.5391 8.71071 22.0304 8.5 21.5 8.5H13.5C12.9696 8.5 12.4609 8.71071 12.0858 9.08579C11.7107 9.46086 11.5 9.96957 11.5 10.5V26.5" stroke="white" stroke-width="1.5" stroke-linecap="round" stroke-linejoin="round"/>
</svg>
