<svg width="20" height="20" viewBox="0 0 20 20" fill="none" xmlns="http://www.w3.org/2000/svg">
<path d="M17.2422 5.47656V18.7109C17.2422 19.4219 16.6641 20 15.9531 20H4.04688C3.33594 20 2.75781 19.4219 2.75781 18.7109V1.28906C2.75781 0.578125 3.33594 0 4.04688 0H11.7656L17.2422 5.47656Z" fill="#518FF5"/>
<path d="M6.29688 10.043H13.7031V10.8672H6.29688V10.043ZM6.29688 11.8789H13.7031V12.7031H6.29688V11.8789ZM6.29688 13.7188H13.7031V14.543H6.29688V13.7188ZM6.29688 15.5547H11.5664V16.3789H6.29688V15.5547Z" fill="white"/>
<path d="M12.5117 5.26953L17.2422 9.10156V5.5L14.5625 3.94531L12.5117 5.26953Z" fill="black" fill-opacity="0.0980392"/>
<path d="M17.2422 5.47656H13.0547C12.3438 5.47656 11.7656 4.89844 11.7656 4.1875V0L17.2422 5.47656Z" fill="#A6C5FA"/>
</svg>
