<svg width="24" height="24" viewBox="0 0 24 24" fill="none" xmlns="http://www.w3.org/2000/svg">
<path d="M8.79922 11.2C7.73835 11.2 6.72094 10.7785 5.97079 10.0284C5.22065 9.27826 4.79922 8.26084 4.79922 7.19998V3.99998C4.79922 3.7878 4.8835 3.58432 5.03353 3.43429C5.18356 3.28426 5.38705 3.19998 5.59922 3.19998H6.39922C6.61139 3.19998 6.81487 3.11569 6.9649 2.96566C7.11493 2.81563 7.19922 2.61215 7.19922 2.39998C7.19922 2.1878 7.11493 1.98432 6.9649 1.83429C6.81487 1.68426 6.61139 1.59998 6.39922 1.59998H5.59922C4.9627 1.59998 4.35225 1.85283 3.90216 2.30292C3.45208 2.75301 3.19922 3.36346 3.19922 3.99998V7.19998C3.20025 8.10377 3.42064 8.9938 3.84146 9.79364C4.26228 10.5935 4.87096 11.2792 5.61522 11.792C6.331 12.4218 6.91139 13.1904 7.32119 14.0513C7.731 14.9122 7.96167 15.8473 7.99922 16.8C7.99922 18.2852 8.58922 19.7096 9.63942 20.7598C10.6896 21.81 12.114 22.4 13.5992 22.4C15.0844 22.4 16.5088 21.81 17.559 20.7598C18.6092 19.7096 19.1992 18.2852 19.1992 16.8V15.888C19.9533 15.6933 20.6106 15.2302 21.0477 14.5856C21.4848 13.9409 21.6719 13.159 21.5737 12.3864C21.4756 11.6137 21.099 10.9034 20.5146 10.3885C19.9302 9.87365 19.1781 9.58959 18.3992 9.58959C17.6204 9.58959 16.8682 9.87365 16.2838 10.3885C15.6994 10.9034 15.3229 11.6137 15.2247 12.3864C15.1266 13.159 15.3136 13.9409 15.7507 14.5856C16.1879 15.2302 16.8451 15.6933 17.5992 15.888V16.8C17.5992 17.8608 17.1778 18.8783 16.4276 19.6284C15.6775 20.3785 14.6601 20.8 13.5992 20.8C12.5384 20.8 11.5209 20.3785 10.7708 19.6284C10.0206 18.8783 9.59922 17.8608 9.59922 16.8C9.63879 15.8461 9.87196 14.9103 10.2845 14.0493C10.6971 13.1884 11.2805 12.4204 11.9992 11.792C12.7405 11.2774 13.3461 10.5909 13.7641 9.79119C14.182 8.99146 14.4 8.10235 14.3992 7.19998V3.99998C14.3992 3.36346 14.1464 2.75301 13.6963 2.30292C13.2462 1.85283 12.6357 1.59998 11.9992 1.59998H11.1992C10.987 1.59998 10.7836 1.68426 10.6335 1.83429C10.4835 1.98432 10.3992 2.1878 10.3992 2.39998C10.3992 2.61215 10.4835 2.81563 10.6335 2.96566C10.7836 3.11569 10.987 3.19998 11.1992 3.19998H11.9992C12.2114 3.19998 12.4149 3.28426 12.5649 3.43429C12.7149 3.58432 12.7992 3.7878 12.7992 3.99998V7.19998C12.7992 7.72526 12.6958 8.24541 12.4947 8.73071C12.2937 9.21601 11.9991 9.65697 11.6276 10.0284C11.2562 10.3998 10.8153 10.6945 10.33 10.8955C9.84465 11.0965 9.32451 11.2 8.79922 11.2ZM18.3992 14.4C17.9749 14.4 17.5679 14.2314 17.2678 13.9313C16.9678 13.6313 16.7992 13.2243 16.7992 12.8C16.7992 12.3756 16.9678 11.9687 17.2678 11.6686C17.5679 11.3685 17.9749 11.2 18.3992 11.2C18.8236 11.2 19.2305 11.3685 19.5306 11.6686C19.8306 11.9687 19.9992 12.3756 19.9992 12.8C19.9992 13.2243 19.8306 13.6313 19.5306 13.9313C19.2305 14.2314 18.8236 14.4 18.3992 14.4Z" fill="#152644"/>
</svg>
