<svg width="244" height="200" viewBox="0 0 244 200" fill="none" xmlns="http://www.w3.org/2000/svg">
<g opacity="0.5">
<path d="M42.7246 86.9105V95.1633H49.7985V86.9105H42.7246Z" fill="#8CC3E1"/>
</g>
<g opacity="0.5">
<path d="M176.137 138.674V182.876C176.137 190.82 169.694 197.263 161.75 197.263H57.1113C49.1672 197.263 42.7246 190.82 42.7246 182.876V123.774H49.7985V181.4C49.7985 185.909 53.4491 189.56 57.9584 189.56H160.905C165.412 189.56 169.065 185.909 169.065 181.4V139.175C171.423 139.034 173.781 138.869 176.137 138.674Z" fill="#8CC3E1"/>
</g>
<g opacity="0.5">
<path d="M176.137 17.1237V80.765C174.955 79.0383 173.616 77.4253 172.142 75.9516C171.175 74.9838 170.147 74.0718 169.065 73.2293V18.5997C169.065 14.0927 165.412 10.4397 160.905 10.4397H57.9584C53.4491 10.4397 49.7985 14.0927 49.7985 18.5997V58.2995H42.7246V17.1237C42.7246 9.17951 49.1672 2.73694 57.1113 2.73694H161.75C169.694 2.73694 176.137 9.17951 176.137 17.1237Z" fill="#8CC3E1"/>
</g>
<path d="M161.749 197.727H57.1107C48.9219 197.727 42.2598 191.065 42.2598 182.876V123.31H50.2619V181.4C50.2619 185.644 53.7141 189.096 57.9575 189.096H160.904C165.147 189.096 168.6 185.644 168.6 181.4V138.738L169.036 138.712C171.53 138.562 173.839 138.398 176.098 138.211L176.6 138.17V182.876C176.6 191.065 169.938 197.727 161.749 197.727ZM43.1881 124.238V182.876C43.1881 190.553 49.4336 196.798 57.1107 196.798H161.749C169.426 196.798 175.672 190.553 175.672 182.876V139.177C173.699 139.337 171.68 139.48 169.528 139.612V181.4C169.528 186.155 165.659 190.024 160.904 190.024H57.9575C53.2024 190.024 49.3336 186.155 49.3336 181.4V124.238H43.1881Z" fill="#8CC3E1"/>
<path d="M176.6 82.2656L175.753 81.0272C174.592 79.33 173.266 77.7328 171.813 76.2797C170.851 75.3175 169.83 74.4142 168.779 73.5955L168.6 73.456V18.5996C168.6 14.3563 165.147 10.9038 160.904 10.9038H57.9575C53.7141 10.9038 50.2619 14.3563 50.2619 18.5996V58.7639H42.2598V17.1238C42.2598 8.93507 48.9219 2.27295 57.1107 2.27295H161.749C169.938 2.27295 176.6 8.93507 176.6 17.1238V82.2656ZM169.528 73.0034C170.547 73.8081 171.535 74.6886 172.47 75.6234C173.621 76.7743 174.694 78.0134 175.672 79.3195V17.1236C175.672 9.44658 169.426 3.20104 161.749 3.20104H57.1107C49.4336 3.20104 43.1881 9.44658 43.1881 17.1236V57.8353H49.3336V18.5996C49.3336 13.8443 53.2024 9.97549 57.9575 9.97549H160.904C165.659 9.97549 169.528 13.8443 169.528 18.5996L169.528 73.0034Z" fill="#8CC3E1"/>
<path d="M50.2632 95.6274H42.2617V86.4456H50.2632V95.6274ZM43.1903 94.6991H49.3351V87.3739H43.1903V94.6991Z" fill="#8CC3E1"/>
<g opacity="0.25">
<path d="M169.065 73.2293V18.5997C169.065 14.0927 165.412 10.4397 160.905 10.4397H57.9588C53.4495 10.4397 49.7988 14.0927 49.7988 18.5997V58.2995H97.2107C99.5919 58.2995 101.52 60.2281 101.52 62.6092V82.5984C101.52 84.9796 99.5919 86.9105 97.2107 86.9105H49.7988V95.1633H97.2107C99.5919 95.1633 101.52 97.0919 101.52 99.473V119.465C101.52 121.843 99.5919 123.774 97.2107 123.774H49.7988V181.4C49.7988 185.909 53.4495 189.56 57.9588 189.56H160.905C165.412 189.56 169.065 185.909 169.065 181.4V139.175C167.056 139.298 165.043 139.403 163.031 139.488C155.697 139.488 157.897 133.721 150.824 133.721C143.75 133.721 142.701 134.997 133.659 139.488C127.539 139.226 121.421 138.802 115.325 138.212C113.138 138.212 111.159 137.411 109.727 136.123C108.295 134.833 123.09 134.183 123.09 132.212L124.366 122.349C124.366 118.603 110.613 116.387 114.689 116.099V99.7492C114.689 83.167 126.68 69.386 142.467 66.6057V59.1489C142.467 55.9044 146.187 61.6596 149.431 61.6596C151.053 61.6596 151.434 53.934 152.499 54.9947C153.562 56.0599 154.221 57.529 154.221 59.1489V66.6057C159.752 67.5781 164.818 69.9036 169.065 73.2293ZM126.892 145.191C129.273 145.191 131.201 147.117 131.201 149.5V169.49C131.201 171.871 129.273 173.799 126.892 173.799H61.4168C59.0357 173.799 57.1071 171.871 57.1071 169.49V149.5C57.1071 147.117 59.0357 145.191 61.4168 145.191H126.892ZM131.201 42.2812C131.201 44.6624 129.273 46.591 126.892 46.591H61.4168C59.0357 46.591 57.1071 44.6624 57.1071 42.2812V22.2921C57.1071 19.9109 59.0357 17.98 61.4168 17.98H126.892C129.273 17.98 131.201 19.9109 131.201 22.2921V42.2812Z" fill="#8CC3E1"/>
</g>
<g opacity="0.75">
<path d="M42.7254 42.7393H38.2168V58.2982H42.7254V42.7393Z" fill="#8CC3E1"/>
</g>
<g opacity="0.75">
<path d="M42.7254 86.9094H38.2168V90.6088H42.7254V86.9094Z" fill="#8CC3E1"/>
</g>
<path d="M43.1892 58.7626H37.752V42.2753H43.1892V58.7626ZM38.6803 57.8342H42.2608V43.2036H38.6803V57.8342Z" fill="#8CC3E1"/>
<path d="M43.1892 91.0731H37.752V86.4454H43.1892V91.0731ZM38.6803 90.1448H42.2608V87.3738H38.6803V90.1448Z" fill="#8CC3E1"/>
<path d="M243.422 141.09H171.127L226.682 54.585L243.422 141.09Z" fill="#8CC3E1"/>
<path d="M214.118 141.09H110.392C109.149 141.09 108.194 139.987 108.373 138.756L120.422 55.8032C120.523 55.1038 121.123 54.585 121.83 54.585H226.683L214.118 141.09Z" fill="white"/>
<path d="M213.81 83.1279H123.951V83.3791H213.81V83.1279Z" fill="#8CC3E1"/>
<path d="M212.005 95.6143H122.146V95.8654H212.005V95.6143Z" fill="#8CC3E1"/>
<path d="M210.201 108.1H120.342V108.351H210.201V108.1Z" fill="#8CC3E1"/>
<path d="M208.396 120.587H118.537V120.838H208.396V120.587Z" fill="#8CC3E1"/>
<path d="M206.591 133.073H116.732V133.324H206.591V133.073Z" fill="#8CC3E1"/>
<path d="M123.802 83.2314L116.596 133.176L116.869 133.215L124.076 83.2709L123.802 83.2314Z" fill="#8CC3E1"/>
<path d="M136.638 83.2318L129.432 133.176L129.705 133.216L136.912 83.2713L136.638 83.2318Z" fill="#8CC3E1"/>
<path d="M149.474 83.2323L142.268 133.177L142.541 133.216L149.748 83.2718L149.474 83.2323Z" fill="#8CC3E1"/>
<path d="M162.31 83.2328L155.104 133.177L155.377 133.216L162.584 83.2723L162.31 83.2328Z" fill="#8CC3E1"/>
<path d="M175.159 83.2425L167.947 133.187L168.221 133.226L175.432 83.282L175.159 83.2425Z" fill="#8CC3E1"/>
<path d="M187.984 83.2342L180.777 133.178L181.051 133.218L188.257 83.2737L187.984 83.2342Z" fill="#8CC3E1"/>
<path d="M200.82 83.2346L193.613 133.179L193.887 133.218L201.093 83.2741L200.82 83.2346Z" fill="#8CC3E1"/>
<path d="M213.657 83.2364L206.451 133.181L206.725 133.22L213.931 83.2759L213.657 83.2364Z" fill="#8CC3E1"/>
<path d="M206.712 133.337H116.574L116.597 133.179L123.831 83.1154H213.969L213.947 83.2733L206.712 133.337ZM116.893 133.061H206.473L213.65 83.3919H124.071L116.893 133.061Z" fill="#8CC3E1"/>
<path d="M226.684 54.5839L223.599 75.8307H117.516L120.419 55.8389C120.524 55.1185 121.141 54.5839 121.87 54.5839H226.684Z" fill="#B7D9EC"/>
<path d="M137.957 63.4594C139.495 63.4594 140.741 62.2132 140.741 60.6759C140.741 59.1387 139.495 57.8925 137.957 57.8925C136.42 57.8925 135.174 59.1387 135.174 60.6759C135.174 62.2132 136.42 63.4594 137.957 63.4594Z" fill="white"/>
<path d="M137.996 61.4271C137.356 61.4271 136.687 61.392 136.12 61.286C132.531 60.6151 129.926 57.4643 129.926 53.7943C129.926 49.6214 133.165 46.2264 137.146 46.2264C137.871 46.2264 138.572 46.3393 139.233 46.5489C139.895 46.3393 140.595 46.2264 141.321 46.2264C145.302 46.2264 148.541 49.6214 148.541 53.7943C148.541 53.9511 148.536 53.9977 148.525 54.074C148.521 54.1024 148.515 54.1393 148.508 54.2151C148.489 54.4224 148.305 54.5756 148.099 54.5563C147.891 54.5373 147.739 54.3541 147.757 54.1468C147.767 54.0473 147.774 53.9986 147.78 53.9613C147.785 53.9238 147.787 53.9099 147.787 53.7943C147.787 50.037 144.887 46.9805 141.321 46.9805C141.014 46.9805 140.711 47.0033 140.414 47.0471C142.757 48.2993 144.366 50.8536 144.366 53.7943C144.366 53.9511 144.361 53.9977 144.35 54.074C144.345 54.1024 144.34 54.1393 144.333 54.2151C144.314 54.4224 144.13 54.5756 143.924 54.5563C143.716 54.5373 143.564 54.3541 143.582 54.1468C143.591 54.0473 143.599 53.9986 143.604 53.9613C143.61 53.9238 143.612 53.9099 143.612 53.7943C143.612 50.8064 141.778 48.2617 139.234 47.3447C136.689 48.2617 134.855 50.8064 134.855 53.7943C134.855 57.1753 137.248 60.0764 140.42 60.5425C140.607 60.57 140.745 60.7319 140.742 60.9208C140.739 61.1098 140.597 61.2678 140.409 61.2897C140.339 61.2982 139.222 61.4271 137.996 61.4271ZM137.146 46.9806C133.58 46.9806 130.68 50.0374 130.68 53.7944C130.68 57.1018 133.026 59.9407 136.259 60.5451C136.862 60.6578 137.614 60.6819 138.305 60.6697C135.809 59.4585 134.101 56.7964 134.101 53.7946C134.101 50.8539 135.71 48.2997 138.053 47.0475C137.756 47.0035 137.453 46.9806 137.146 46.9806Z" fill="#8CC3E1"/>
<path d="M159.801 63.4595C161.338 63.4595 162.585 62.2133 162.585 60.6761C162.585 59.1388 161.338 57.8926 159.801 57.8926C158.264 57.8926 157.018 59.1388 157.018 60.6761C157.018 62.2133 158.264 63.4595 159.801 63.4595Z" fill="white"/>
<path d="M159.84 61.4272C159.2 61.4272 158.53 61.3921 157.964 61.2861C154.374 60.6152 151.77 57.4644 151.77 53.7944C151.77 49.6215 155.008 46.2266 158.989 46.2266C159.715 46.2266 160.416 46.3394 161.077 46.549C161.738 46.3394 162.439 46.2266 163.165 46.2266C167.146 46.2266 170.385 49.6215 170.385 53.7944C170.385 53.9512 170.38 53.9978 170.368 54.0741C170.364 54.1025 170.359 54.1395 170.352 54.2152C170.333 54.4225 170.15 54.5757 169.942 54.5564C169.735 54.5374 169.582 54.3542 169.601 54.1469C169.61 54.0474 169.617 53.9988 169.623 53.9614C169.629 53.9239 169.631 53.91 169.631 53.7944C169.631 50.0371 166.731 46.9806 163.165 46.9806C162.858 46.9806 162.554 47.0034 162.258 47.0472C164.601 48.2995 166.21 50.8537 166.21 53.7944C166.21 53.9512 166.205 53.9978 166.193 54.0741C166.189 54.1025 166.184 54.1395 166.177 54.2152C166.158 54.4225 165.975 54.5757 165.767 54.5564C165.56 54.5374 165.407 54.3542 165.426 54.1469C165.435 54.0474 165.442 53.9988 165.448 53.9614C165.454 53.9239 165.456 53.91 165.456 53.7944C165.456 50.8065 163.622 48.2618 161.078 47.3448C158.533 48.2618 156.699 50.8065 156.699 53.7944C156.699 57.1754 159.091 60.0764 162.264 60.5427C162.451 60.5701 162.588 60.732 162.586 60.921C162.583 61.1099 162.441 61.2679 162.253 61.2898C162.182 61.2984 161.066 61.4272 159.84 61.4272ZM158.989 46.9808C155.424 46.9808 152.523 50.0375 152.523 53.7946C152.523 57.1019 154.869 59.9409 158.102 60.5453C158.705 60.6579 159.457 60.6821 160.148 60.6698C157.653 59.4586 155.945 56.7965 155.945 53.7948C155.945 50.8541 157.553 48.2998 159.896 47.0476C159.6 47.0036 159.297 46.9808 158.989 46.9808Z" fill="#8CC3E1"/>
<path d="M181.643 63.4595C183.18 63.4595 184.426 62.2133 184.426 60.6761C184.426 59.1388 183.18 57.8926 181.643 57.8926C180.106 57.8926 178.859 59.1388 178.859 60.6761C178.859 62.2133 180.106 63.4595 181.643 63.4595Z" fill="white"/>
<path d="M181.682 61.4272C181.042 61.4272 180.372 61.3921 179.806 61.2861C176.216 60.6152 173.611 57.4644 173.611 53.7944C173.611 49.6215 176.85 46.2266 180.831 46.2266C181.557 46.2266 182.258 46.3394 182.919 46.549C183.58 46.3394 184.281 46.2266 185.007 46.2266C188.988 46.2266 192.227 49.6215 192.227 53.7944C192.227 53.9512 192.222 53.9978 192.21 54.0741C192.206 54.1025 192.201 54.1395 192.194 54.2152C192.175 54.4225 191.993 54.5757 191.784 54.5564C191.577 54.5374 191.424 54.3542 191.443 54.1469C191.452 54.0474 191.459 53.9988 191.465 53.9614C191.471 53.9239 191.473 53.91 191.473 53.7944C191.473 50.0371 188.572 46.9806 185.007 46.9806C184.699 46.9806 184.396 47.0034 184.1 47.0472C186.443 48.2995 188.052 50.8537 188.052 53.7944C188.052 53.9512 188.047 53.9978 188.035 54.0741C188.031 54.1025 188.026 54.1395 188.019 54.2152C188 54.4225 187.818 54.5757 187.609 54.5564C187.402 54.5374 187.249 54.3542 187.268 54.1469C187.277 54.0474 187.284 53.9988 187.29 53.9614C187.296 53.9239 187.298 53.91 187.298 53.7944C187.298 50.8065 185.464 48.2618 182.919 47.3448C180.375 48.2618 178.541 50.8065 178.541 53.7944C178.541 57.1754 180.933 60.0766 184.106 60.5427C184.293 60.5701 184.43 60.732 184.428 60.921C184.425 61.1099 184.283 61.2679 184.095 61.2898C184.024 61.2984 182.908 61.4272 181.682 61.4272ZM180.831 46.9808C177.266 46.9808 174.365 50.0375 174.365 53.7946C174.365 57.1019 176.711 59.9409 179.944 60.5453C180.547 60.6579 181.3 60.6821 181.99 60.6698C179.495 59.4586 177.787 56.7965 177.787 53.7948C177.787 50.8541 179.395 48.2998 181.738 47.0476C181.442 47.0036 181.139 46.9808 180.831 46.9808Z" fill="#8CC3E1"/>
<path d="M203.487 63.4595C205.024 63.4595 206.27 62.2133 206.27 60.6761C206.27 59.1388 205.024 57.8926 203.487 57.8926C201.949 57.8926 200.703 59.1388 200.703 60.6761C200.703 62.2133 201.949 63.4595 203.487 63.4595Z" fill="white"/>
<path d="M203.526 61.4271C202.886 61.4271 202.216 61.392 201.649 61.286C198.06 60.6151 195.455 57.4643 195.455 53.7943C195.455 49.6214 198.694 46.2264 202.675 46.2264C203.4 46.2264 204.101 46.3393 204.763 46.5489C205.424 46.3393 206.125 46.2264 206.85 46.2264C210.831 46.2264 214.07 49.6214 214.07 53.7943C214.07 53.9511 214.065 53.9977 214.054 54.074C214.05 54.1024 214.044 54.1393 214.037 54.2151C214.018 54.4224 213.835 54.5756 213.628 54.5563C213.42 54.5373 213.268 54.3541 213.287 54.1468C213.296 54.0473 213.303 53.9986 213.309 53.9613C213.314 53.9238 213.316 53.9099 213.316 53.7943C213.316 50.037 210.416 46.9805 206.851 46.9805C206.543 46.9805 206.24 47.0033 205.944 47.0471C208.287 48.2993 209.895 50.8536 209.895 53.7943C209.895 53.9513 209.89 53.9981 209.879 54.0744C209.875 54.1028 209.869 54.1399 209.862 54.2154C209.843 54.4228 209.66 54.5756 209.453 54.5564C209.245 54.5373 209.093 54.3539 209.112 54.1466C209.121 54.0476 209.128 53.9992 209.134 53.9621C209.139 53.9246 209.141 53.9106 209.141 53.7944C209.141 50.8066 207.307 48.2618 204.763 47.3448C202.219 48.2618 200.385 50.8066 200.385 53.7944C200.385 57.1755 202.777 60.0764 205.949 60.5427C206.136 60.5702 206.274 60.7321 206.271 60.921C206.269 61.11 206.126 61.268 205.938 61.2899C205.867 61.2982 204.751 61.4271 203.526 61.4271ZM202.675 46.9806C199.11 46.9806 196.209 50.0374 196.209 53.7944C196.209 57.1018 198.555 59.9407 201.788 60.5451C202.391 60.6578 203.143 60.6819 203.834 60.6697C201.339 59.4585 199.63 56.7964 199.63 53.7946C199.63 50.8539 201.239 48.2997 203.582 47.0475C203.286 47.0035 202.982 46.9806 202.675 46.9806Z" fill="#8CC3E1"/>
<path d="M158.925 98.4341C157.239 99.5642 155.615 100.776 154.017 102.025C153.077 101.307 152.102 100.633 151.105 99.999C150.334 99.5087 149.545 99.0454 148.743 98.6073C148.435 98.4388 148.162 98.9023 148.467 99.079C150.208 100.088 151.869 101.225 153.443 102.475C151.763 103.802 150.111 105.167 148.45 106.52C148.289 106.651 148.505 106.935 148.674 106.81C150.437 105.508 152.21 104.218 153.952 102.889C154.68 103.485 155.391 104.103 156.079 104.747C156.734 105.36 157.336 106.036 158.01 106.627C158.371 106.943 158.815 106.474 158.527 106.11C158.03 105.482 157.418 104.938 156.831 104.396C156.24 103.85 155.634 103.322 155.012 102.811C154.857 102.684 154.696 102.561 154.538 102.436C156.1 101.229 157.635 99.9889 159.108 98.6721C159.235 98.5583 159.068 98.3382 158.925 98.4341Z" fill="#A2CEE7"/>
<path d="M195.157 110.963C193.471 112.093 191.847 113.306 190.25 114.554C189.31 113.836 188.335 113.162 187.337 112.528C186.566 112.038 185.778 111.575 184.975 111.136C184.667 110.968 184.395 111.431 184.7 111.608C186.44 112.617 188.102 113.754 189.675 115.004C187.996 116.332 186.343 117.696 184.683 119.049C184.522 119.18 184.737 119.464 184.907 119.339C186.67 118.037 188.443 116.747 190.184 115.418C190.912 116.014 191.623 116.632 192.311 117.276C192.967 117.889 193.568 118.565 194.242 119.156C194.603 119.472 195.048 119.003 194.759 118.639C194.263 118.011 193.65 117.467 193.063 116.925C192.473 116.379 191.866 115.851 191.245 115.341C191.089 115.213 190.929 115.09 190.771 114.965C192.333 113.759 193.867 112.518 195.341 111.201C195.468 111.087 195.301 110.867 195.157 110.963Z" fill="#A2CEE7"/>
<path d="M211.679 85.9036C209.993 87.0337 208.368 88.2459 206.771 89.4944C205.831 88.7766 204.856 88.1022 203.859 87.4685C203.088 86.9782 202.299 86.5149 201.497 86.0768C201.189 85.9083 200.916 86.3718 201.221 86.5485C202.961 87.557 204.623 88.6947 206.197 89.9442C204.517 91.2719 202.865 92.6363 201.204 93.9893C201.043 94.1206 201.259 94.4046 201.428 94.2797C203.191 92.9775 204.964 91.6874 206.706 90.3581C207.434 90.9547 208.145 91.5727 208.833 92.2164C209.488 92.8295 210.09 93.5054 210.764 94.0961C211.125 94.4124 211.569 93.9433 211.281 93.5791C210.784 92.9517 210.172 92.4078 209.585 91.8654C208.994 91.3195 208.388 90.7912 207.766 90.2809C207.61 90.153 207.45 90.0303 207.292 89.905C208.854 88.699 210.389 87.4584 211.862 86.1416C211.989 86.0278 211.822 85.8076 211.679 85.9036Z" fill="#A2CEE7"/>
<path d="M169.728 110.406C168.042 111.537 166.417 112.749 164.82 113.997C163.88 113.279 162.905 112.605 161.908 111.971C161.136 111.481 160.348 111.018 159.546 110.58C159.237 110.411 158.965 110.875 159.27 111.051C161.01 112.06 162.672 113.198 164.246 114.447C162.566 115.775 160.914 117.139 159.253 118.492C159.092 118.623 159.308 118.907 159.477 118.782C161.24 117.48 163.013 116.19 164.755 114.861C165.483 115.458 166.194 116.075 166.882 116.719C167.537 117.332 168.139 118.008 168.813 118.599C169.174 118.915 169.618 118.446 169.33 118.082C168.833 117.454 168.221 116.911 167.634 116.368C167.043 115.822 166.437 115.294 165.815 114.784C165.659 114.656 165.499 114.533 165.341 114.408C166.903 113.202 168.438 111.961 169.911 110.644C170.038 110.531 169.871 110.31 169.728 110.406Z" fill="#A2CEE7"/>
<path d="M129.261 123.215C127.575 124.345 125.95 125.557 124.353 126.805C123.413 126.088 122.438 125.413 121.441 124.779C120.67 124.289 119.881 123.826 119.079 123.388C118.771 123.219 118.498 123.683 118.803 123.86C120.544 124.868 122.205 126.006 123.779 127.255C122.099 128.583 120.447 129.947 118.786 131.3C118.625 131.432 118.841 131.716 119.01 131.591C120.773 130.289 122.546 128.998 124.288 127.669C125.016 128.266 125.727 128.884 126.415 129.527C127.07 130.141 127.672 130.816 128.346 131.407C128.707 131.723 129.151 131.254 128.863 130.89C128.366 130.263 127.754 129.719 127.167 129.176C126.576 128.63 125.97 128.102 125.348 127.592C125.193 127.464 125.032 127.341 124.874 127.216C126.436 126.01 127.971 124.769 129.444 123.453C129.571 123.339 129.404 123.119 129.261 123.215Z" fill="#A2CEE7"/>
<path d="M134.568 84.9313C132.882 86.0614 131.257 87.2736 129.66 88.5221C128.72 87.8043 127.745 87.1299 126.748 86.496C125.976 86.0057 125.188 85.5424 124.386 85.1043C124.077 84.9358 123.805 85.3993 124.11 85.576C125.85 86.5845 127.512 87.7222 129.086 88.9717C127.406 90.2995 125.753 91.6638 124.093 93.0169C123.932 93.1481 124.147 93.4321 124.317 93.3072C126.08 92.005 127.853 90.7149 129.594 89.3856C130.322 89.9822 131.033 90.6002 131.721 91.2439C132.376 91.8571 132.978 92.5329 133.652 93.1236C134.013 93.4399 134.457 92.9708 134.169 92.6066C133.673 91.9792 133.06 91.4353 132.473 90.8929C131.883 90.347 131.276 89.8185 130.655 89.3084C130.499 89.1805 130.339 89.0578 130.18 88.9325C131.743 87.7265 133.277 86.486 134.751 85.1691C134.878 85.0555 134.711 84.8354 134.568 84.9313Z" fill="#A2CEE7"/>
<path d="M144.131 119.326C143.832 118.617 143.184 118.032 142.666 117.48C142.111 116.888 141.542 116.306 140.953 115.748C140.47 115.29 139.976 114.846 139.474 114.409C139.5 114.386 139.524 114.362 139.549 114.339C140.156 113.791 140.83 113.299 141.386 112.702C141.6 112.473 141.327 112.091 141.045 112.26C140.337 112.684 139.726 113.285 139.117 113.839C139.068 113.884 139.021 113.93 138.972 113.975C138.409 113.498 137.836 113.031 137.252 112.58C136.528 112.021 135.762 111.514 134.995 111.017C134.75 110.858 134.546 111.234 134.771 111.401C136.051 112.355 137.305 113.357 138.511 114.407C138.116 114.782 137.725 115.161 137.345 115.551C136.196 116.727 135.159 118.022 134.194 119.353C134.064 119.533 134.361 119.764 134.505 119.592C135.546 118.343 136.662 117.166 137.804 116.009C138.195 115.612 138.597 115.227 139.004 114.846C139.173 114.997 139.345 115.145 139.512 115.298C140.264 115.986 140.996 116.696 141.707 117.425C142.063 117.79 142.413 118.16 142.757 118.536C143.083 118.892 143.418 119.301 143.834 119.554C143.972 119.637 144.201 119.494 144.131 119.326Z" fill="#A2CEE7"/>
<g opacity="0.25">
<path d="M127.025 46.5919H61.2849C58.9778 46.5919 57.1074 44.7216 57.1074 42.4145V22.1584C57.1074 19.8513 58.9778 17.981 61.2849 17.981H127.025C129.332 17.981 131.202 19.8513 131.202 22.1584V42.4145C131.202 44.7216 129.332 46.5919 127.025 46.5919Z" fill="#8CC3E1"/>
</g>
<g opacity="0.5">
<path d="M131.202 42.4136V45.8971C131.202 48.204 129.331 50.0746 127.024 50.0746H61.2849C58.978 50.0746 57.1074 48.204 57.1074 45.8971V42.4136C57.1074 44.7228 58.978 46.591 61.2849 46.591H127.024C129.331 46.591 131.202 44.7228 131.202 42.4136Z" fill="#8CC3E1"/>
</g>
<path d="M127.024 47.0552H61.2842C58.7248 47.0552 56.6426 44.9729 56.6426 42.4135V22.1575C56.6426 19.5981 58.7248 17.5159 61.2842 17.5159H127.024C129.583 17.5159 131.665 19.5981 131.665 22.1575V42.4135C131.665 44.9729 129.583 47.0552 127.024 47.0552ZM61.2842 18.4442C59.2368 18.4442 57.5709 20.1101 57.5709 22.1575V42.4135C57.5709 44.461 59.2368 46.1268 61.2842 46.1268H127.024C129.071 46.1268 130.737 44.461 130.737 42.4135V22.1575C130.737 20.1101 129.071 18.4442 127.024 18.4442H61.2842Z" fill="#8CC3E1"/>
<g opacity="0.25">
<path d="M72.2069 22.6609C71.5998 22.6609 71.0066 22.7175 70.4313 22.8254C69.4827 23.0025 68.5823 23.3191 67.7526 23.7533C64.6784 25.3588 62.582 28.578 62.582 32.2869C62.582 37.6027 66.8911 41.9118 72.2069 41.9118C73.2109 41.9118 74.1817 41.7584 75.0928 41.4706C75.1715 41.4472 75.249 41.4207 75.3266 41.3945C79.1116 40.0988 81.8315 36.5101 81.8315 32.2869C81.8318 26.9713 77.5227 22.6609 72.2069 22.6609ZM75.534 33.1389C75.534 33.6021 75.5022 34.028 75.4345 34.4181C75.3583 34.8786 75.2367 35.2866 75.068 35.6419C74.9615 35.87 74.8343 36.0775 74.6892 36.2627C74.1251 36.9845 73.3009 37.3456 72.2139 37.3456C71.1407 37.3456 70.3208 36.9917 69.7524 36.2836C69.184 35.5755 68.8923 34.562 68.8798 33.2412V31.4282C68.8798 30.0536 69.1646 29.0095 69.7359 28.2961C70.2379 27.6697 70.9349 27.3183 71.8282 27.2436C71.9484 27.2338 72.073 27.2285 72.2002 27.2285C72.7671 27.2285 73.2636 27.3266 73.6908 27.5244C74.0698 27.7001 74.3934 27.953 74.6616 28.2863C75.23 28.9916 75.5203 30.0051 75.5342 31.3273L75.534 33.1389Z" fill="#8CC3E1"/>
</g>
<g opacity="0.5">
<path d="M72.1995 27.2285C71.1266 27.2285 70.3048 27.5848 69.7346 28.297C69.1641 29.0093 68.8789 30.0529 68.8789 31.428V33.2403C68.8924 34.5614 69.1832 35.5758 69.7513 36.2836C70.3194 36.9912 71.1401 37.3454 72.213 37.3454C73.2996 37.3454 74.1246 36.9847 74.6881 36.2634C75.2516 35.5421 75.5334 34.5008 75.5334 33.1392V31.3266C75.5199 30.0058 75.2291 28.9926 74.661 28.2868C74.0931 27.5813 73.2727 27.2285 72.1995 27.2285ZM73.5792 33.4884C73.5702 34.2603 73.4597 34.8334 73.2481 35.2079C73.0359 35.5825 72.6911 35.7698 72.2134 35.7698C71.7309 35.7698 71.3805 35.5746 71.1619 35.1843C70.9433 34.7939 70.834 34.197 70.834 33.3938V30.9975C70.8474 30.2439 70.9635 29.69 71.1823 29.3358C71.4009 28.9817 71.7402 28.8043 72.2 28.8043C72.6734 28.8043 73.0218 28.9905 73.2448 29.3627C73.4681 29.7352 73.5795 30.3298 73.5795 31.1465L73.5792 33.4884Z" fill="#8CC3E1"/>
</g>
<path d="M72.2062 42.3757C66.643 42.3757 62.1172 37.8498 62.1172 32.2868C62.1172 28.5153 64.1939 25.0877 67.5372 23.3417C68.4212 22.8792 69.3663 22.5517 70.3456 22.3691C70.9555 22.2547 71.5817 22.1967 72.2065 22.1967C77.7697 22.1967 82.2955 26.7232 82.2955 32.2868C82.2955 36.6008 79.5551 40.4373 75.4765 41.8335C75.3929 41.8621 75.3094 41.8901 75.2249 41.9154C74.2597 42.2199 73.2415 42.3757 72.2062 42.3757ZM72.2062 23.125C71.639 23.125 71.0702 23.1777 70.5164 23.2816C69.6273 23.4473 68.77 23.7446 67.9675 24.1645C64.9314 25.7501 63.0458 28.8623 63.0458 32.2868C63.0458 37.3381 67.1552 41.4473 72.2065 41.4473C73.1469 41.4473 74.0708 41.3062 74.9527 41.0277C75.0334 41.0036 75.1049 40.9792 75.1766 40.9549C78.879 39.6875 81.3672 36.2039 81.3672 32.2868C81.367 27.2349 77.2575 23.125 72.2062 23.125Z" fill="#8CC3E1"/>
<path d="M72.2143 37.8098C70.9991 37.8098 70.0489 37.3939 69.3907 36.5742C68.7572 35.7854 68.4292 34.6654 68.416 33.2457V31.4283C68.416 29.9516 68.7384 28.8002 69.3738 28.006C69.9568 27.2787 70.7695 26.8665 71.7895 26.7813C72.5758 26.7184 73.2969 26.8305 73.8859 27.1034C74.3301 27.3093 74.7128 27.6094 75.0233 27.9958C75.6553 28.78 75.9835 29.8996 75.9983 31.3229V33.1394C75.9983 33.6419 75.9638 34.0861 75.892 34.498C75.8096 34.9968 75.6732 35.45 75.4875 35.8415C75.3687 36.0959 75.2227 36.3349 75.0552 36.5494C74.4012 37.3853 73.4452 37.8098 72.2143 37.8098ZM72.2006 27.6927C72.0861 27.6927 71.9741 27.6976 71.8659 27.7064C71.1003 27.7704 70.5217 28.0582 70.0986 28.5862C69.5985 29.2112 69.3446 30.1676 69.3446 31.4283V33.2413C69.3559 34.4432 69.6152 35.3704 70.1148 35.9931C70.5948 36.5909 71.2815 36.8815 72.2145 36.8815C73.1581 36.8815 73.8483 36.5856 74.3243 35.9768C74.4487 35.8176 74.5578 35.6389 74.6481 35.4456C74.798 35.1297 74.9085 34.7596 74.9772 34.3428C75.0394 33.9849 75.0705 33.5813 75.0705 33.1389V31.3273C75.0577 30.1226 74.7987 29.1957 74.3007 28.5776C74.0769 28.2994 73.8138 28.0928 73.4963 27.9454C73.1335 27.7776 72.6974 27.6927 72.2006 27.6927Z" fill="#8CC3E1"/>
<path d="M72.214 37.8096C70.9984 37.8096 70.0483 37.3939 69.3905 36.5742C68.7581 35.7861 68.4304 34.6661 68.416 33.245V31.4278C68.416 29.9511 68.7381 28.8 69.3734 28.0067C70.0336 27.1821 70.9847 26.7642 72.2008 26.7642C73.4162 26.7642 74.3661 27.1784 75.0238 27.9958C75.6565 28.7812 75.9844 29.9005 75.9988 31.322V33.1392C75.9988 34.6004 75.6813 35.7478 75.0554 36.5492C74.4019 37.3854 73.4459 37.8096 72.214 37.8096ZM72.2008 27.6925C71.2676 27.6925 70.5802 27.9851 70.0981 28.5869C69.598 29.2115 69.3443 30.1672 69.3443 31.4278V33.2404C69.3566 34.4437 69.6156 35.3714 70.1144 35.9931C70.5939 36.5907 71.2808 36.881 72.214 36.881C73.1584 36.881 73.8486 36.5856 74.3236 35.9773C74.8191 35.343 75.0705 34.388 75.0705 33.1387V31.3262C75.0582 30.1231 74.7992 29.1966 74.3009 28.5776C73.8212 27.9819 73.1342 27.6925 72.2008 27.6925ZM72.214 36.2338C71.5626 36.2338 71.059 35.9492 70.7577 35.4108C70.4973 34.946 70.3706 34.2859 70.3706 33.3936V30.9973C70.3857 30.1428 70.5222 29.5222 70.7879 29.0917C71.0915 28.5999 71.5797 28.34 72.2008 28.34C72.8372 28.34 73.3361 28.6111 73.6437 29.124C73.9136 29.574 74.0447 30.2354 74.0447 31.1465V33.4941C74.0345 34.353 73.9064 34.9882 73.6532 35.4363C73.3575 35.9581 72.8599 36.2338 72.214 36.2338ZM72.2008 29.2681C71.8188 29.2681 71.6672 29.4343 71.5779 29.5791C71.4586 29.7722 71.3135 30.1764 71.2989 31.0054V33.3933C71.2989 34.2892 71.4451 34.7382 71.5677 34.9571C71.7044 35.2012 71.8977 35.3054 72.214 35.3054C72.6072 35.3054 72.7536 35.1404 72.8451 34.9791C72.9629 34.7705 73.1057 34.3416 73.1161 33.4855V31.1461C73.1161 30.2393 72.9699 29.8054 72.8474 29.6009C72.7093 29.3709 72.5099 29.2681 72.2008 29.2681Z" fill="#8CC3E1"/>
<g opacity="0.75">
<path d="M121.115 23.6973H88.6523V27.1207H121.115V23.6973Z" fill="#8CC3E1"/>
</g>
<path d="M114.389 32.0472H88.6517C88.3954 32.0472 88.1875 31.8393 88.1875 31.5831C88.1875 31.3268 88.3954 31.1189 88.6517 31.1189H114.389C114.645 31.1189 114.853 31.3268 114.853 31.5831C114.853 31.8393 114.645 32.0472 114.389 32.0472Z" fill="#8CC3E1"/>
<path d="M114.389 35.6544H88.6517C88.3954 35.6544 88.1875 35.4465 88.1875 35.1902C88.1875 34.934 88.3954 34.7261 88.6517 34.7261H114.389C114.645 34.7261 114.853 34.934 114.853 35.1902C114.853 35.4465 114.645 35.6544 114.389 35.6544Z" fill="#8CC3E1"/>
<path d="M114.389 39.2616H88.6517C88.3954 39.2616 88.1875 39.0536 88.1875 38.7974C88.1875 38.5412 88.3954 38.3333 88.6517 38.3333H114.389C114.645 38.3333 114.853 38.5412 114.853 38.7974C114.853 39.0536 114.645 39.2616 114.389 39.2616Z" fill="#8CC3E1"/>
<g opacity="0.25">
<path d="M127.025 173.803H61.2849C58.9778 173.803 57.1074 171.932 57.1074 169.625V149.369C57.1074 147.062 58.9778 145.192 61.2849 145.192H127.025C129.332 145.192 131.202 147.062 131.202 149.369V169.625C131.202 171.932 129.332 173.803 127.025 173.803Z" fill="#8CC3E1"/>
</g>
<g opacity="0.5">
<path d="M131.202 169.624V173.108C131.202 175.415 129.331 177.285 127.024 177.285H61.2849C58.978 177.285 57.1074 175.415 57.1074 173.108V169.624C57.1074 171.933 58.978 173.802 61.2849 173.802H127.024C129.331 173.802 131.202 171.933 131.202 169.624Z" fill="#8CC3E1"/>
</g>
<path d="M127.024 174.266H61.2842C58.7248 174.266 56.6426 172.184 56.6426 169.624V149.368C56.6426 146.809 58.7248 144.727 61.2842 144.727H127.024C129.583 144.727 131.665 146.809 131.665 149.368V169.624C131.665 172.184 129.583 174.266 127.024 174.266ZM61.2842 145.655C59.2368 145.655 57.5709 147.321 57.5709 149.368V169.624C57.5709 171.672 59.2368 173.338 61.2842 173.338H127.024C129.071 173.338 130.737 171.672 130.737 169.624V149.368C130.737 147.321 129.071 145.655 127.024 145.655H61.2842Z" fill="#8CC3E1"/>
<g opacity="0.25">
<path d="M72.2069 149.872C71.5998 149.872 71.0066 149.928 70.4313 150.036C69.4827 150.213 68.5823 150.53 67.7526 150.964C64.6784 152.57 62.582 155.789 62.582 159.498C62.582 164.813 66.8911 169.122 72.2069 169.122C73.2109 169.122 74.1817 168.969 75.0928 168.681C75.1715 168.658 75.249 168.632 75.3266 168.605C79.1116 167.309 81.8315 163.721 81.8315 159.498C81.8318 154.182 77.5227 149.872 72.2069 149.872ZM75.534 160.35C75.534 160.813 75.5022 161.239 75.4345 161.629C75.3583 162.089 75.2367 162.497 75.068 162.853C74.9615 163.081 74.8343 163.288 74.6892 163.473C74.1251 164.195 73.3009 164.556 72.2139 164.556C71.1407 164.556 70.3208 164.202 69.7524 163.494C69.184 162.786 68.8923 161.773 68.8798 160.452V158.639C68.8798 157.264 69.1646 156.22 69.7359 155.507C70.2379 154.88 70.9349 154.529 71.8282 154.454C71.9484 154.445 72.073 154.439 72.2002 154.439C72.7671 154.439 73.2636 154.538 73.6908 154.735C74.0698 154.911 74.3934 155.164 74.6616 155.497C75.23 156.203 75.5203 157.216 75.5342 158.538L75.534 160.35Z" fill="#8CC3E1"/>
</g>
<g opacity="0.5">
<path d="M72.1995 154.439C71.1266 154.439 70.3048 154.795 69.7346 155.508C69.1641 156.22 68.8789 157.264 68.8789 158.639V160.451C68.8924 161.772 69.1832 162.786 69.7513 163.494C70.3194 164.202 71.1401 164.556 72.213 164.556C73.2996 164.556 74.1246 164.195 74.6881 163.474C75.2516 162.753 75.5334 161.711 75.5334 160.35V158.537C75.5199 157.217 75.2291 156.203 74.661 155.497C74.0931 154.792 73.2727 154.439 72.1995 154.439ZM73.5792 160.699C73.5702 161.471 73.4597 162.044 73.2481 162.419C73.0359 162.793 72.6911 162.981 72.2134 162.981C71.7309 162.981 71.3805 162.785 71.1619 162.395C70.9433 162.005 70.834 161.408 70.834 160.604V158.208C70.8474 157.455 70.9635 156.901 71.1823 156.547C71.4009 156.192 71.7402 156.015 72.2 156.015C72.6734 156.015 73.0218 156.201 73.2448 156.573C73.4681 156.946 73.5795 157.541 73.5795 158.357L73.5792 160.699Z" fill="#8CC3E1"/>
</g>
<path d="M72.2062 169.587C66.643 169.587 62.1172 165.061 62.1172 159.498C62.1172 155.726 64.1939 152.298 67.5372 150.552C68.4212 150.09 69.3663 149.762 70.3456 149.58C70.9555 149.465 71.5817 149.407 72.2065 149.407C77.7697 149.407 82.2955 153.934 82.2955 159.498C82.2955 163.811 79.5551 167.648 75.4765 169.044C75.3927 169.073 75.3092 169.101 75.2242 169.126C74.259 169.431 73.2409 169.587 72.2062 169.587ZM72.2062 150.335C71.639 150.335 71.0702 150.388 70.5164 150.492C69.6273 150.658 68.77 150.955 67.9675 151.375C64.9314 152.961 63.0458 156.073 63.0458 159.498C63.0458 164.549 67.1552 168.658 72.2065 168.658C73.1464 168.658 74.0703 168.517 74.9529 168.238C75.0337 168.214 75.1052 168.19 75.1766 168.166C78.879 166.898 81.3672 163.415 81.3672 159.498C81.367 154.446 77.2575 150.335 72.2062 150.335Z" fill="#8CC3E1"/>
<path d="M72.2143 165.02C70.9991 165.02 70.0489 164.605 69.3907 163.785C68.7572 162.996 68.4292 161.876 68.416 160.456V158.639C68.416 157.162 68.7384 156.011 69.3738 155.217C69.957 154.489 70.7698 154.077 71.7898 153.992C72.5951 153.927 73.2976 154.042 73.8859 154.314C74.3299 154.52 74.7126 154.82 75.0233 155.206C75.6553 155.991 75.9835 157.11 75.9983 158.533V160.35C75.9983 160.852 75.9635 161.297 75.892 161.708C75.8096 162.207 75.6736 162.661 75.4875 163.052C75.3687 163.306 75.2227 163.545 75.0552 163.76C74.4012 164.596 73.4454 165.02 72.2143 165.02ZM72.2006 154.903C72.0861 154.903 71.9741 154.908 71.8659 154.917C71.1003 154.981 70.5219 155.269 70.0986 155.797C69.5985 156.422 69.3446 157.378 69.3446 158.639V160.452C69.3559 161.654 69.6152 162.581 70.1148 163.204C70.5948 163.801 71.2815 164.092 72.2145 164.092C73.1581 164.092 73.8483 163.796 74.3243 163.188C74.4487 163.028 74.5578 162.85 74.6481 162.656C74.798 162.34 74.9085 161.97 74.9772 161.553C75.0394 161.196 75.0705 160.792 75.0705 160.349V158.538C75.0577 157.333 74.7987 156.406 74.3007 155.788C74.0767 155.51 73.8135 155.303 73.4963 155.156C73.1331 154.988 72.6972 154.903 72.2006 154.903Z" fill="#8CC3E1"/>
<path d="M72.214 165.02C70.9981 165.02 70.0483 164.604 69.3905 163.785C68.7581 162.997 68.4304 161.877 68.416 160.456V158.639C68.416 157.162 68.7382 156.011 69.3736 155.218C70.0336 154.393 70.9847 153.975 72.2008 153.975C73.416 153.975 74.3659 154.389 75.0238 155.207C75.6565 155.992 75.9844 157.111 75.9988 158.533V160.35C75.9988 161.811 75.6813 162.959 75.0554 163.76C74.4019 164.596 73.4459 165.02 72.214 165.02ZM72.2008 154.903C71.2676 154.903 70.5802 155.196 70.0981 155.798C69.598 156.422 69.3443 157.378 69.3443 158.639V160.451C69.3566 161.654 69.6156 162.582 70.1144 163.204C70.5939 163.801 71.2806 164.092 72.214 164.092C73.1584 164.092 73.8486 163.796 74.3236 163.188C74.8191 162.554 75.0705 161.599 75.0705 160.349V158.537C75.0582 157.334 74.7992 156.407 74.3009 155.788C73.8212 155.193 73.1342 154.903 72.2008 154.903ZM72.214 163.444C71.5626 163.444 71.059 163.16 70.7577 162.622C70.4973 162.156 70.3706 161.497 70.3706 160.604V158.208C70.3857 157.354 70.5222 156.733 70.7879 156.302C71.0915 155.811 71.5797 155.551 72.2008 155.551C72.8372 155.551 73.3361 155.822 73.6437 156.334C73.9136 156.784 74.0447 157.446 74.0447 158.357V160.705C74.0345 161.563 73.9066 162.199 73.6532 162.647C73.3575 163.169 72.8599 163.444 72.214 163.444ZM72.2008 156.479C71.8188 156.479 71.6672 156.645 71.5779 156.79C71.4586 156.983 71.3135 157.387 71.2989 158.216V160.604C71.2989 161.5 71.4451 161.949 71.5677 162.168C71.7044 162.412 71.8975 162.516 72.214 162.516C72.6072 162.516 72.7536 162.351 72.8451 162.19C72.9629 161.981 73.1057 161.552 73.1161 160.696V158.357C73.1161 157.45 72.9699 157.016 72.8474 156.812C72.7093 156.582 72.5099 156.479 72.2008 156.479Z" fill="#8CC3E1"/>
<g opacity="0.75">
<path d="M121.115 150.908H88.6523V154.331H121.115V150.908Z" fill="#8CC3E1"/>
</g>
<path d="M114.389 159.258H88.6517C88.3954 159.258 88.1875 159.05 88.1875 158.794C88.1875 158.538 88.3954 158.33 88.6517 158.33H114.389C114.645 158.33 114.853 158.538 114.853 158.794C114.853 159.05 114.645 159.258 114.389 159.258Z" fill="#8CC3E1"/>
<path d="M114.389 162.865H88.6517C88.3954 162.865 88.1875 162.657 88.1875 162.401C88.1875 162.145 88.3954 161.937 88.6517 161.937H114.389C114.645 161.937 114.853 162.145 114.853 162.401C114.853 162.657 114.645 162.865 114.389 162.865Z" fill="#8CC3E1"/>
<path d="M114.389 166.472H88.6517C88.3954 166.472 88.1875 166.264 88.1875 166.008C88.1875 165.752 88.3954 165.544 88.6517 165.544H114.389C114.645 165.544 114.853 165.752 114.853 166.008C114.853 166.264 114.645 166.472 114.389 166.472Z" fill="#8CC3E1"/>
<g opacity="0.25">
<path d="M97.3433 86.5368H31.6032C29.2961 86.5368 27.4258 84.6664 27.4258 82.3593V62.1032C27.4258 59.7961 29.2961 57.9258 31.6032 57.9258H97.3433C99.6504 57.9258 101.521 59.7961 101.521 62.1032V82.3593C101.521 84.6664 99.6504 86.5368 97.3433 86.5368Z" fill="#8CC3E1"/>
</g>
<g opacity="0.5">
<path d="M101.52 82.5984V85.8429C101.52 88.1498 99.6499 90.0204 97.343 90.0204H49.7988V86.9105H97.2107C99.5919 86.9105 101.52 84.9795 101.52 82.5984Z" fill="#8CC3E1"/>
</g>
<path d="M97.3421 87H31.6026C29.0432 87 26.9609 84.9178 26.9609 82.3584V62.1023C26.9609 59.5429 29.0432 57.4607 31.6026 57.4607H97.3421C99.9015 57.4607 101.984 59.5429 101.984 62.1023V82.3584C101.984 84.9178 99.9015 87 97.3421 87ZM31.6026 58.389C29.5551 58.389 27.8893 60.0549 27.8893 62.1023V82.3584C27.8893 84.4058 29.5551 86.0717 31.6026 86.0717H97.3421C99.3896 86.0717 101.055 84.4058 101.055 82.3584V62.1023C101.055 60.0549 99.3896 58.389 97.3421 58.389H31.6026Z" fill="#8CC3E1"/>
<g opacity="0.25">
<path d="M42.5253 62.606C41.9181 62.606 41.3249 62.6626 40.7496 62.7705C39.8009 62.9476 38.9006 63.2641 38.0709 63.6984C34.9968 65.3039 32.9004 68.5231 32.9004 72.232C32.9004 77.5478 37.2094 81.8566 42.5253 81.8566C43.5292 81.8566 44.5 81.7032 45.4112 81.4154C45.4899 81.392 45.5674 81.3658 45.6449 81.3393C49.4299 80.0436 52.1499 76.4549 52.1499 72.2318C52.1501 66.9162 47.8411 62.606 42.5253 62.606ZM45.8526 73.084C45.8526 73.5472 45.8208 73.9731 45.7531 74.3632C45.6769 74.8236 45.5553 75.2316 45.3866 75.587C45.2801 75.8151 45.1529 76.0226 45.0076 76.2078C44.4434 76.9295 43.6193 77.2907 42.5322 77.2907C41.4591 77.2907 40.6391 76.9367 40.0708 76.2287C39.5024 75.5206 39.2107 74.5071 39.1981 73.1863V71.3733C39.1981 69.9987 39.4829 68.9545 40.0543 68.2411C40.5563 67.6147 41.2532 67.2634 42.1465 67.1886C42.2667 67.1789 42.3914 67.1733 42.5185 67.1733C43.0855 67.1733 43.5819 67.2715 44.0092 67.4692C44.3882 67.6449 44.7117 67.8979 44.98 68.2311C45.5484 68.9364 45.8387 69.9499 45.8526 71.2721V73.084Z" fill="#8CC3E1"/>
</g>
<g opacity="0.5">
<path d="M42.5196 67.1733C41.4467 67.1733 40.6249 67.5296 40.0547 68.2418C39.4842 68.9541 39.1992 69.9978 39.1992 71.3729V73.1852C39.2127 74.5062 39.5035 75.5206 40.0716 76.2285C40.6398 76.9361 41.4604 77.2902 42.5333 77.2902C43.6199 77.2902 44.4447 76.9296 45.0084 76.2083C45.5719 75.487 45.8537 74.4454 45.8537 73.084V71.2714C45.8402 69.9507 45.5494 68.9374 44.9813 68.2316C44.4132 67.5261 43.5925 67.1733 42.5196 67.1733ZM43.8991 73.4333C43.8901 74.2052 43.7796 74.7782 43.5679 75.1528C43.3558 75.5273 43.0112 75.7146 42.5333 75.7146C42.0508 75.7146 41.7004 75.5195 41.4817 75.1291C41.2631 74.7387 41.1538 74.1418 41.1538 73.3386V70.9423C41.1673 70.1888 41.2833 69.6348 41.5022 69.2806C41.7208 68.9265 42.0601 68.7492 42.5198 68.7492C42.9933 68.7492 43.3416 68.9353 43.5647 69.3076C43.7879 69.6801 43.8993 70.2746 43.8993 71.0913L43.8991 73.4333Z" fill="#8CC3E1"/>
</g>
<path d="M42.5265 82.3208C36.9633 82.3208 32.4375 77.795 32.4375 72.2318C32.4375 68.4602 34.5142 65.0326 37.8573 63.2867C38.7415 62.8242 39.6863 62.4967 40.6657 62.314C41.2756 62.1996 41.9018 62.1416 42.5265 62.1416C48.0898 62.1416 52.6156 66.6681 52.6156 72.2318C52.6156 76.5457 49.8752 80.3823 45.7966 81.7785C45.7088 81.8082 45.6276 81.8358 45.545 81.8604C44.5795 82.1653 43.5614 82.3208 42.5265 82.3208ZM42.5265 63.0702C41.9593 63.0702 41.3905 63.1228 40.8367 63.2268C39.9476 63.3925 39.0903 63.6898 38.2878 64.1097C35.2517 65.6952 33.3661 68.8074 33.3661 72.232C33.3661 77.2833 37.4755 81.3927 42.5268 81.3927C43.4669 81.3927 44.3908 81.2516 45.2732 80.9731C45.3519 80.9495 45.422 80.9258 45.4921 80.9019C49.1993 79.6329 51.6873 76.1491 51.6873 72.232C51.6873 67.1801 47.5778 63.0702 42.5265 63.0702Z" fill="#8CC3E1"/>
<path d="M42.5326 77.7547C41.3172 77.7547 40.3671 77.3388 39.7091 76.519C39.0758 75.7302 38.7476 74.6102 38.7344 73.1905V71.3733C38.7344 69.8966 39.0567 68.7453 39.6922 67.9511C40.2752 67.2235 41.0879 66.8116 42.1079 66.7261C42.9037 66.6619 43.6155 66.7756 44.2043 67.0483C44.6485 67.2541 45.0312 67.5542 45.3417 67.9406C45.9737 68.7246 46.3018 69.8442 46.3167 71.2675V73.084C46.3167 73.5865 46.2821 74.0309 46.2104 74.4426C46.1283 74.9414 45.992 75.3948 45.8059 75.7861C45.6868 76.0407 45.5409 76.28 45.3731 76.4942C44.7193 77.3304 43.7636 77.7547 42.5326 77.7547ZM42.5187 67.6378C42.4043 67.6378 42.2922 67.6426 42.184 67.6517C41.4184 67.7157 40.8398 68.0035 40.4167 68.5315C39.9166 69.1565 39.6627 70.1129 39.6627 71.3736V73.1864C39.6741 74.3883 39.9333 75.3155 40.433 75.9381C40.9127 76.536 41.5994 76.8266 42.5326 76.8266C43.4763 76.8266 44.1665 76.5307 44.642 75.9221C44.7669 75.7629 44.8759 75.5842 44.966 75.3907C45.1159 75.0748 45.2264 74.7046 45.2951 74.2876C45.3573 73.9297 45.3884 73.5261 45.3884 73.0838V71.2722C45.3756 70.0674 45.1168 69.1405 44.6186 68.5225C44.3948 68.2442 44.1317 68.0376 43.8142 67.8903C43.4514 67.7227 43.0158 67.6378 42.5187 67.6378Z" fill="#8CC3E1"/>
<path d="M42.5324 77.7544C41.3168 77.7544 40.3666 77.339 39.7089 76.5193C39.0765 75.7316 38.7488 74.6114 38.7344 73.1901V71.3731C38.7344 69.8962 39.0565 68.745 39.692 67.9518C40.352 67.1274 41.3031 66.7092 42.5192 66.7092C43.7346 66.7092 44.6845 67.1235 45.3422 67.9407C45.9749 68.7267 46.3028 69.8458 46.3172 71.2671V73.0843C46.3172 74.5457 45.9997 75.6929 45.3738 76.4942C44.72 77.3304 43.7641 77.7544 42.5324 77.7544ZM42.5189 67.6376C41.5857 67.6376 40.8983 67.9302 40.4163 68.532C39.9161 69.1565 39.6625 70.1122 39.6625 71.3729V73.1852C39.6748 74.3888 39.9338 75.3167 40.4325 75.9379C40.912 76.5356 41.5987 76.8259 42.5322 76.8259C43.4765 76.8259 44.1667 76.5304 44.6418 75.9222C45.1373 75.2879 45.3886 74.3329 45.3886 73.0838V71.2713C45.3763 70.0684 45.1173 69.1419 44.6188 68.5225C44.1393 67.9272 43.4526 67.6376 42.5189 67.6376ZM42.5324 76.1788C41.8809 76.1788 41.3773 75.8943 41.0761 75.3561C40.8157 74.8913 40.689 74.2312 40.689 73.3389V70.9426C40.704 70.0881 40.8405 69.4675 41.1063 69.037C41.4098 68.5452 41.8981 68.2853 42.5192 68.2853C43.1555 68.2853 43.6545 68.5564 43.962 69.0693C44.2319 69.5193 44.3631 70.1807 44.3631 71.0916V73.4394C44.3528 74.2983 44.2247 74.9335 43.9715 75.3816C43.6756 75.9031 43.1783 76.1788 42.5324 76.1788ZM42.5189 69.2132C42.1369 69.2132 41.9854 69.3793 41.896 69.5241C41.7767 69.7175 41.6317 70.1215 41.6171 70.9505V73.3384C41.6171 74.2342 41.7633 74.6833 41.8858 74.9022C42.0225 75.1463 42.2156 75.2503 42.5322 75.2503C42.9253 75.2503 43.0717 75.0853 43.1632 74.924C43.2811 74.7153 43.4238 74.2864 43.4343 73.4305V71.0912C43.4343 70.1846 43.288 69.7507 43.1655 69.5462C43.0274 69.316 42.8281 69.2132 42.5189 69.2132Z" fill="#8CC3E1"/>
<g opacity="0.75">
<path d="M91.4331 63.6418H58.9707V67.0653H91.4331V63.6418Z" fill="#8CC3E1"/>
</g>
<path d="M84.7076 71.9924H58.97C58.7138 71.9924 58.5059 71.7845 58.5059 71.5282C58.5059 71.272 58.7138 71.0641 58.97 71.0641H84.7076C84.9638 71.0641 85.1717 71.272 85.1717 71.5282C85.1717 71.7845 84.964 71.9924 84.7076 71.9924Z" fill="#8CC3E1"/>
<path d="M84.7076 75.5993H58.97C58.7138 75.5993 58.5059 75.3916 58.5059 75.1352C58.5059 74.879 58.7138 74.671 58.97 74.671H84.7076C84.9638 74.671 85.1717 74.879 85.1717 75.1352C85.1717 75.3914 84.964 75.5993 84.7076 75.5993Z" fill="#8CC3E1"/>
<path d="M84.7076 79.206H58.97C58.7138 79.206 58.5059 78.9981 58.5059 78.7419C58.5059 78.4857 58.7138 78.2777 58.97 78.2777H84.7076C84.9638 78.2777 85.1717 78.4857 85.1717 78.7419C85.1717 78.9981 84.964 79.206 84.7076 79.206Z" fill="#8CC3E1"/>
<g opacity="0.25">
<path d="M97.3433 123.775H31.6032C29.2961 123.775 27.4258 121.904 27.4258 119.597V99.3412C27.4258 97.034 29.2961 95.1637 31.6032 95.1637H97.3433C99.6504 95.1637 101.521 97.034 101.521 99.3412V119.597C101.521 121.904 99.6504 123.775 97.3433 123.775Z" fill="#8CC3E1"/>
</g>
<g opacity="0.5">
<path d="M101.52 119.837V123.081C101.52 125.388 99.6499 127.259 97.343 127.259H49.7988V124.149H97.2107C99.5919 124.149 101.52 122.218 101.52 119.837Z" fill="#8CC3E1"/>
</g>
<path d="M97.3421 124.238H31.6026C29.0432 124.238 26.9609 122.156 26.9609 119.596V99.3402C26.9609 96.7808 29.0432 94.6986 31.6026 94.6986H97.3421C99.9015 94.6986 101.984 96.7808 101.984 99.3402V119.596C101.984 122.156 99.9015 124.238 97.3421 124.238ZM31.6026 95.6269C29.5551 95.6269 27.8893 97.2928 27.8893 99.3402V119.596C27.8893 121.644 29.5551 123.31 31.6026 123.31H97.3421C99.3896 123.31 101.055 121.644 101.055 119.596V99.3402C101.055 97.2928 99.3896 95.6269 97.3421 95.6269H31.6026Z" fill="#8CC3E1"/>
<g opacity="0.25">
<path d="M42.5253 99.8439C41.9181 99.8439 41.3249 99.9005 40.7496 100.008C39.8009 100.185 38.9006 100.502 38.0709 100.936C34.9968 102.542 32.9004 105.761 32.9004 109.47C32.9004 114.786 37.2094 119.095 42.5253 119.095C43.5292 119.095 44.5 118.941 45.4112 118.653C45.4899 118.63 45.5674 118.604 45.6449 118.577C49.4299 117.282 52.1499 113.693 52.1499 109.47C52.1501 104.154 47.8411 99.8439 42.5253 99.8439ZM45.8526 110.322C45.8526 110.785 45.8208 111.211 45.7531 111.601C45.6769 112.062 45.5553 112.47 45.3866 112.825C45.2801 113.053 45.1529 113.26 45.0076 113.446C44.4434 114.167 43.6193 114.529 42.5322 114.529C41.4591 114.529 40.6391 114.175 40.0708 113.467C39.5024 112.758 39.2107 111.745 39.1981 110.424V108.611C39.1981 107.237 39.4829 106.192 40.0543 105.479C40.5563 104.853 41.2532 104.501 42.1465 104.427C42.2667 104.417 42.3914 104.411 42.5185 104.411C43.0855 104.411 43.5819 104.51 44.0092 104.707C44.3882 104.883 44.7117 105.136 44.98 105.469C45.5484 106.175 45.8387 107.188 45.8526 108.51V110.322Z" fill="#8CC3E1"/>
</g>
<g opacity="0.5">
<path d="M42.5196 104.411C41.4467 104.411 40.6249 104.768 40.0547 105.48C39.4842 106.192 39.1992 107.236 39.1992 108.611V110.423C39.2127 111.744 39.5035 112.759 40.0716 113.466C40.6398 114.174 41.4604 114.528 42.5333 114.528C43.6199 114.528 44.4447 114.167 45.0084 113.446C45.5719 112.725 45.8537 111.683 45.8537 110.322V108.509C45.8402 107.189 45.5494 106.175 44.9813 105.47C44.4132 104.764 43.5925 104.411 42.5196 104.411ZM43.8991 110.671C43.8901 111.443 43.7796 112.016 43.5679 112.391C43.3558 112.765 43.0112 112.953 42.5333 112.953C42.0508 112.953 41.7004 112.758 41.4817 112.367C41.2631 111.977 41.1538 111.38 41.1538 110.577V108.18C41.1673 107.427 41.2833 106.873 41.5022 106.519C41.7208 106.165 42.0601 105.987 42.5198 105.987C42.9933 105.987 43.3416 106.173 43.5647 106.546C43.7879 106.918 43.8993 107.513 43.8993 108.329L43.8991 110.671Z" fill="#8CC3E1"/>
</g>
<path d="M42.5265 119.559C36.9633 119.559 32.4375 115.034 32.4375 109.47C32.4375 105.699 34.5142 102.271 37.8573 100.525C38.7415 100.062 39.6863 99.7352 40.6657 99.5523C41.2756 99.4379 41.9018 99.3799 42.5265 99.3799C48.0898 99.3799 52.6156 103.906 52.6156 109.47C52.6156 113.784 49.8752 117.621 45.7966 119.017L45.7745 119.024C45.6986 119.05 45.6227 119.075 45.5454 119.098C44.5793 119.404 43.5612 119.559 42.5265 119.559ZM42.5265 100.308C41.9593 100.308 41.3905 100.361 40.8367 100.465C39.9476 100.631 39.0903 100.928 38.2878 101.348C35.2517 102.934 33.3661 106.046 33.3661 109.471C33.3661 114.522 37.4755 118.631 42.5268 118.631C43.4667 118.631 44.3906 118.49 45.2732 118.211C45.3468 118.189 45.4129 118.167 45.4786 118.145C49.1993 116.871 51.6875 113.387 51.6875 109.471C51.6873 104.419 47.5778 100.308 42.5265 100.308Z" fill="#8CC3E1"/>
<path d="M42.5326 114.993C41.3172 114.993 40.3671 114.577 39.7091 113.757C39.0758 112.968 38.7476 111.848 38.7344 110.429V108.611C38.7344 107.135 39.0567 105.983 39.6922 105.189C40.2754 104.462 41.0879 104.05 42.1079 103.964C42.2495 103.953 42.3871 103.948 42.5189 103.948C43.1518 103.948 43.719 104.061 44.2048 104.287C44.6487 104.492 45.0314 104.793 45.342 105.179C45.9739 105.963 46.3021 107.082 46.3169 108.506V110.322C46.3169 110.825 46.2821 111.269 46.2106 111.681C46.1285 112.179 45.9923 112.633 45.8061 113.024C45.6873 113.279 45.5411 113.518 45.3733 113.732C44.7195 114.568 43.7636 114.993 42.5326 114.993ZM42.5187 104.876C42.4038 104.876 42.2915 104.881 42.1831 104.89C41.4184 104.954 40.8398 105.242 40.4167 105.77C39.9166 106.395 39.6627 107.351 39.6627 108.612V110.424C39.6741 111.626 39.9333 112.554 40.433 113.176C40.9127 113.774 41.5994 114.065 42.5326 114.065C43.4765 114.065 44.1665 113.769 44.642 113.16C44.7669 113.001 44.8759 112.822 44.966 112.629C45.1159 112.313 45.2264 111.943 45.2951 111.526C45.3573 111.168 45.3884 110.764 45.3884 110.322V108.51C45.3756 107.306 45.1166 106.379 44.6186 105.761C44.3948 105.482 44.1319 105.276 43.8142 105.128C43.4517 104.961 43.016 104.876 42.5187 104.876Z" fill="#8CC3E1"/>
<path d="M42.5324 114.992C41.3165 114.992 40.3666 114.577 39.7089 113.757C39.0765 112.97 38.7488 111.85 38.7344 110.428V108.611C38.7344 107.134 39.0565 105.983 39.6917 105.19C40.352 104.365 41.3031 103.947 42.5192 103.947C43.7346 103.947 44.6845 104.362 45.3422 105.179C45.9749 105.965 46.3028 107.084 46.3172 108.505V110.322C46.3172 111.783 45.9997 112.931 45.3738 113.732C44.72 114.568 43.7641 114.992 42.5324 114.992ZM42.5189 104.876C41.586 104.876 40.8983 105.168 40.4163 105.77C39.9161 106.395 39.6625 107.351 39.6625 108.611V110.424C39.6748 111.628 39.9338 112.555 40.4325 113.176C40.912 113.774 41.5987 114.064 42.5322 114.064C43.4765 114.064 44.1667 113.769 44.6418 113.161C45.1373 112.527 45.3886 111.572 45.3886 110.323V108.51C45.3763 107.307 45.1173 106.381 44.6188 105.761C44.1393 105.165 43.4526 104.876 42.5189 104.876ZM42.5324 113.417C41.8809 113.417 41.3773 113.132 41.0761 112.594C40.8157 112.129 40.689 111.469 40.689 110.577V108.18C40.704 107.326 40.8405 106.705 41.1063 106.275C41.4098 105.783 41.8981 105.523 42.5192 105.523C43.1555 105.523 43.6545 105.794 43.962 106.307C44.2319 106.757 44.3631 107.419 44.3631 108.329V110.677C44.3528 111.536 44.225 112.171 43.9715 112.619C43.6756 113.141 43.1783 113.417 42.5324 113.417ZM42.5189 106.451C42.1369 106.451 41.9854 106.618 41.896 106.762C41.7767 106.956 41.6317 107.36 41.6171 108.189V110.577C41.6171 111.473 41.7633 111.922 41.8858 112.14C42.0225 112.385 42.2158 112.489 42.5322 112.489C42.9253 112.489 43.0717 112.324 43.1632 112.162C43.2811 111.954 43.4238 111.525 43.4343 110.669V108.33C43.4343 107.423 43.288 106.989 43.1655 106.785C43.0274 106.554 42.8281 106.451 42.5189 106.451Z" fill="#8CC3E1"/>
<g opacity="0.75">
<path d="M91.4331 100.88H58.9707V104.303H91.4331V100.88Z" fill="#8CC3E1"/>
</g>
<path d="M84.7076 109.231H58.97C58.7138 109.231 58.5059 109.023 58.5059 108.767C58.5059 108.51 58.7138 108.302 58.97 108.302H84.7076C84.9638 108.302 85.1717 108.51 85.1717 108.767C85.1717 109.023 84.964 109.231 84.7076 109.231Z" fill="#8CC3E1"/>
<path d="M84.7076 112.838H58.97C58.7138 112.838 58.5059 112.63 58.5059 112.373C58.5059 112.117 58.7138 111.909 58.97 111.909H84.7076C84.9638 111.909 85.1717 112.117 85.1717 112.373C85.1717 112.63 84.964 112.838 84.7076 112.838Z" fill="#8CC3E1"/>
<path d="M84.7076 116.444H58.97C58.7138 116.444 58.5059 116.236 58.5059 115.98C58.5059 115.724 58.7138 115.516 58.97 115.516H84.7076C84.9638 115.516 85.1717 115.724 85.1717 115.98C85.1717 116.236 84.964 116.444 84.7076 116.444Z" fill="#8CC3E1"/>
<g opacity="0.25">
<path d="M19.9989 120.001H27.4459C27.4332 119.868 27.4255 119.734 27.4255 119.597V99.3408C27.4255 97.0339 29.2961 95.1633 31.603 95.1633H42.7243V90.6099H38.215V86.9105H97.21C99.5912 86.9105 101.52 84.9796 101.52 82.5984V82.3687C101.515 84.6709 99.6469 86.5368 97.3423 86.5368H31.603C29.2961 86.5368 27.4255 84.6663 27.4255 82.3594V80.0007H19.9989C14.4758 80.0007 9.47727 82.2389 5.85773 85.8585C2.23819 89.478 0 94.4766 0 99.9996C0 111.046 8.95277 120.001 19.9989 120.001Z" fill="#8CC3E1"/>
</g>
<g opacity="0.25">
<path d="M19.9989 40.0004H42.7243V17.1236C42.7243 9.17951 49.1669 2.73693 57.111 2.73693H161.749C169.694 2.73693 176.136 9.17951 176.136 17.1236V40.0036C176.179 40.0034 176.221 40.0004 176.264 40.0004H196.705C202.228 40.0004 207.227 37.7622 210.847 34.1426C214.466 30.5254 216.704 25.5245 216.704 20.0015C216.704 8.95532 207.749 0 196.705 0H19.9989C14.4758 0 9.47727 2.23819 5.85773 5.85773C2.23819 9.47727 0 14.4782 0 20.0015C0 31.0476 8.95277 40.0004 19.9989 40.0004Z" fill="#8CC3E1"/>
</g>
<g opacity="0.25">
<path d="M196.706 159.999H176.136V182.876C176.136 190.82 169.694 197.263 161.749 197.263H57.111C49.1669 197.263 42.7243 190.82 42.7243 182.876V159.807C41.8264 159.93 40.9111 159.999 39.979 159.999H19.9989C14.4758 159.999 9.47727 162.238 5.85773 165.857C2.23819 169.477 0 174.478 0 180.001C0 191.045 8.95278 200 19.9991 200H196.706C202.229 200 207.227 197.762 210.847 194.142C214.466 190.523 216.704 185.524 216.704 180.001C216.704 168.955 207.749 159.999 196.706 159.999Z" fill="#8CC3E1"/>
</g>
<path d="M189.15 162.865C187.228 162.865 185.664 161.302 185.664 159.379C185.664 157.457 187.228 155.893 189.15 155.893C191.072 155.893 192.636 157.457 192.636 159.379C192.636 161.302 191.072 162.865 189.15 162.865ZM189.15 156.822C187.74 156.822 186.592 157.969 186.592 159.379C186.592 160.79 187.74 161.937 189.15 161.937C190.561 161.937 191.708 160.79 191.708 159.379C191.708 157.969 190.561 156.822 189.15 156.822Z" fill="#8CC3E1"/>
<path d="M26.7905 150.336C23.7593 150.336 21.293 147.87 21.293 144.838C21.293 141.807 23.7591 139.341 26.7905 139.341C29.822 139.341 32.288 141.807 32.288 144.838C32.2878 147.87 29.8217 150.336 26.7905 150.336ZM26.7905 140.269C24.2713 140.269 22.2213 142.319 22.2213 144.838C22.2213 147.358 24.271 149.408 26.7905 149.408C29.31 149.408 31.3597 147.358 31.3597 144.838C31.3595 142.319 29.3097 140.269 26.7905 140.269Z" fill="#8CC3E1"/>
<path d="M24.038 50.3312C21.5442 50.3312 19.5156 48.3023 19.5156 45.8088C19.5156 43.3154 21.5442 41.2865 24.038 41.2865C26.5314 41.2865 28.5601 43.3151 28.5601 45.8088C28.5601 48.3025 26.5314 50.3312 24.038 50.3312ZM24.038 42.2148C22.0562 42.2148 20.444 43.8271 20.444 45.8088C20.444 47.7906 22.0562 49.4028 24.038 49.4028C26.0197 49.4028 27.6317 47.7906 27.6317 45.8088C27.632 43.8271 26.0197 42.2148 24.038 42.2148Z" fill="#8CC3E1"/>
</svg>
