<svg width="184" height="183" viewBox="0 0 184 183" fill="none" xmlns="http://www.w3.org/2000/svg">
<path opacity="0.5" d="M142.308 46.4147H61.6936C62.119 47.6783 62.4318 48.9963 62.6236 50.3537C62.7716 51.3859 62.8488 52.4411 62.8488 53.5149C62.8488 54.5909 62.7716 55.6503 62.6236 56.6887C62.0584 60.6653 60.4466 64.3063 58.0714 67.3215C57.3604 68.2287 56.5762 69.0793 55.7338 69.8677C54.808 70.7311 53.807 71.5151 52.7436 72.2115C50.919 73.4127 48.913 74.3489 46.7714 74.9725C45.247 75.4145 43.6602 75.7003 42.0254 75.8107C41.8378 75.8233 41.6522 75.8357 41.4644 75.8441C41.1474 75.8567 40.8222 75.8649 40.501 75.8649C38.9704 75.8649 37.4858 75.7147 36.0426 75.4187C33.1774 74.8389 30.5124 73.7109 28.1582 72.1489V120.1C28.1582 128.039 34.5954 134.476 42.5342 134.476H46.0478V148.291C46.0478 151.5 49.8744 153.166 52.2224 150.979L69.939 134.476H142.309C150.247 134.476 156.682 128.039 156.682 120.1V60.7905C156.682 52.8499 150.247 46.4147 142.308 46.4147ZM66.5064 107.246C66.5064 108.208 65.7264 108.985 64.7672 108.985H55.8256C54.8642 108.985 54.0864 108.208 54.0864 107.246V100.932C54.0864 99.9709 54.8642 99.1931 55.8256 99.1931H64.7672C65.7264 99.1931 66.5064 99.9709 66.5064 100.932V107.246ZM87.9222 107.246C87.9222 108.208 87.1422 108.985 86.183 108.985H77.2414C76.2802 108.985 75.5022 108.208 75.5022 107.246V100.932C75.5022 99.9709 76.28 99.1931 77.2414 99.1931H86.183C87.1422 99.1931 87.9222 99.9709 87.9222 100.932V107.246ZM109.338 107.246C109.338 108.208 108.56 108.985 107.599 108.985H98.6574C97.6982 108.985 96.9182 108.208 96.9182 107.246V100.932C96.9182 99.9709 97.6982 99.1931 98.6574 99.1931H107.599C108.56 99.1931 109.338 99.9709 109.338 100.932V107.246ZM130.754 107.246C130.754 108.208 129.976 108.985 129.015 108.985H120.073C119.114 108.985 118.334 108.208 118.334 107.246V100.932C118.334 99.9709 119.114 99.1931 120.073 99.1931H129.015C129.976 99.1931 130.754 99.9709 130.754 100.932V107.246Z" fill="#8CC3E1"/>
<path d="M49.7386 152.373C49.1882 152.373 48.6306 152.259 48.0952 152.026C46.5852 151.369 45.6472 149.938 45.6472 148.291V134.876H42.5336C34.3862 134.876 27.7578 128.247 27.7578 120.1V71.4037L28.3788 71.8159C30.7452 73.3857 33.3502 74.4661 36.1214 75.0269C37.539 75.3179 39.012 75.4651 40.5004 75.4651C40.7884 75.4651 41.0984 75.4583 41.448 75.4447C41.6244 75.4367 41.8012 75.4249 41.9798 75.4131C43.575 75.3051 45.1434 75.0283 46.6594 74.5885C48.7364 73.9839 50.7094 73.0717 52.5232 71.8777C53.5676 71.1937 54.5556 70.4193 55.4606 69.5753C56.2958 68.7939 57.0684 67.9525 57.7562 67.0751C60.1408 64.0479 61.6866 60.4373 62.2272 56.6327C62.374 55.6027 62.4484 54.5537 62.4484 53.5153C62.4484 52.4789 62.374 51.4343 62.2272 50.4107C62.0404 49.0891 61.7334 47.7877 61.314 46.5425L61.1364 46.0149H142.308C150.454 46.0149 157.082 52.6433 157.082 60.7907V120.1C157.082 128.247 150.454 134.876 142.308 134.876H70.0958L52.4944 151.272C51.7174 151.996 50.7398 152.373 49.7386 152.373ZM28.5578 72.8803V120.1C28.5578 127.806 34.8274 134.076 42.5336 134.076H46.4472V148.291C46.4472 149.614 47.2008 150.764 48.4142 151.292C49.6272 151.82 50.9814 151.588 51.949 150.686L69.7808 134.076H142.308C150.013 134.076 156.282 127.806 156.282 120.1V60.7905C156.282 53.0841 150.013 46.8147 142.308 46.8147H62.2424C62.591 47.9445 62.852 49.1137 63.0192 50.2977C63.1712 51.3579 63.2484 52.4407 63.2484 53.5149C63.2484 54.5911 63.1712 55.6779 63.0192 56.7451C62.4588 60.6891 60.8564 64.4319 58.3854 67.5691C57.6728 68.4779 56.8724 69.3499 56.0068 70.1597C55.0682 71.0349 54.0442 71.8377 52.9624 72.5461C51.0828 73.7835 49.0368 74.7291 46.8828 75.3565C45.3114 75.8123 43.6862 76.0993 42.0518 76.2099C41.8486 76.2233 41.6662 76.2355 41.4818 76.2437C41.1194 76.2579 40.7992 76.2649 40.5006 76.2649C38.9582 76.2649 37.4312 76.1121 35.9618 75.8105C33.3302 75.2781 30.8428 74.2935 28.5578 72.8803Z" fill="#8CC3E1"/>
<path d="M64.7663 109.386H55.8247C54.6453 109.386 53.6855 108.426 53.6855 107.246V100.932C53.6855 99.7525 54.6451 98.7931 55.8247 98.7931H64.7663C65.9457 98.7931 66.9053 99.7527 66.9053 100.932V107.246C66.9053 108.426 65.9457 109.386 64.7663 109.386ZM55.8245 99.5931C55.0861 99.5931 54.4853 100.194 54.4853 100.932V107.246C54.4853 107.985 55.0861 108.585 55.8245 108.585H64.7662C65.5045 108.585 66.1051 107.985 66.1051 107.246V100.932C66.1051 100.194 65.5045 99.5931 64.7662 99.5931H55.8245Z" fill="#8CC3E1"/>
<path d="M86.1824 109.386H77.2408C76.0614 109.386 75.1016 108.426 75.1016 107.246V100.932C75.1016 99.7525 76.0612 98.7931 77.2408 98.7931H86.1824C87.3618 98.7931 88.3214 99.7527 88.3214 100.932V107.246C88.3214 108.426 87.3618 109.386 86.1824 109.386ZM77.2406 99.5931C76.5022 99.5931 75.9014 100.194 75.9014 100.932V107.246C75.9014 107.985 76.5022 108.585 77.2406 108.585H86.1822C86.9206 108.585 87.5212 107.985 87.5212 107.246V100.932C87.5212 100.194 86.9206 99.5931 86.1822 99.5931H77.2406Z" fill="#8CC3E1"/>
<path d="M107.598 109.386H98.6568C97.4774 109.386 96.5176 108.426 96.5176 107.246V100.932C96.5176 99.7525 97.4772 98.7931 98.6568 98.7931H107.598C108.778 98.7931 109.737 99.7527 109.737 100.932V107.246C109.737 108.426 108.778 109.386 107.598 109.386ZM98.6568 99.5931C97.9184 99.5931 97.3176 100.194 97.3176 100.932V107.246C97.3176 107.985 97.9184 108.585 98.6568 108.585H107.598C108.337 108.585 108.937 107.985 108.937 107.246V100.932C108.937 100.194 108.337 99.5931 107.598 99.5931H98.6568Z" fill="#8CC3E1"/>
<path d="M129.014 109.386H120.073C118.893 109.386 117.934 108.426 117.934 107.246V100.932C117.934 99.7525 118.893 98.7931 120.073 98.7931H129.014C130.194 98.7931 131.153 99.7527 131.153 100.932V107.246C131.153 108.426 130.194 109.386 129.014 109.386ZM120.073 99.5931C119.334 99.5931 118.734 100.194 118.734 100.932V107.246C118.734 107.985 119.334 108.585 120.073 108.585H129.014C129.753 108.585 130.353 107.985 130.353 107.246V100.932C130.353 100.194 129.753 99.5931 129.014 99.5931H120.073Z" fill="#8CC3E1"/>
<path opacity="0.25" d="M43.4155 50.5053V56.6671C43.4043 58.4591 43.1657 59.7739 42.6973 60.6115C42.2291 61.4513 41.5041 61.8699 40.5225 61.8699H40.4977C39.4959 61.8631 38.7619 61.4331 38.2981 60.5777C37.8299 59.7155 37.5957 58.3557 37.5957 56.4961V50.1293C37.6295 48.4633 37.8727 47.2183 38.3229 46.3967C38.7755 45.5749 39.4959 45.1653 40.4887 45.1653H40.4977C41.5085 45.1675 42.2493 45.6087 42.7153 46.4913C43.1815 47.3759 43.4155 48.7133 43.4155 50.5053Z" fill="#8CC3E1"/>
<g opacity="0.25">
<path d="M62.623 50.3537C62.4312 48.9961 62.1184 47.6783 61.693 46.4147C61.6514 46.2855 61.6054 46.1561 61.5596 46.0269C59.8976 41.3433 56.7092 37.3855 52.6012 34.7289C49.369 32.6395 45.5572 31.3653 41.4638 31.1943C41.1468 31.1797 40.8216 31.1713 40.5004 31.1713C38.3296 31.1713 36.2298 31.4821 34.2466 32.0575C34.1778 32.0763 34.111 32.0991 34.0444 32.1179C30.5056 33.1835 27.3382 35.0977 24.7816 37.6313C24.2832 38.1235 23.8056 38.6405 23.3574 39.1785C20.1064 43.0593 18.1484 48.0555 18.1484 53.5147C18.1484 58.9301 20.0752 63.8995 23.2802 67.7655C24.6816 69.4545 26.3248 70.9331 28.1576 72.1487C30.5118 73.7105 33.1768 74.8387 36.042 75.4185C37.485 75.7145 38.9698 75.8647 40.5004 75.8647C40.8216 75.8647 41.1468 75.8563 41.4638 75.8439C41.6514 75.8355 41.837 75.8231 42.0248 75.8105C43.6596 75.6999 45.2466 75.4143 46.7708 74.9723C48.9124 74.3489 50.9184 73.4125 52.743 72.2113C53.8064 71.5149 54.8074 70.7307 55.7332 69.8675C56.5756 69.0793 57.3598 68.2285 58.0708 67.3213C60.446 64.3059 62.0578 60.6651 62.623 56.6885C62.771 55.6501 62.8482 54.5907 62.8482 53.5147C62.8482 52.4411 62.7712 51.3859 62.623 50.3537ZM49.1856 55.7943C49.1856 59.1579 48.4286 61.7561 46.9188 63.5829C45.5822 65.1927 43.7618 66.0977 41.4638 66.2833C41.1594 66.3105 40.8444 66.3229 40.5254 66.3229H40.3378C37.654 66.2771 35.573 65.3575 34.0862 63.5661C32.5702 61.7289 31.8112 59.1391 31.8112 55.7943V51.2151C31.8132 49.4155 32.0322 47.8411 32.468 46.4857C32.516 46.3293 32.568 46.1771 32.6222 46.0269C32.9746 45.0801 33.4396 44.2503 34.0172 43.5329C34.036 43.5079 34.059 43.4807 34.0776 43.4557C34.6282 42.7863 35.2642 42.2421 35.9816 41.8187C37.2306 41.0827 38.7342 40.7135 40.49 40.7135H40.5004C40.8298 40.7135 41.151 40.7281 41.4638 40.7531C43.7598 40.9491 45.576 41.8561 46.9064 43.4701C47.5132 44.1999 47.995 45.0549 48.3556 46.0267C48.4036 46.1539 48.4494 46.2831 48.4932 46.4145C48.9562 47.7991 49.1856 49.4131 49.1856 51.2545V55.7943Z" fill="#8CC3E1"/>
</g>
<path d="M40.5219 62.2699H40.4973C39.3393 62.2621 38.4819 61.7569 37.9461 60.7683C37.4411 59.8383 37.1953 58.4407 37.1953 56.4961V50.1295C37.2307 48.3745 37.4847 47.0933 37.9717 46.2045C38.4977 45.2493 39.3443 44.7653 40.4881 44.7653C41.6657 44.7679 42.5303 45.2857 43.0683 46.3045C43.5707 47.2583 43.8147 48.6323 43.8147 50.5055V56.6673C43.8029 58.5491 43.5513 59.9023 43.0457 60.8069C42.5045 61.7775 41.6551 62.2699 40.5219 62.2699ZM40.4963 45.5651C39.6463 45.5651 39.0523 45.9001 38.6727 46.5895C38.2555 47.3509 38.0273 48.5449 37.9951 50.1373V56.4959C37.9951 58.2787 38.2151 59.5879 38.6489 60.3867C39.0409 61.1099 39.6463 61.4641 40.4997 61.4699H40.5217C41.3549 61.4699 41.9519 61.1253 42.3473 60.4165C42.7795 59.6435 43.0041 58.3811 43.0147 56.6645V50.5053C43.0147 48.7895 42.7945 47.5017 42.3605 46.6775C41.9665 45.9311 41.3565 45.5671 40.4963 45.5651Z" fill="#8CC3E1"/>
<path d="M40.5002 76.265C38.9578 76.265 37.4308 76.1122 35.9614 75.8106C33.0894 75.2294 30.389 74.1096 27.9362 72.4824C26.0728 71.2466 24.4026 69.7456 22.972 68.0212C19.6032 63.9576 17.748 58.806 17.748 53.515C17.748 48.1862 19.6312 43.0036 23.0504 38.9218C23.4976 38.385 23.9858 37.855 24.5002 37.3468C27.1292 34.7414 30.3898 32.8008 33.9288 31.735C33.9634 31.7252 33.9908 31.7166 34.0186 31.708C34.059 31.6954 34.0998 31.6828 34.1414 31.6716C36.1974 31.0748 38.3388 30.7712 40.5002 30.7712C40.816 30.7712 41.1464 30.7792 41.482 30.7946C45.517 30.9632 49.4376 32.2074 52.8182 34.3928C57.034 37.1192 60.2723 41.2034 61.9362 45.893C61.9834 46.026 62.0306 46.159 62.0734 46.292C62.5068 47.579 62.8252 48.9284 63.0188 50.2978C63.1708 51.3586 63.248 52.441 63.248 53.515C63.248 54.5912 63.1708 55.678 63.0188 56.7452C62.4584 60.6892 60.856 64.432 58.385 67.5692C57.6724 68.478 56.872 69.35 56.0064 70.1598C55.0678 71.035 54.0438 71.8378 52.962 72.5462C51.0824 73.7836 49.0364 74.7292 46.8824 75.3566C45.311 75.8124 43.6858 76.0994 42.0514 76.21C41.8482 76.2234 41.6658 76.2356 41.4814 76.2438C41.119 76.258 40.7988 76.265 40.5002 76.265ZM40.5002 31.5712C38.4142 31.5712 36.3478 31.864 34.358 32.4416C34.3192 32.4522 34.2872 32.4622 34.2556 32.472C34.221 32.4828 34.1868 32.4932 34.1524 32.503C30.7454 33.529 27.5998 35.4014 25.063 37.9156C24.5662 38.4062 24.096 38.9172 23.6644 39.4348C20.3648 43.3736 18.548 48.3738 18.548 53.515C18.548 58.62 20.3378 63.5904 23.5878 67.5106C24.9684 69.1746 26.5802 70.6232 28.3786 71.8158C30.745 73.3856 33.35 74.466 36.1212 75.0268C37.5388 75.3178 39.0118 75.465 40.5002 75.465C40.7882 75.465 41.0982 75.4582 41.4478 75.4446C41.6242 75.4366 41.801 75.4248 41.9796 75.413C43.5748 75.305 45.1432 75.0282 46.6592 74.5884C48.7362 73.9838 50.7092 73.0716 52.523 71.8776C53.5674 71.1936 54.5554 70.4192 55.4604 69.5752C56.2956 68.7938 57.0682 67.9524 57.7561 67.075C60.1406 64.0478 61.6864 60.4372 62.227 56.6326C62.3738 55.6026 62.4482 54.5536 62.4482 53.5152C62.4482 52.4788 62.3738 51.4342 62.227 50.4106L62.2268 50.4098C62.0402 49.089 61.7331 47.7878 61.3139 46.5424C61.2719 46.412 61.227 46.2864 61.1824 46.1606C59.577 41.6362 56.4522 37.6956 52.3838 35.0646C49.123 32.9568 45.3412 31.7566 41.4468 31.5938C41.1216 31.5788 40.8038 31.5712 40.5002 31.5712Z" fill="#8CC3E1"/>
<path d="M40.5244 66.7228H40.3368C37.5404 66.675 35.3356 65.6988 33.7774 63.8214C32.2064 61.9176 31.4102 59.2172 31.4102 55.7942V51.215C31.4122 49.384 31.6398 47.7518 32.0862 46.3632C32.1344 46.2058 32.1886 46.0474 32.245 45.8912C32.6112 44.9074 33.1018 44.0308 33.7048 43.2822L33.7568 43.216C34.342 42.5038 35.0182 41.9226 35.7774 41.4746C37.0846 40.7042 38.6696 40.3138 40.4892 40.3138C40.8248 40.3138 41.1504 40.3272 41.4948 40.3548C43.8944 40.5596 45.8178 41.5222 47.2142 43.2162C47.8416 43.9708 48.352 44.8702 48.7298 45.8878C48.779 46.0178 48.8264 46.152 48.8718 46.2882C49.3448 47.7032 49.5846 49.3742 49.5846 51.2548V55.7944C49.5846 59.2382 48.7912 61.9444 47.2262 63.8376C45.8196 65.5318 43.8916 66.4884 41.495 66.682C41.1914 66.709 40.8638 66.7228 40.5244 66.7228ZM40.4994 41.1134C38.8144 41.1134 37.3658 41.4666 36.1836 42.1632C35.5052 42.5636 34.9002 43.084 34.3856 43.7096L34.3364 43.7726C33.779 44.465 33.331 45.2666 32.9962 46.166C32.9456 46.3064 32.8954 46.4524 32.8494 46.6026C32.4266 47.9174 32.212 49.4676 32.2102 51.2152V55.794C32.2102 59.0264 32.9448 61.5554 34.3936 63.3112C35.8152 65.024 37.7618 65.8784 40.3436 65.9228H40.5244C40.8402 65.9228 41.144 65.91 41.4272 65.8848C43.6042 65.709 45.347 64.8486 46.6102 63.3272C48.0528 61.5816 48.7846 59.047 48.7846 55.7942V51.2546C48.7846 49.4604 48.5586 47.8746 48.113 46.5416C48.0708 46.415 48.0266 46.2906 47.9804 46.1682C47.6334 45.2334 47.1684 44.4124 46.5978 43.726C45.3424 42.203 43.6036 41.3374 41.4288 41.1516C41.1078 41.126 40.803 41.1134 40.4994 41.1134Z" fill="#8CC3E1"/>
<g opacity="0.75">
<path d="M66.5059 100.932V107.246C66.5059 108.208 65.7259 108.985 64.7667 108.985H55.8251C54.8637 108.985 54.0859 108.208 54.0859 107.246V100.932C54.0859 99.9708 54.8637 99.193 55.8251 99.193H64.7667C65.7261 99.193 66.5059 99.9708 66.5059 100.932Z" fill="#8CC3E1"/>
<path d="M87.922 100.932V107.246C87.922 108.208 87.142 108.985 86.1828 108.985H77.2411C76.2799 108.985 75.502 108.208 75.502 107.246V100.932C75.502 99.9708 76.2797 99.193 77.2411 99.193H86.1828C87.1422 99.193 87.922 99.9708 87.922 100.932Z" fill="#8CC3E1"/>
<path d="M109.338 100.932V107.246C109.338 108.208 108.56 108.985 107.599 108.985H98.6572C97.698 108.985 96.918 108.208 96.918 107.246V100.932C96.918 99.9708 97.698 99.193 98.6572 99.193H107.599C108.56 99.193 109.338 99.9708 109.338 100.932Z" fill="#8CC3E1"/>
<path d="M130.754 100.932V107.246C130.754 108.208 129.976 108.985 129.015 108.985H120.073C119.114 108.985 118.334 108.208 118.334 107.246V100.932C118.334 99.9708 119.114 99.193 120.073 99.193H129.015C129.976 99.193 130.754 99.9708 130.754 100.932Z" fill="#8CC3E1"/>
<path d="M66.5059 100.932V107.246C66.5059 108.208 65.7259 108.985 64.7667 108.985H55.8251C54.8637 108.985 54.0859 108.208 54.0859 107.246V100.932C54.0859 99.9708 54.8637 99.193 55.8251 99.193H64.7667C65.7261 99.193 66.5059 99.9708 66.5059 100.932Z" fill="#8CC3E1"/>
<path d="M87.922 100.932V107.246C87.922 108.208 87.142 108.985 86.1828 108.985H77.2411C76.2799 108.985 75.502 108.208 75.502 107.246V100.932C75.502 99.9708 76.2797 99.193 77.2411 99.193H86.1828C87.1422 99.193 87.922 99.9708 87.922 100.932Z" fill="#8CC3E1"/>
<path d="M109.338 100.932V107.246C109.338 108.208 108.56 108.985 107.599 108.985H98.6572C97.698 108.985 96.918 108.208 96.918 107.246V100.932C96.918 99.9708 97.698 99.193 98.6572 99.193H107.599C108.56 99.193 109.338 99.9708 109.338 100.932Z" fill="#8CC3E1"/>
<path d="M130.754 100.932V107.246C130.754 108.208 129.976 108.985 129.015 108.985H120.073C119.114 108.985 118.334 108.208 118.334 107.246V100.932C118.334 99.9708 119.114 99.193 120.073 99.193H129.015C129.976 99.193 130.754 99.9708 130.754 100.932Z" fill="#8CC3E1"/>
</g>
<path d="M135.816 149.263C135.598 149.263 135.419 149.087 135.416 148.868C135.413 148.647 135.59 148.466 135.811 148.463C137.412 148.442 138.999 148.304 140.528 148.052C140.745 148.016 140.951 148.163 140.987 148.381C141.023 148.599 140.876 148.805 140.658 148.841C139.089 149.099 137.462 149.241 135.821 149.263C135.82 149.263 135.818 149.263 135.816 149.263ZM131.029 148.998C131.013 148.998 130.997 148.997 130.98 148.995C129.424 148.807 127.82 148.516 126.214 148.132C125.999 148.08 125.867 147.864 125.918 147.649C125.969 147.434 126.185 147.303 126.4 147.354C127.977 147.732 129.55 148.017 131.076 148.201C131.295 148.228 131.452 148.427 131.425 148.646C131.401 148.849 131.228 148.998 131.029 148.998ZM145.245 147.692C145.078 147.692 144.922 147.586 144.866 147.419C144.796 147.209 144.908 146.983 145.118 146.912C146.601 146.414 148.063 145.787 149.464 145.048C149.659 144.945 149.901 145.02 150.004 145.216C150.107 145.411 150.032 145.653 149.837 145.756C148.398 146.515 146.896 147.159 145.373 147.671C145.33 147.685 145.287 147.692 145.245 147.692ZM121.701 146.79C121.658 146.79 121.614 146.783 121.571 146.768C120.091 146.255 118.578 145.657 117.074 144.99C116.872 144.901 116.781 144.665 116.87 144.463C116.96 144.261 117.196 144.169 117.398 144.259C118.882 144.917 120.373 145.507 121.832 146.012C122.041 146.084 122.152 146.312 122.08 146.521C122.022 146.686 121.867 146.79 121.701 146.79ZM153.708 143.249C153.586 143.249 153.464 143.192 153.386 143.086C153.255 142.908 153.293 142.658 153.47 142.527C154.708 141.614 155.925 140.581 157.086 139.459C157.245 139.305 157.498 139.31 157.652 139.469C157.805 139.627 157.801 139.881 157.642 140.034C156.455 141.181 155.212 142.236 153.945 143.17C153.874 143.223 153.791 143.249 153.708 143.249ZM112.921 142.913C112.857 142.913 112.793 142.898 112.733 142.866C111.337 142.12 109.93 141.305 108.552 140.445C108.364 140.328 108.307 140.082 108.424 139.894C108.541 139.707 108.788 139.649 108.975 139.766C110.339 140.617 111.73 141.422 113.11 142.161C113.305 142.265 113.378 142.507 113.274 142.702C113.202 142.837 113.064 142.913 112.921 142.913ZM104.77 137.832C104.689 137.832 104.607 137.807 104.537 137.757C102.134 136.032 100.718 134.788 100.704 134.776C100.538 134.63 100.523 134.377 100.669 134.212C100.814 134.046 101.067 134.03 101.233 134.176C101.247 134.188 102.637 135.408 105.003 137.107C105.183 137.236 105.224 137.485 105.095 137.665C105.017 137.774 104.894 137.832 104.77 137.832ZM160.613 136.619C160.523 136.619 160.433 136.589 160.359 136.528C160.188 136.387 160.164 136.135 160.305 135.965C160.762 135.41 161.219 134.828 161.663 134.236C162.179 133.548 162.674 132.845 163.136 132.145C163.258 131.961 163.506 131.91 163.69 132.032C163.875 132.153 163.925 132.402 163.804 132.586C163.333 133.299 162.828 134.016 162.303 134.716C161.852 135.318 161.387 135.909 160.922 136.474C160.843 136.569 160.728 136.619 160.613 136.619ZM165.866 128.611C165.806 128.611 165.746 128.597 165.689 128.569C165.491 128.471 165.41 128.231 165.508 128.033C166.219 126.6 166.831 125.127 167.327 123.654C167.398 123.445 167.625 123.332 167.834 123.403C168.043 123.473 168.156 123.7 168.086 123.909C167.578 125.416 166.952 126.923 166.225 128.388C166.155 128.529 166.013 128.611 165.866 128.611ZM168.906 119.537C168.882 119.537 168.858 119.535 168.834 119.531C168.617 119.492 168.473 119.284 168.512 119.066C168.794 117.514 168.96 115.929 169.007 114.356C169.013 114.135 169.192 113.954 169.419 113.968C169.64 113.975 169.813 114.159 169.807 114.38C169.759 115.993 169.588 117.618 169.299 119.209C169.264 119.402 169.096 119.537 168.906 119.537ZM169.194 109.979C168.994 109.979 168.821 109.829 168.797 109.626C168.614 108.078 168.315 106.513 167.908 104.974C167.852 104.761 167.979 104.542 168.193 104.486C168.406 104.43 168.626 104.557 168.682 104.77C169.098 106.345 169.404 107.947 169.592 109.532C169.617 109.752 169.461 109.95 169.241 109.976C169.225 109.978 169.209 109.979 169.194 109.979ZM166.765 100.729C166.608 100.729 166.459 100.635 166.395 100.48C165.804 99.0408 165.109 97.6028 164.327 96.2064C164.22 96.0136 164.288 95.7698 164.481 95.662C164.674 95.554 164.918 95.6228 165.026 95.8158C165.822 97.2402 166.532 98.7074 167.135 100.177C167.219 100.381 167.121 100.615 166.917 100.699C166.867 100.719 166.816 100.729 166.765 100.729ZM162.103 92.3628C161.978 92.3628 161.855 92.3048 161.777 92.1956C160.868 90.925 159.869 89.6742 158.81 88.4776C158.664 88.3122 158.679 88.0594 158.844 87.913C159.01 87.7666 159.263 87.7822 159.409 87.9474C160.486 89.1644 161.502 90.4372 162.427 91.73C162.556 91.9096 162.515 92.1594 162.335 92.288C162.265 92.3386 162.183 92.3628 162.103 92.3628ZM155.758 85.1804C155.66 85.1804 155.563 85.145 155.486 85.0734C154.335 84.003 153.112 82.9684 151.852 81.9982C151.677 81.8634 151.644 81.6122 151.779 81.4372C151.913 81.2622 152.164 81.2292 152.34 81.3642C153.62 82.3496 154.861 83.4006 156.03 84.4876C156.192 84.638 156.201 84.8912 156.051 85.0528C155.972 85.1376 155.865 85.1804 155.758 85.1804ZM148.164 79.3298C148.091 79.3298 148.017 79.3096 147.95 79.2676C146.615 78.42 145.225 77.623 143.819 76.8984C143.622 76.7972 143.545 76.556 143.646 76.3596C143.747 76.1632 143.989 76.0862 144.185 76.1872C145.612 76.9226 147.023 77.7316 148.379 78.592C148.566 78.7104 148.621 78.9576 148.502 79.144C148.426 79.264 148.297 79.3298 148.164 79.3298ZM139.641 74.9394C139.591 74.9394 139.54 74.93 139.491 74.91C138.018 74.3126 136.508 73.7794 135.001 73.3252C134.789 73.2614 134.67 73.0382 134.733 72.8266C134.797 72.6152 135.02 72.4962 135.232 72.559C136.762 73.0204 138.296 73.562 139.792 74.1684C139.996 74.2514 140.095 74.4848 140.012 74.6894C139.949 74.845 139.799 74.9394 139.641 74.9394ZM101.914 73.5694C101.912 73.5694 101.911 73.5694 101.909 73.5694C100.229 73.5486 98.6013 73.3838 97.0697 73.0798C96.8531 73.0368 96.7123 72.8262 96.7553 72.6094C96.7983 72.3928 97.0075 72.2516 97.2257 72.295C98.7091 72.5896 100.288 72.7492 101.919 72.7694C102.14 72.7722 102.317 72.9534 102.314 73.1744C102.311 73.3934 102.133 73.5694 101.914 73.5694ZM106.699 73.2646C106.502 73.2646 106.331 73.1186 106.303 72.918C106.274 72.699 106.427 72.4976 106.646 72.4682C107.985 72.2878 109.375 72.0234 110.777 71.6824C110.958 71.6386 111.138 71.5958 111.319 71.5544C111.534 71.5054 111.748 71.6394 111.798 71.8546C111.847 72.07 111.713 72.2846 111.498 72.334C111.32 72.3748 111.143 72.4166 110.966 72.4596C109.537 72.8072 108.119 73.0768 106.753 73.2608C106.735 73.2634 106.717 73.2646 106.699 73.2646ZM130.463 72.1764C130.437 72.1764 130.41 72.1738 130.384 72.1686C128.823 71.8566 127.24 71.6206 125.678 71.4672C125.458 71.4456 125.298 71.25 125.319 71.03C125.341 70.81 125.537 70.6494 125.757 70.671C127.345 70.827 128.954 71.0668 130.541 71.3838C130.757 71.4272 130.898 71.638 130.855 71.8546C130.816 72.045 130.649 72.1764 130.463 72.1764ZM92.5817 71.6486C92.5269 71.6486 92.4713 71.6372 92.4183 71.6134C90.8983 70.9316 89.4967 70.0714 88.2523 69.0562C88.0811 68.9166 88.0555 68.6646 88.1951 68.4934C88.3349 68.3222 88.5871 68.297 88.7579 68.4362C89.9479 69.4068 91.2897 70.2302 92.7457 70.8834C92.9473 70.9738 93.0373 71.2104 92.9469 71.412C92.8805 71.5606 92.7345 71.6486 92.5817 71.6486ZM116.136 71.534C115.936 71.534 115.763 71.3836 115.739 71.1796C115.714 70.96 115.872 70.7618 116.091 70.7366C117.679 70.5544 119.305 70.4572 120.923 70.4474C120.924 70.4474 120.925 70.4474 120.926 70.4474C121.145 70.4474 121.324 70.625 121.326 70.845C121.327 71.066 121.149 71.246 120.928 71.2474C119.339 71.257 117.742 71.3526 116.182 71.5314C116.167 71.5332 116.152 71.534 116.136 71.534ZM85.2577 65.6344C85.1307 65.6344 85.0059 65.5742 84.9283 65.462C84.0027 64.1238 83.2639 62.6526 82.7325 61.0892C82.6615 60.88 82.7733 60.6528 82.9825 60.5818C83.1915 60.5102 83.4189 60.6226 83.4899 60.8318C83.9975 62.325 84.7027 63.7296 85.5863 65.007C85.7119 65.1886 85.6665 65.4378 85.4849 65.5636C85.4153 65.6114 85.3361 65.6344 85.2577 65.6344ZM82.1807 56.6666C81.9719 56.6666 81.7961 56.5046 81.7819 56.2932C81.7529 55.86 81.7383 55.4184 81.7383 54.9804C81.7383 53.7994 81.8447 52.6006 82.0545 51.4168C82.0931 51.1994 82.3015 51.0546 82.5181 51.0928C82.7355 51.1314 82.8807 51.3388 82.8421 51.5564C82.6405 52.694 82.5383 53.846 82.5383 54.9804C82.5383 55.4006 82.5523 55.8244 82.5801 56.2398C82.5949 56.4602 82.4281 56.6508 82.2077 56.6656C82.1987 56.6664 82.1897 56.6666 82.1807 56.6666ZM83.8141 47.2968C83.7621 47.2968 83.7093 47.2866 83.6583 47.265C83.4549 47.1788 83.3597 46.9442 83.4459 46.7406C84.0713 45.2628 84.8661 43.8288 85.8083 42.4782C85.9347 42.297 86.1839 42.2526 86.3651 42.379C86.5463 42.5054 86.5909 42.7548 86.4643 42.9358C85.5541 44.2408 84.7863 45.626 84.1825 47.0524C84.1181 47.2052 83.9699 47.2968 83.8141 47.2968ZM89.2455 39.4624C89.1411 39.4624 89.0369 39.4218 88.9585 39.341C88.8047 39.1826 88.8085 38.9292 88.9669 38.7754C90.1061 37.6696 91.3749 36.6376 92.7377 35.708C92.9203 35.5836 93.1691 35.6304 93.2935 35.813C93.4179 35.9956 93.3709 36.2444 93.1885 36.3688C91.8635 37.2726 90.6307 38.2754 89.5243 39.3494C89.4463 39.4248 89.3459 39.4624 89.2455 39.4624ZM97.1201 34.0516C96.9709 34.0516 96.8279 33.968 96.7591 33.8244C96.6635 33.6252 96.7475 33.3864 96.9467 33.2908C98.3651 32.6106 99.8799 32.006 101.448 31.4942C101.658 31.4254 101.884 31.5404 101.953 31.7504C102.021 31.9604 101.907 32.1862 101.697 32.2548C100.161 32.7558 98.6795 33.3472 97.2925 34.0122C97.2369 34.039 97.1781 34.0516 97.1201 34.0516ZM106.21 31.0542C106.024 31.0542 105.857 30.9238 105.818 30.7344C105.774 30.518 105.914 30.3066 106.13 30.2622C106.926 30.0992 107.749 29.953 108.576 29.8278C108.794 29.7946 108.998 29.945 109.031 30.1634C109.064 30.3818 108.914 30.5856 108.695 30.6188C107.882 30.742 107.073 30.8856 106.291 31.046C106.263 31.0516 106.236 31.0542 106.21 31.0542Z" fill="#8CC3E1"/>
<path opacity="0.75" d="M128.48 23.4619C127.738 22.9867 126.818 22.6391 125.789 22.4481C125.155 21.6813 124.392 20.9253 123.514 20.2189C122.264 19.2089 120.955 18.4421 119.735 17.9517C119.601 15.3111 120.316 13.2649 121.728 12.8331C123.76 12.2083 126.473 15.1653 127.785 19.4377C128.217 20.8497 128.444 22.2289 128.48 23.4619Z" fill="#8CC3E1"/>
<path d="M128.903 24.2072L128.266 23.7986C127.569 23.3526 126.688 23.0214 125.717 22.8412L125.574 22.8148L125.482 22.7028C124.845 21.9326 124.099 21.2018 123.265 20.5304C122.09 19.5806 120.818 18.8174 119.587 18.3228L119.35 18.2274L119.337 17.9718C119.188 15.0408 120.06 12.9252 121.612 12.4504C122.751 12.1006 124.069 12.661 125.323 14.0284C126.507 15.319 127.517 17.1984 128.169 19.3202C128.596 20.7192 128.843 22.147 128.881 23.45L128.903 24.2072ZM126.006 22.0822C126.742 22.2304 127.431 22.4596 128.04 22.7566C127.95 21.7254 127.734 20.6322 127.404 19.5544C126.787 17.5444 125.838 15.7736 124.734 14.569C123.715 13.4578 122.663 12.9644 121.847 13.2152C120.72 13.56 120.055 15.3 120.126 17.6798C121.354 18.2036 122.608 18.9702 123.768 19.9076C124.603 20.5802 125.356 21.3114 126.006 22.0822Z" fill="#8CC3E1"/>
<path d="M123.459 32.6568C119.084 33.5608 115.067 32.0266 114.49 29.2322C114.144 27.5666 115.102 25.8298 116.857 24.5064C117.388 25.0924 118 25.67 118.675 26.2158C122.156 29.0208 126.06 29.9546 127.396 28.2992C127.672 27.955 127.818 27.5322 127.842 27.0478C127.909 25.7738 127.152 24.0966 125.788 22.448C126.818 22.6392 127.738 22.9866 128.48 23.4618C128.482 23.464 128.482 23.464 128.482 23.464C129.462 24.091 130.129 24.941 130.34 25.9598C130.917 28.7542 127.839 31.7524 123.459 32.6568Z" fill="#8CC3E1"/>
<path opacity="0.5" d="M116.858 24.5068C117.388 25.0916 118.002 25.6704 118.676 26.2166C122.156 29.0208 126.061 29.9548 127.397 28.2998C127.673 27.9546 127.819 27.5322 127.843 27.047C127.91 25.7738 127.153 24.0966 125.789 22.448C125.155 21.6804 124.392 20.9252 123.514 20.2184C122.264 19.2092 120.956 18.4418 119.736 17.9524C117.561 17.0772 115.654 17.0732 114.799 18.1352C113.721 19.469 114.637 22.0762 116.858 24.5068Z" fill="#8CC3E1"/>
<path d="M125.292 29.5171C123.381 29.5171 120.826 28.4625 118.425 26.5281C117.739 25.9725 117.113 25.3833 116.563 24.7761C114.136 22.1207 113.303 19.3509 114.489 17.8837C115.43 16.7137 117.448 16.6003 119.885 17.5813C121.183 18.1015 122.525 18.9057 123.766 19.9071C124.646 20.6157 125.43 21.3849 126.098 22.1933C127.533 23.9277 128.315 25.7045 128.243 27.0681C128.214 27.6445 128.035 28.1433 127.71 28.5499C127.181 29.2041 126.332 29.5169 125.292 29.5171ZM116.897 17.7177C116.095 17.7177 115.47 17.9409 115.112 18.3859C114.198 19.5161 115.038 21.9219 117.154 24.2369L117.155 24.2381C117.678 24.8151 118.275 25.3761 118.928 25.9057C122.175 28.5221 125.912 29.5035 127.086 28.0485C127.303 27.7771 127.424 27.4329 127.445 27.0269C127.506 25.8607 126.79 24.2849 125.481 22.7029C124.848 21.9359 124.102 21.2049 123.264 20.5299C122.084 19.5777 120.813 18.8149 119.588 18.3237C118.582 17.9193 117.66 17.7177 116.897 17.7177Z" fill="#8CC3E1"/>
<path opacity="0.25" d="M125.78 134.476V149.855C125.78 154.53 121.989 158.321 117.314 158.321H106.879V166.764C106.879 169.469 103.705 170.927 101.653 169.165L89.0332 158.321H22.1188C17.4414 158.321 13.6504 154.53 13.6504 149.855V91.0792C13.6504 86.404 17.4414 82.613 22.1188 82.613H28.1578V120.1C28.1578 128.039 34.595 134.476 42.5338 134.476H46.0474V148.291C46.0474 151.5 49.874 153.166 52.222 150.979L69.9386 134.476H125.78Z" fill="#8CC3E1"/>
<path d="M103.704 170.334C102.874 170.334 102.058 170.039 101.392 169.468L88.8846 158.721H22.1184C17.2284 158.721 13.25 154.744 13.25 149.855V91.0793C13.25 86.1905 17.2284 82.2129 22.1184 82.2129H28.5574V120.1C28.5574 127.806 34.827 134.076 42.5332 134.076H46.4468V148.291C46.4468 149.614 47.2004 150.764 48.4138 151.292C49.6268 151.82 50.981 151.588 51.9486 150.686L69.7804 134.076H126.18V149.855C126.18 154.744 122.202 158.721 117.313 158.721H107.279V166.765C107.279 168.174 106.483 169.415 105.203 170.003C104.718 170.225 104.209 170.334 103.704 170.334ZM22.1184 83.0129C17.6694 83.0129 14.05 86.6315 14.05 91.0793V149.855C14.05 154.303 17.6694 157.921 22.1184 157.921H89.1812L101.914 168.861C102.743 169.573 103.875 169.732 104.869 169.276C105.862 168.82 106.479 167.857 106.479 166.764V157.921H117.313C121.761 157.921 125.38 154.302 125.38 149.855V134.876H70.0954L52.494 151.272C51.2898 152.393 49.604 152.682 48.0948 152.026C46.5848 151.369 45.6468 149.938 45.6468 148.291V134.876H42.5332C34.3858 134.876 27.7574 128.247 27.7574 120.1V83.0129H22.1184Z" fill="#8CC3E1"/>
<path opacity="0.25" d="M121.33 18.7272C121.967 19.0884 122.61 19.5156 123.242 20.0048C122.61 19.5156 121.967 19.0884 121.33 18.7272Z" fill="#8CC3E1"/>
<path opacity="0.25" d="M123.391 28.808C123.644 28.8832 123.893 28.9466 124.135 28.9944C123.893 28.9464 123.644 28.883 123.391 28.808Z" fill="#8CC3E1"/>
<path opacity="0.25" d="M126.217 22.9926C126.082 22.811 125.941 22.6294 125.791 22.448C125.719 22.3614 125.645 22.2748 125.57 22.1884C125.645 22.2748 125.719 22.3612 125.791 22.4478C125.941 22.6292 126.082 22.811 126.217 22.9926Z" fill="#8CC3E1"/>
<path opacity="0.25" d="M18.2686 36.5366H25.973C28.2976 34.5448 31.036 33.0238 34.0446 32.1178C34.1114 32.099 34.178 32.0762 34.2468 32.0574C36.2298 31.4818 38.3298 31.1712 40.5006 31.1712C40.8218 31.1712 41.147 31.1796 41.464 31.1942C45.5574 31.3652 49.3692 32.6392 52.6014 34.7288C56.7094 37.3854 59.8978 41.3432 61.5598 46.0268C61.6056 46.156 61.6516 46.2854 61.6932 46.4146H133.54C134.409 44.7372 135.53 43.2114 136.853 41.888C140.159 38.5826 144.724 36.5368 149.771 36.5368H164.804C169.848 36.5368 174.416 34.491 177.721 31.1856C181.027 27.8802 183.072 23.3148 183.072 18.2684C183.072 8.178 174.892 0 164.804 0H18.2686C13.2246 0 8.6568 2.0458 5.3514 5.3512C2.0434 8.6566 0 13.222 0 18.2684C0.0002 28.3586 8.1784 36.5366 18.2686 36.5366ZM114.801 18.135C115.655 17.073 117.562 17.0772 119.737 17.9522C119.99 18.0538 120.248 18.1704 120.508 18.2956C120.248 18.17 119.99 18.0534 119.736 17.9514C119.603 15.3108 120.317 13.2646 121.729 12.8328C123.762 12.208 126.475 15.165 127.786 19.4374C128.218 20.8494 128.445 22.2286 128.481 23.4616C128.484 23.4638 128.484 23.4638 128.484 23.4638C129.463 24.0908 130.131 24.9408 130.342 25.9596C130.919 28.754 127.841 31.752 123.46 32.6566C119.085 33.5606 115.069 32.0264 114.491 29.232C114.146 27.5664 115.104 25.8296 116.859 24.5062C117.197 24.8798 117.572 25.2492 117.972 25.61C117.573 25.2488 117.198 24.8794 116.86 24.5066C114.638 22.0762 113.722 19.469 114.801 18.135Z" fill="#8CC3E1"/>
<path opacity="0.25" d="M164.804 146.147H125.78V149.855C125.78 154.53 121.989 158.321 117.314 158.321H106.879V166.764C106.879 169.469 103.705 170.927 101.653 169.165L89.0332 158.321H22.1188C17.4416 158.321 13.6506 154.53 13.6506 149.855V146.737C10.4618 147.568 7.6114 149.239 5.3514 151.499C2.0434 154.804 0 159.372 0 164.416C0 174.506 8.1782 182.684 18.2684 182.684H164.804C169.848 182.684 174.415 180.639 177.721 177.333C181.027 174.028 183.072 169.462 183.072 164.416C183.072 154.328 174.892 146.147 164.804 146.147Z" fill="#8CC3E1"/>
<path opacity="0.25" d="M164.804 73.0736H156.682V109.61H164.804C169.848 109.61 174.415 107.565 177.721 104.259C181.026 100.954 183.072 96.3884 183.072 91.342C183.072 81.2516 174.891 73.0736 164.804 73.0736Z" fill="#8CC3E1"/>
<path opacity="0.25" d="M13.6504 109.021V91.0792C13.6504 86.404 17.4414 82.613 22.1186 82.613H28.1576V73.0736H18.2684C13.2244 73.0736 8.6566 75.1194 5.3512 78.4248C2.0432 81.7304 0 86.2956 0 91.342C0 99.8368 5.7966 106.976 13.6504 109.021Z" fill="#8CC3E1"/>
</svg>
