<svg width="200" height="200" viewBox="0 0 200 200" fill="none" xmlns="http://www.w3.org/2000/svg">
<mask id="mask0_1409_2957" style="mask-type:luminance" maskUnits="userSpaceOnUse" x="0" y="0" width="200" height="200">
<path d="M200 0H0V200H200V0Z" fill="white"/>
</mask>
<g mask="url(#mask0_1409_2957)">
<g opacity="0.25">
<path d="M0 100C0 94.924 2.478 90.328 6.478 87.002C10.482 83.674 16.01 81.616 22.116 81.616H22.726C22.194 83.118 21.904 84.734 21.904 86.42V117.762C21.904 117.97 21.908 118.178 21.918 118.384C9.79401 118.296 0 110.1 0 100Z" fill="#8CC3E1"/>
<path d="M200 173.538C200 178.616 197.522 183.21 193.522 186.536C189.518 189.864 183.99 191.92 177.884 191.92H22.116C9.902 191.92 0 183.69 0 173.538C0 168.46 2.478 163.866 6.478 160.538C10.482 157.212 16.01 155.154 22.116 155.154H23.6C29.708 155.154 35.238 153.096 39.24 149.77C43.246 146.442 45.718 141.848 45.718 136.77C45.718 136.652 45.716 136.536 45.714 136.418L46.816 140.886C47.47 143.538 50.754 144.486 52.722 142.59L62.808 132.876V145.596C62.808 153.232 68.998 159.422 76.634 159.422H138.76L149.146 169.428C151.034 171.25 154.188 170.34 154.814 167.792L156.878 159.422H164.9C168.828 159.422 172.376 157.784 174.892 155.154H177.88C190.094 155.154 199.996 163.384 199.996 173.538H200Z" fill="#8CC3E1"/>
<path d="M200 100C200 105.078 197.522 109.674 193.522 113C189.706 116.172 184.502 118.192 178.732 118.37V115.506C178.732 112.422 177.722 109.574 176.016 107.274C180.516 104.84 183.572 100.076 183.572 94.5981V82.2301C193.032 84.3161 200.002 91.4801 200.002 99.9981L200 100Z" fill="#8CC3E1"/>
<path d="M0 26.466C0 21.388 2.478 16.794 6.478 13.468C10.482 10.14 16.01 8.08203 22.116 8.08203H177.882C190.096 8.08203 199.998 16.314 199.998 26.466C199.998 31.542 197.52 36.138 193.52 39.464C189.516 42.79 183.988 44.85 177.882 44.85H172.146C166.934 44.85 162.14 46.348 158.36 48.856H136.922C133.854 33.108 119.984 21.22 103.34 21.22C86.696 21.22 72.824 33.108 69.756 48.856H65.568C61.79 46.348 57 44.85 51.788 44.85H22.116C9.902 44.85 0 36.618 0 26.466Z" fill="#8CC3E1"/>
<path d="M40.8767 55.158C39.3007 57.466 38.3827 60.256 38.3827 63.26V72C38.3827 72 38.3667 72.014 38.3587 72.018H36.3107C33.5687 72.018 31.0087 72.786 28.8247 74.114C23.3467 72.994 19.2227 68.146 19.2227 62.336C19.2227 55.7 24.6027 50.32 31.2387 50.32C35.1827 50.32 38.6847 52.222 40.8767 55.158Z" fill="#8CC3E1"/>
<path d="M39.407 136.218C39.407 142.854 34.027 148.234 27.391 148.234C20.755 148.234 15.375 142.854 15.375 136.218C15.375 130.86 18.881 126.32 23.725 124.772C26.187 129.184 30.901 132.164 36.309 132.164H38.705C39.161 133.43 39.407 134.796 39.407 136.216V136.218Z" fill="#8CC3E1"/>
</g>
<g opacity="0.25">
<path d="M178.733 115.508V145.594C178.733 153.23 172.543 159.42 164.905 159.42H156.883L154.819 167.79C154.191 170.338 151.039 171.248 149.151 169.426L138.763 159.42H76.6366C69.0006 159.42 62.8105 153.23 62.8105 145.594V132.874L63.5465 132.166H152.691C160.645 132.166 167.095 125.72 167.095 117.762V109.004H169.169C171.649 109.004 173.979 108.378 176.017 107.276C177.723 109.576 178.733 112.424 178.733 115.508Z" fill="#8CC3E1"/>
</g>
<path d="M151.491 170.984C150.475 170.984 149.491 170.594 148.729 169.858L138.517 160.02H76.633C68.679 160.02 62.207 153.548 62.207 145.594V132.618L63.301 131.564H152.687C160.299 131.564 166.491 125.372 166.491 117.76V108.402H169.165C171.457 108.402 173.727 107.83 175.727 106.746L176.185 106.498L176.495 106.916C178.349 109.416 179.331 112.386 179.331 115.506V145.592C179.331 153.546 172.859 160.018 164.903 160.018H157.351L155.399 167.932C155.053 169.338 154.015 170.418 152.623 170.82C152.249 170.928 151.869 170.982 151.495 170.982L151.491 170.984ZM63.407 133.13V145.596C63.407 152.888 69.341 158.822 76.633 158.822H139.001L149.563 168.996C150.295 169.702 151.313 169.954 152.287 169.672C153.263 169.39 153.989 168.634 154.231 167.648L156.409 158.822H164.901C172.195 158.822 178.129 152.888 178.129 145.596V115.51C178.129 112.82 177.335 110.252 175.825 108.05C173.767 109.07 171.475 109.606 169.163 109.606H167.689V117.764C167.689 126.038 160.959 132.768 152.685 132.768H63.783L63.405 133.132L63.407 133.13Z" fill="#8CC3E1"/>
<g opacity="0.75">
<path d="M167.092 109.004V117.762C167.092 125.718 160.642 132.166 152.688 132.166H63.5443L62.8083 132.874L52.7223 142.588C50.7543 144.484 47.4703 143.536 46.8163 140.884L44.6663 132.164H36.3083C28.3543 132.164 21.9043 125.718 21.9043 117.76V86.4179C21.9043 78.4639 28.3543 72.0139 36.3083 72.0139H38.3823V94.5979C38.3823 102.554 44.8323 109.002 52.7863 109.002H141.932L152.752 119.426C154.72 121.324 158.004 120.376 158.658 117.722L160.808 109.002H167.092V109.004Z" fill="#8CC3E1"/>
</g>
<path d="M50.2807 144.186C49.8927 144.186 49.4987 144.132 49.1107 144.02C47.6687 143.604 46.5947 142.486 46.2347 141.03L44.1967 132.766H36.3087C28.0347 132.766 21.3047 126.036 21.3047 117.762V86.42C21.3047 78.146 28.0347 71.416 36.3087 71.416H38.9827V94.6C38.9827 102.212 45.1747 108.404 52.7867 108.404H142.175L153.169 118.996C153.937 119.736 155.007 120.002 156.031 119.706C157.055 119.41 157.819 118.616 158.075 117.58L160.339 108.404H167.693V117.762C167.693 126.036 160.963 132.766 152.689 132.766H63.7867L53.1387 143.022C52.3487 143.782 51.3327 144.186 50.2807 144.186ZM36.3087 72.618C28.6967 72.618 22.5047 78.81 22.5047 86.422V117.764C22.5047 125.376 28.6967 131.568 36.3087 131.568H45.1367L47.4007 140.744C47.6567 141.778 48.4207 142.572 49.4447 142.868C50.4687 143.164 51.5407 142.9 52.3067 142.16L63.3027 131.568H152.689C160.301 131.568 166.493 125.376 166.493 117.764V109.606H161.279L159.241 117.87C158.881 119.328 157.807 120.446 156.365 120.862C154.923 121.278 153.417 120.904 152.337 119.862L141.691 109.608H52.7867C44.5127 109.608 37.7827 102.878 37.7827 94.604V72.62H36.3087V72.618Z" fill="#8CC3E1"/>
<g opacity="0.5">
<path d="M183.571 63.258V94.6C183.571 100.076 180.515 104.84 176.015 107.276C173.977 108.38 171.647 109.004 169.167 109.004H160.809L158.659 117.724C158.005 120.378 154.721 121.326 152.753 119.428L141.933 109.004H52.7868C44.8328 109.004 38.3828 102.556 38.3828 94.6V63.258C38.3828 55.304 44.8328 48.854 52.7868 48.854H69.7588C69.3428 50.982 69.1268 53.182 69.1268 55.434C69.1268 74.328 84.4468 89.648 103.343 89.648C122.239 89.648 137.557 74.328 137.557 55.434C137.557 53.182 137.341 50.982 136.925 48.854H169.167C177.123 48.854 183.571 55.304 183.571 63.258Z" fill="#8CC3E1"/>
</g>
<path d="M155.195 121.024C154.141 121.024 153.125 120.62 152.335 119.858L141.689 109.604H52.7853C44.5113 109.604 37.7812 102.874 37.7812 94.6V63.258C37.7812 54.984 44.5113 48.254 52.7853 48.254H70.4853L70.3453 48.968C69.9333 51.08 69.7253 53.254 69.7253 55.434C69.7253 73.968 84.8052 89.048 103.341 89.048C121.877 89.048 136.955 73.968 136.955 55.434C136.955 53.254 136.747 51.08 136.335 48.968L136.195 48.254H169.165C177.439 48.254 184.169 54.984 184.169 63.258V94.6C184.169 100.118 181.153 105.176 176.299 107.802C174.123 108.98 171.657 109.602 169.165 109.602H161.277L159.239 117.866C158.879 119.324 157.805 120.442 156.363 120.858C155.975 120.97 155.583 121.024 155.195 121.024ZM52.7853 49.454C45.1733 49.454 38.9813 55.646 38.9813 63.258V94.6C38.9813 102.212 45.1733 108.404 52.7853 108.404H142.173L153.167 118.996C153.935 119.736 155.005 120.002 156.029 119.706C157.053 119.41 157.817 118.616 158.073 117.58L160.337 108.404H169.165C171.457 108.404 173.727 107.832 175.729 106.748C180.195 104.332 182.969 99.676 182.969 94.6V63.258C182.969 55.646 176.777 49.454 169.165 49.454H137.643C137.983 51.414 138.155 53.424 138.155 55.434C138.155 74.63 122.537 90.248 103.341 90.248C84.1452 90.248 68.5253 74.63 68.5253 55.434C68.5253 53.424 68.6973 51.416 69.0373 49.454H52.7853Z" fill="#8CC3E1"/>
<g opacity="0.5">
<path d="M104.202 48.854L82.5018 70.554C82.5018 70.554 82.4998 70.55 82.4978 70.548C82.4118 70.43 82.3258 70.312 82.2438 70.192C81.9518 69.776 81.6738 69.352 81.4058 68.918C81.3338 68.8 81.2618 68.682 81.1898 68.562C81.1678 68.524 81.1438 68.486 81.1218 68.444C81.0478 68.32 80.9758 68.194 80.9058 68.068C80.7418 67.782 80.5838 67.49 80.4338 67.196C80.3598 67.05 80.2858 66.902 80.2118 66.754C80.1378 66.606 80.0678 66.456 79.9978 66.304C79.9278 66.156 79.8578 66.004 79.7918 65.852C79.7238 65.698 79.6578 65.548 79.5938 65.394C79.4638 65.09 79.3418 64.778 79.2258 64.466C79.1678 64.31 79.1098 64.152 79.0538 63.994C78.9978 63.838 78.9438 63.678 78.8918 63.52C78.8398 63.362 78.7878 63.202 78.7378 63.042C78.6318 62.702 78.5338 62.358 78.4418 62.012C78.4058 61.872 78.3718 61.734 78.3378 61.594C78.3338 61.582 78.3318 61.572 78.3278 61.56C78.2938 61.424 78.2618 61.29 78.2298 61.154C78.1978 61.014 78.1658 60.872 78.1378 60.73C78.0898 60.506 78.0478 60.284 78.0078 60.058C77.9778 59.9 77.9518 59.74 77.9258 59.582C77.9038 59.454 77.8838 59.322 77.8658 59.194C77.8478 59.078 77.8318 58.962 77.8178 58.844C77.7818 58.58 77.7498 58.316 77.7238 58.048C77.7038 57.854 77.6878 57.66 77.6718 57.466L77.6578 57.284C77.6458 57.124 77.6378 56.966 77.6278 56.806C77.6258 56.778 77.6258 56.754 77.6238 56.728C77.6138 56.52 77.6058 56.31 77.6018 56.1C77.5958 55.882 77.5918 55.658 77.5918 55.436C77.5918 55.24 77.5938 55.044 77.6018 54.848C77.5998 54.81 77.6018 54.772 77.6038 54.736C77.6058 54.546 77.6158 54.354 77.6238 54.166C77.6258 54.128 77.6258 54.09 77.6298 54.048C77.6358 53.888 77.6478 53.728 77.6598 53.57C77.6638 53.496 77.6718 53.422 77.6758 53.348C77.6758 53.342 77.6778 53.334 77.6778 53.328C77.6918 53.158 77.7078 52.988 77.7238 52.818C77.7258 52.802 77.7278 52.784 77.7298 52.768C77.7498 52.564 77.7718 52.362 77.7998 52.158C77.8198 51.996 77.8418 51.834 77.8658 51.67C77.8698 51.648 77.8718 51.622 77.8778 51.6C77.8878 51.53 77.8978 51.458 77.9098 51.388C77.9298 51.254 77.9518 51.124 77.9778 50.99C77.9878 50.938 77.9958 50.886 78.0058 50.836C78.0398 50.64 78.0778 50.442 78.1178 50.244C78.1578 50.046 78.2018 49.844 78.2458 49.646C78.2478 49.636 78.2498 49.628 78.2518 49.618C78.2918 49.442 78.3358 49.264 78.3798 49.088C78.3998 49.01 78.4198 48.932 78.4398 48.854C78.5778 48.334 78.7278 47.822 78.8978 47.316C78.9398 47.186 78.9858 47.056 79.0318 46.926C79.0518 46.866 79.0738 46.804 79.0978 46.744C79.1398 46.62 79.1858 46.498 79.2338 46.376C79.2458 46.342 79.2578 46.308 79.2718 46.274C79.3238 46.136 79.3778 45.998 79.4318 45.864C79.6358 45.356 79.8538 44.858 80.0878 44.368C80.1518 44.238 80.2138 44.104 80.2798 43.974C80.2938 43.944 80.3078 43.918 80.3218 43.89C80.3778 43.774 80.4378 43.66 80.4978 43.546C80.5278 43.488 80.5558 43.43 80.5878 43.374C80.6558 43.246 80.7238 43.116 80.7958 42.99C80.8798 42.838 80.9658 42.686 81.0538 42.536C81.3198 42.074 81.6018 41.62 81.8998 41.178C81.9638 41.08 82.0258 40.986 82.0918 40.892C82.1378 40.826 82.1798 40.764 82.2258 40.7C82.3078 40.582 82.3898 40.468 82.4738 40.352C82.5758 40.212 82.6778 40.072 82.7838 39.934C82.9918 39.656 83.2058 39.384 83.4278 39.118C83.5198 39.006 83.6138 38.892 83.7078 38.78C83.7318 38.752 83.7558 38.724 83.7798 38.696C83.8778 38.584 83.9738 38.47 84.0738 38.36C84.0898 38.342 84.1058 38.324 84.1198 38.308C84.2298 38.186 84.3418 38.064 84.4518 37.944C85.0598 37.288 85.6978 36.664 86.3678 36.078C86.4658 35.992 86.5618 35.908 86.6598 35.828C86.6978 35.794 86.7358 35.762 86.7718 35.734C86.8638 35.656 86.9578 35.578 87.0498 35.502C87.4698 35.16 87.8978 34.83 88.3378 34.514C88.4218 34.454 88.5078 34.392 88.5918 34.334C88.6998 34.258 88.8078 34.18 88.9198 34.108C88.9438 34.09 88.9698 34.074 88.9918 34.06C89.1138 33.974 89.2378 33.894 89.3638 33.814C89.4218 33.774 89.4818 33.738 89.5398 33.698C89.6878 33.6 89.8398 33.508 89.9938 33.416C90.1698 33.308 90.3458 33.204 90.5258 33.1C90.6798 33.014 90.8298 32.928 90.9818 32.846C91.0898 32.786 91.1998 32.726 91.3118 32.67C91.3798 32.634 91.4478 32.598 91.5158 32.562C91.6258 32.506 91.7378 32.446 91.8498 32.392C91.8898 32.372 91.9318 32.352 91.9718 32.332C92.0718 32.282 92.1758 32.232 92.2758 32.184C92.4038 32.124 92.5298 32.064 92.6598 32.006C92.6998 31.988 92.7418 31.97 92.7818 31.95C92.9618 31.868 93.1398 31.792 93.3238 31.716C93.4618 31.658 93.5998 31.598 93.7398 31.544C93.7718 31.53 93.8038 31.516 93.8338 31.506C93.9898 31.442 94.1458 31.384 94.3018 31.326C94.3158 31.322 94.3258 31.316 94.3358 31.314C94.4958 31.25 94.6578 31.194 94.8218 31.138C94.8238 31.136 94.8258 31.136 94.8278 31.134C94.9718 31.084 95.1158 31.034 95.2638 30.988C95.4178 30.936 95.5698 30.888 95.7238 30.842C95.8678 30.794 96.0158 30.752 96.1618 30.712C96.5678 30.592 96.9778 30.484 97.3938 30.388C97.4978 30.364 97.6018 30.338 97.7078 30.316C97.8438 30.284 97.9758 30.256 98.1118 30.228C98.1418 30.222 98.1698 30.216 98.1998 30.21C98.3698 30.176 98.5358 30.144 98.7058 30.112C98.7538 30.102 98.7978 30.096 98.8458 30.088C98.9858 30.064 99.1258 30.038 99.2658 30.018C99.3458 30.004 99.4238 29.994 99.5018 29.98C99.6898 29.952 99.8778 29.926 100.068 29.904C100.26 29.88 100.454 29.856 100.648 29.836C100.756 29.824 100.864 29.814 100.972 29.806C101.042 29.796 101.11 29.79 101.18 29.786C101.32 29.774 101.462 29.764 101.604 29.754C101.756 29.742 101.906 29.734 102.058 29.726C102.236 29.716 102.416 29.71 102.598 29.706C102.846 29.7 103.096 29.694 103.348 29.694C103.57 29.694 103.792 29.696 104.014 29.704C104.222 29.708 104.432 29.718 104.64 29.726C104.668 29.728 104.694 29.728 104.718 29.73C104.882 29.74 105.046 29.748 105.208 29.762C105.262 29.764 105.318 29.768 105.372 29.774C105.568 29.79 105.766 29.806 105.964 29.826C106.222 29.854 106.478 29.882 106.736 29.918C106.862 29.932 106.988 29.95 107.116 29.97C107.244 29.988 107.37 30.006 107.5 30.028C107.658 30.052 107.818 30.08 107.976 30.11C108.2 30.15 108.426 30.194 108.648 30.24C108.79 30.27 108.93 30.3 109.072 30.332C109.208 30.364 109.342 30.396 109.478 30.43C109.488 30.432 109.498 30.434 109.512 30.44C109.652 30.474 109.79 30.508 109.93 30.544C110.276 30.636 110.618 30.734 110.96 30.84C111.12 30.89 111.28 30.942 111.438 30.994C111.596 31.046 111.756 31.1 111.912 31.156C112.07 31.21 112.228 31.268 112.384 31.328C112.54 31.384 112.696 31.446 112.848 31.506C113.182 31.64 113.512 31.776 113.838 31.924C113.938 31.97 114.038 32.014 114.138 32.062C114.188 32.084 114.236 32.108 114.284 32.13C114.412 32.19 114.538 32.252 114.666 32.312C114.814 32.386 114.964 32.46 115.11 32.536C115.256 32.61 115.404 32.69 115.548 32.766C115.66 32.826 115.774 32.89 115.886 32.954C115.934 32.982 115.984 33.008 116.03 33.036C116.156 33.108 116.282 33.18 116.406 33.254C116.548 33.338 116.69 33.424 116.83 33.508C117.11 33.68 117.386 33.858 117.658 34.04C117.796 34.132 117.932 34.226 118.064 34.318C118.2 34.412 118.332 34.508 118.466 34.604L104.206 48.864L104.202 48.854Z" fill="#8CC3E1"/>
</g>
<g opacity="0.5">
<path d="M129.089 55.4361C129.089 69.6521 117.565 81.1821 103.343 81.1821C103.129 81.1821 102.911 81.1801 102.697 81.1721H102.647C102.439 81.1661 102.231 81.1581 102.027 81.1481H102.013C101.803 81.1361 101.595 81.1261 101.387 81.1101C101.377 81.1081 101.367 81.1081 101.353 81.1081C101.143 81.0901 100.933 81.0721 100.723 81.0521C100.711 81.0501 100.703 81.0501 100.691 81.0481C100.481 81.0281 100.271 81.0021 100.061 80.9761C99.9169 80.9581 99.7749 80.9401 99.6329 80.9181C99.5789 80.9121 99.5269 80.9041 99.4749 80.8961C99.3729 80.8821 99.2749 80.8661 99.1749 80.8481C99.0729 80.8321 98.9709 80.8161 98.8709 80.7961C98.8209 80.7901 98.7689 80.7801 98.7169 80.7681C98.5269 80.7341 98.3409 80.6981 98.1509 80.6601C97.9709 80.6241 97.7869 80.5841 97.6069 80.5421C97.5289 80.5241 97.4469 80.5041 97.3649 80.4861C97.2549 80.4621 97.1469 80.4341 97.0349 80.4041C96.9489 80.3841 96.8629 80.3621 96.7809 80.3381C96.4469 80.2501 96.1149 80.1581 95.7889 80.0561C95.6409 80.0101 95.4929 79.9641 95.3449 79.9141C95.2069 79.8721 95.0689 79.8241 94.9329 79.7761C94.8949 79.7621 94.8529 79.7481 94.8129 79.7361C94.5489 79.6441 94.2889 79.5461 94.0289 79.4441C93.8989 79.3941 93.7669 79.3421 93.6389 79.2881C93.5149 79.2381 93.3909 79.1861 93.2669 79.1341C93.1449 79.0821 93.0249 79.0301 92.9049 78.9761C92.7049 78.8861 92.5029 78.7961 92.3049 78.7001C92.1749 78.6361 92.0429 78.5741 91.9129 78.5081C91.7749 78.4401 91.6369 78.3701 91.5029 78.3001C91.2289 78.1581 90.9589 78.0121 90.6929 77.8601C90.5989 77.8061 90.5029 77.7521 90.4089 77.6981C90.3029 77.6381 90.1969 77.5761 90.0909 77.5081C89.7669 77.3141 89.4449 77.1101 89.1289 76.9001L117.173 48.8541L124.809 41.2181C124.899 41.3541 124.989 41.4921 125.077 41.6281C125.267 41.9301 125.451 42.2361 125.633 42.5441C125.709 42.6781 125.787 42.8101 125.861 42.9461C125.875 42.9701 125.889 42.9961 125.903 43.0201C125.967 43.1361 126.029 43.2521 126.091 43.3701C126.123 43.4301 126.155 43.4921 126.185 43.5521C126.235 43.6441 126.283 43.7381 126.329 43.8301C126.361 43.8961 126.395 43.9601 126.429 44.0281C126.487 44.1501 126.549 44.2721 126.605 44.3941C126.681 44.5521 126.753 44.7101 126.827 44.8701C126.899 45.0301 126.969 45.1901 127.039 45.3501C127.095 45.4861 127.151 45.6201 127.205 45.7561C127.219 45.7901 127.235 45.8241 127.247 45.8581C127.295 45.9801 127.341 46.1021 127.389 46.2241C127.411 46.2801 127.435 46.3401 127.455 46.3981C127.509 46.5381 127.561 46.6801 127.611 46.8241C127.669 46.9881 127.729 47.1561 127.783 47.3221C127.949 47.8261 128.103 48.3361 128.239 48.8521C128.259 48.9301 128.279 49.0081 128.299 49.0861C128.345 49.2621 128.387 49.4401 128.427 49.6161C128.429 49.6261 128.431 49.6341 128.433 49.6441C128.475 49.8341 128.517 50.0201 128.555 50.2101C128.561 50.2381 128.567 50.2641 128.571 50.2921C128.609 50.4781 128.645 50.6641 128.679 50.8501C128.683 50.8721 128.689 50.8961 128.691 50.9181C128.721 51.0821 128.747 51.2501 128.775 51.4141C128.785 51.4681 128.793 51.5221 128.799 51.5761C128.829 51.7681 128.853 51.9601 128.877 52.1541C128.905 52.3681 128.929 52.5821 128.951 52.8001C128.969 52.9741 128.985 53.1481 128.999 53.3221C129.001 53.3341 129.001 53.3441 129.001 53.3561C129.007 53.4221 129.013 53.4861 129.017 53.5521C129.029 53.7161 129.039 53.8821 129.047 54.0481C129.051 54.0861 129.053 54.1221 129.053 54.1601C129.063 54.3501 129.071 54.5421 129.073 54.7301C129.075 54.7661 129.077 54.8041 129.075 54.8401C129.081 55.0361 129.085 55.2341 129.085 55.4321L129.089 55.4361Z" fill="#8CC3E1"/>
</g>
<path d="M82.5023 71.4021L82.0083 70.9081L81.9843 70.8621C81.9043 70.7541 81.8263 70.6421 81.7483 70.5321C81.4423 70.0961 81.1543 69.6561 80.8903 69.2261C80.8183 69.1081 80.7443 68.9881 80.6723 68.8661C80.6463 68.8221 80.6223 68.7821 80.5983 68.7401C80.5223 68.6121 80.4483 68.4821 80.3763 68.3541C80.2083 68.0621 80.0443 67.7601 79.8943 67.4641C79.8183 67.3141 79.7423 67.1641 79.6683 67.0121C79.5943 66.8641 79.5223 66.7101 79.4483 66.5541C79.3763 66.4021 79.3043 66.2461 79.2363 66.0901C79.1703 65.9381 79.1023 65.7841 79.0363 65.6281C78.9123 65.3381 78.7883 65.0261 78.6583 64.6741C78.6003 64.5181 78.5423 64.3581 78.4843 64.1961C78.4263 64.0381 78.3703 63.8721 78.3163 63.7081C78.2643 63.5461 78.2103 63.3841 78.1603 63.2201C78.0623 62.9061 77.9643 62.5621 77.8583 62.1681C77.8223 62.0281 77.7883 61.8941 77.7563 61.7581C77.7503 61.7381 77.7443 61.7161 77.7403 61.6961C77.7083 61.5661 77.6783 61.4361 77.6463 61.3041C77.6103 61.1441 77.5783 60.9981 77.5483 60.8521C77.5003 60.6261 77.4563 60.3961 77.4143 60.1641C77.3843 60.0041 77.3563 59.8381 77.3303 59.6741C77.3083 59.5501 77.2863 59.4121 77.2683 59.2761C77.2503 59.1621 77.2343 59.0361 77.2183 58.9121C77.1823 58.6461 77.1503 58.3781 77.1223 58.1081C77.1023 57.9121 77.0863 57.7121 77.0703 57.5141L77.0563 57.3261C77.0443 57.1621 77.0363 57.0001 77.0263 56.8381C77.0263 56.8341 77.0263 56.8121 77.0243 56.7901V56.7501C77.0123 56.5381 77.0043 56.3241 76.9983 56.1101C76.9923 55.8901 76.9883 55.6601 76.9883 55.4341C76.9883 55.2381 76.9903 55.0421 76.9963 54.8461C76.9963 54.8001 76.9963 54.7541 76.9983 54.7101C77.0003 54.5181 77.0103 54.3241 77.0183 54.1321V54.0981C77.0203 54.0661 77.0223 54.0341 77.0263 54.0001C77.0343 53.8401 77.0443 53.6801 77.0563 53.5221C77.0583 53.4861 77.0623 53.4441 77.0643 53.4041L77.0763 53.2601C77.0903 53.0941 77.1043 52.9241 77.1203 52.7581L77.1283 52.6941C77.1483 52.4881 77.1723 52.2821 77.2003 52.0761C77.2203 51.9161 77.2423 51.7501 77.2663 51.5861L77.2723 51.5521C77.2743 51.5361 77.2763 51.5221 77.2783 51.5061C77.2883 51.4341 77.2983 51.3621 77.3103 51.2901C77.3303 51.1561 77.3543 51.0181 77.3803 50.8781L77.4063 50.7261C77.4403 50.5301 77.4803 50.3241 77.5223 50.1221C77.5643 49.9201 77.6063 49.7161 77.6543 49.5121L77.6603 49.4861C77.7023 49.3021 77.7463 49.1181 77.7943 48.9381L77.8563 48.7021C78.0043 48.1421 78.1583 47.6281 78.3263 47.1221C78.3623 47.0141 78.3983 46.9061 78.4363 46.7961L78.4603 46.7241C78.4803 46.6641 78.5043 46.5961 78.5303 46.5281C78.5703 46.4121 78.6163 46.2881 78.6643 46.1641C78.6783 46.1241 78.6943 46.0841 78.7103 46.0441C78.7583 45.9141 78.8143 45.7721 78.8703 45.6341C79.0783 45.1161 79.3043 44.6001 79.5423 44.1021L79.5883 44.0041C79.6363 43.9041 79.6843 43.8041 79.7343 43.7061C79.7503 43.6701 79.7683 43.6361 79.7883 43.6021C79.8463 43.4861 79.9043 43.3701 79.9663 43.2561C79.9903 43.2061 80.0243 43.1421 80.0603 43.0761C80.1263 42.9501 80.1963 42.8181 80.2703 42.6881C80.3523 42.5401 80.4403 42.3801 80.5323 42.2261C80.8043 41.7541 81.0963 41.2861 81.3963 40.8381C81.4563 40.7441 81.5243 40.6461 81.5923 40.5461L81.6243 40.5001C81.6603 40.4481 81.6943 40.3961 81.7323 40.3461C81.8103 40.2341 81.8943 40.1181 81.9783 40.0001C82.0903 39.8461 82.1943 39.7041 82.3023 39.5621C82.5163 39.2781 82.7383 38.9941 82.9583 38.7281L82.9743 38.7081C83.0623 38.6021 83.1503 38.4941 83.2403 38.3881L83.2763 38.3461C83.2943 38.3261 83.3123 38.3041 83.3303 38.2841C83.4183 38.1821 83.5183 38.0661 83.6203 37.9521L83.6803 37.8841C83.7883 37.7661 83.8943 37.6481 84.0023 37.5321C84.6243 36.8581 85.2843 36.2161 85.9643 35.6221C86.0643 35.5341 86.1643 35.4481 86.2663 35.3621C86.3003 35.3321 86.3443 35.2961 86.3863 35.2621C86.4663 35.1941 86.5563 35.1181 86.6463 35.0441C87.0943 34.6781 87.5383 34.3381 87.9803 34.0201C88.0643 33.9581 88.1563 33.8941 88.2463 33.8321C88.3523 33.7561 88.4623 33.6801 88.5723 33.6061C88.6003 33.5861 88.6283 33.5681 88.6543 33.5521C88.7763 33.4661 88.9003 33.3861 89.0263 33.3061C89.0663 33.2781 89.1083 33.2521 89.1483 33.2261L89.2023 33.1921C89.3583 33.0901 89.5143 32.9941 89.6743 32.8981C89.8503 32.7901 90.0323 32.6821 90.2183 32.5761L90.3883 32.4801C90.4863 32.4241 90.5843 32.3701 90.6823 32.3161C90.7943 32.2541 90.9123 32.1901 91.0283 32.1301L91.3223 31.9761C91.4063 31.9321 91.4923 31.8881 91.5783 31.8461L91.6923 31.7901C91.7623 31.7561 91.8323 31.7201 91.9043 31.6861L92.0023 31.6381C92.1403 31.5721 92.2683 31.5121 92.4003 31.4521C92.4383 31.4361 92.4703 31.4221 92.5023 31.4041L92.5243 31.3941C92.7103 31.3101 92.8923 31.2321 93.0803 31.1541C93.2183 31.0961 93.3583 31.0361 93.5003 30.9801C93.5363 30.9641 93.5723 30.9501 93.6063 30.9381C93.7623 30.8761 93.9183 30.8161 94.0723 30.7581L94.0983 30.7481C94.0983 30.7481 94.1143 30.7421 94.1203 30.7401C94.2403 30.6941 94.3603 30.6501 94.4823 30.6081L94.4863 30.6041L94.6183 30.5581C94.7743 30.5041 94.9183 30.4541 95.0643 30.4081C95.2143 30.3581 95.3743 30.3081 95.5323 30.2581C95.6743 30.2121 95.8303 30.1661 95.9863 30.1221C96.3923 30.0021 96.8183 29.8901 97.2423 29.7901C97.3483 29.7641 97.4563 29.7381 97.5683 29.7161C97.6983 29.6861 97.8383 29.6541 97.9803 29.6261C97.9843 29.6261 98.0063 29.6201 98.0283 29.6161L98.0523 29.6121C98.2403 29.5741 98.4103 29.5421 98.5823 29.5101L98.7203 29.4861C98.8743 29.4581 99.0203 29.4321 99.1663 29.4121L99.3883 29.3761C99.5963 29.3461 99.7903 29.3181 99.9863 29.2941C100.176 29.2701 100.376 29.2461 100.574 29.2261C100.688 29.2141 100.796 29.2041 100.904 29.1961C100.98 29.1861 101.054 29.1801 101.13 29.1741C101.264 29.1641 101.41 29.1521 101.554 29.1421C101.704 29.1301 101.862 29.1221 102.02 29.1141C102.2 29.1041 102.386 29.0981 102.572 29.0941C103.048 29.0821 103.536 29.0781 104.02 29.0921C104.226 29.0961 104.44 29.1061 104.652 29.1141H104.676C104.706 29.1161 104.728 29.1181 104.746 29.1201C104.91 29.1301 105.072 29.1381 105.234 29.1521C105.292 29.1541 105.352 29.1601 105.41 29.1641H105.43C105.624 29.1821 105.82 29.1981 106.014 29.2181C106.334 29.2521 106.578 29.2801 106.808 29.3141C106.926 29.3261 107.062 29.3461 107.2 29.3681C107.324 29.3861 107.456 29.4041 107.592 29.4281C107.744 29.4521 107.91 29.4801 108.074 29.5101C108.302 29.5521 108.532 29.5961 108.762 29.6441C108.884 29.6701 109.01 29.6981 109.136 29.7261L109.192 29.7381C109.336 29.7721 109.474 29.8041 109.614 29.8381C109.63 29.8421 109.644 29.8461 109.66 29.8501C109.798 29.8841 109.932 29.9161 110.07 29.9521C110.466 30.0581 110.81 30.1561 111.128 30.2561C111.29 30.3061 111.454 30.3601 111.616 30.4121C111.78 30.4661 111.946 30.5221 112.108 30.5801C112.262 30.6321 112.426 30.6941 112.586 30.7541C112.74 30.8101 112.902 30.8741 113.06 30.9361C113.43 31.0841 113.762 31.2241 114.074 31.3641L114.148 31.3981C114.228 31.4341 114.308 31.4701 114.388 31.5081L114.526 31.5721C114.656 31.6341 114.774 31.6901 114.892 31.7481L114.918 31.7621C115.076 31.8401 115.226 31.9161 115.374 31.9901C115.492 32.0501 115.61 32.1121 115.728 32.1761L115.822 32.2261C115.936 32.2881 116.046 32.3501 116.158 32.4121L116.322 32.5041C116.458 32.5821 116.586 32.6541 116.71 32.7301C116.85 32.8121 116.996 32.9001 117.14 32.9881C117.406 33.1521 117.684 33.3301 117.988 33.5341C118.13 33.6281 118.266 33.7221 118.402 33.8181C118.542 33.9161 118.678 34.0141 118.816 34.1121L119.382 34.5261L82.5043 71.4041L82.5023 71.4021ZM78.9103 61.4061L78.9223 61.4541C78.9563 61.5921 78.9883 61.7261 79.0243 61.8621C79.1243 62.2341 79.2183 62.5621 79.3123 62.8621C79.3603 63.0201 79.4123 63.1761 79.4623 63.3321C79.5123 63.4841 79.5643 63.6381 79.6183 63.7881C79.6743 63.9461 79.7303 64.1001 79.7883 64.2521C79.9123 64.5881 80.0283 64.8821 80.1463 65.1541C80.2123 65.3061 80.2763 65.4561 80.3423 65.6061C80.4063 65.7561 80.4743 65.9021 80.5423 66.0441C80.6103 66.1921 80.6783 66.3361 80.7503 66.4801C80.8243 66.6321 80.8963 66.7761 80.9703 66.9181C81.1103 67.1961 81.2643 67.4801 81.4283 67.7621C81.5003 67.8901 81.5683 68.0101 81.6383 68.1281L81.6483 68.1461C81.6683 68.1821 81.6883 68.2161 81.7083 68.2501C81.7763 68.3621 81.8483 68.4801 81.9183 68.5961C82.1243 68.9341 82.3483 69.2781 82.5823 69.6201L103.778 48.4241L117.534 34.6681C117.464 34.6201 117.392 34.5721 117.32 34.5221C117.03 34.3281 116.766 34.1581 116.512 34.0041C116.376 33.9201 116.236 33.8361 116.098 33.7541C115.976 33.6801 115.856 33.6121 115.738 33.5441L115.584 33.4561C115.468 33.3921 115.364 33.3321 115.258 33.2761L115.166 33.2281C115.056 33.1701 114.944 33.1101 114.832 33.0541C114.686 32.9801 114.538 32.9061 114.39 32.8321L114.37 32.8221C114.254 32.7661 114.138 32.7101 114.02 32.6541L113.882 32.5901C113.8 32.5521 113.728 32.5181 113.654 32.4861L113.582 32.4541C113.288 32.3221 112.972 32.1881 112.618 32.0481C112.47 31.9901 112.32 31.9301 112.17 31.8761C112.012 31.8161 111.86 31.7601 111.708 31.7081C111.548 31.6501 111.394 31.5981 111.242 31.5481C111.088 31.4981 110.93 31.4461 110.774 31.3981C110.47 31.3041 110.142 31.2101 109.768 31.1081C109.636 31.0741 109.502 31.0401 109.364 31.0081L109.32 30.9961C109.194 30.9641 109.062 30.9341 108.928 30.9021L108.878 30.8901C108.758 30.8641 108.64 30.8361 108.52 30.8121C108.298 30.7641 108.078 30.7241 107.862 30.6841C107.708 30.6561 107.552 30.6301 107.4 30.6061C107.268 30.5821 107.148 30.5661 107.026 30.5481C106.898 30.5281 106.782 30.5101 106.666 30.4981C106.432 30.4661 106.2 30.4381 105.896 30.4061C105.712 30.3881 105.526 30.3721 105.34 30.3581H105.318C105.27 30.3521 105.222 30.3481 105.176 30.3461H105.15C104.994 30.3321 104.836 30.3221 104.678 30.3141H104.656C104.632 30.3121 104.614 30.3101 104.596 30.3101C104.396 30.3021 104.194 30.2921 103.994 30.2881C103.522 30.2741 103.064 30.2781 102.608 30.2901C102.432 30.2941 102.256 30.3021 102.082 30.3101C101.934 30.3161 101.788 30.3261 101.642 30.3361C101.496 30.3461 101.358 30.3561 101.222 30.3681C101.156 30.3721 101.1 30.3781 101.044 30.3861L101.004 30.3901C100.906 30.3961 100.808 30.4061 100.71 30.4161C100.516 30.4361 100.326 30.4581 100.14 30.4821C99.9503 30.5041 99.7643 30.5321 99.5823 30.5581L99.3603 30.5941C99.2103 30.6161 99.0783 30.6401 98.9443 30.6641L98.8123 30.6881C98.6443 30.7201 98.4803 30.7501 98.3123 30.7841C98.3083 30.7841 98.2863 30.7901 98.2643 30.7941L98.2403 30.7981C98.0943 30.8281 97.9663 30.8561 97.8383 30.8861C97.7263 30.9101 97.6263 30.9341 97.5283 30.9581C97.1223 31.0521 96.7203 31.1601 96.3263 31.2741C96.1803 31.3141 96.0423 31.3541 95.9063 31.4001C95.7483 31.4501 95.5983 31.4941 95.4503 31.5461C95.3443 31.5801 95.2443 31.6141 95.1463 31.6481H95.1443L95.0143 31.6961C94.8603 31.7501 94.7043 31.8041 94.5523 31.8641L94.4983 31.8821C94.3483 31.9381 94.2023 31.9941 94.0563 32.0521L94.0323 32.0621C94.0123 32.0681 93.9943 32.0781 93.9743 32.0861L93.9523 32.0941C93.8183 32.1461 93.6883 32.2021 93.5563 32.2581C93.3783 32.3321 93.2083 32.4061 93.0363 32.4841C92.9923 32.5061 92.9463 32.5261 92.9023 32.5461C92.7823 32.6021 92.6583 32.6581 92.5323 32.7181L92.4383 32.7641C92.3703 32.7961 92.3043 32.8301 92.2383 32.8621L92.1163 32.9221C92.0323 32.9621 91.9563 33.0021 91.8823 33.0401L91.5943 33.1921C91.4823 33.2501 91.3783 33.3041 91.2763 33.3621C91.1763 33.4161 91.0803 33.4701 90.9843 33.5241L90.8183 33.6181C90.6503 33.7161 90.4783 33.8161 90.3083 33.9221C90.1563 34.0141 90.0103 34.1021 89.8683 34.1961L89.8063 34.2361C89.7723 34.2581 89.7403 34.2781 89.7063 34.3021L89.6823 34.3181C89.5663 34.3921 89.4503 34.4661 89.3383 34.5461L89.3023 34.5701C89.3023 34.5701 89.2843 34.5821 89.2743 34.5881L89.2483 34.6061C89.1463 34.6721 89.0443 34.7441 88.9443 34.8161C88.8503 34.8801 88.7703 34.9381 88.6923 34.9941C88.2663 35.3001 87.8423 35.6241 87.4303 35.9621C87.3363 36.0401 87.2483 36.1121 87.1623 36.1861C87.1203 36.2201 87.0883 36.2461 87.0563 36.2741C86.9523 36.3621 86.8583 36.4421 86.7663 36.5241C86.1163 37.0921 85.4883 37.7061 84.8943 38.3481C84.7883 38.4621 84.6843 38.5781 84.5803 38.6921L84.5283 38.7501C84.4263 38.8621 84.3343 38.9721 84.2403 39.0821L84.2063 39.1201C84.1923 39.1361 84.1783 39.1541 84.1643 39.1701C84.0803 39.2701 83.9963 39.3721 83.9143 39.4721L83.8943 39.4961C83.6843 39.7501 83.4743 40.0161 83.2683 40.2921C83.1623 40.4301 83.0643 40.5641 82.9683 40.6981C82.8803 40.8181 82.8023 40.9281 82.7243 41.0401C82.6863 41.0921 82.6563 41.1381 82.6243 41.1841L82.5923 41.2321C82.5303 41.3221 82.4703 41.4121 82.4103 41.5061C82.1203 41.9381 81.8423 42.3821 81.5803 42.8361C81.4923 42.9861 81.4083 43.1341 81.3283 43.2801C81.2563 43.4061 81.1923 43.5261 81.1303 43.6461L81.1203 43.6661C81.0923 43.7141 81.0683 43.7621 81.0423 43.8141C80.9763 43.9361 80.9223 44.0441 80.8683 44.1521L80.8483 44.1901C80.8483 44.1901 80.8383 44.2101 80.8323 44.2201L80.8243 44.2381C80.7763 44.3341 80.7303 44.4321 80.6823 44.5281L80.6363 44.6261C80.4083 45.1001 80.1943 45.5901 79.9963 46.0841C79.9443 46.2161 79.8903 46.3501 79.8403 46.4841C79.8263 46.5181 79.8163 46.5421 79.8103 46.5641L79.8003 46.5921C79.7563 46.7061 79.7123 46.8221 79.6723 46.9381C79.6483 47.0041 79.6283 47.0581 79.6103 47.1141L79.5823 47.1941C79.5463 47.2981 79.5103 47.4001 79.4763 47.5021C79.3143 47.9861 79.1683 48.4781 79.0283 49.0081L78.9683 49.2381C78.9243 49.4081 78.8823 49.5821 78.8443 49.7541L78.8383 49.7781C78.7943 49.9741 78.7523 50.1701 78.7123 50.3661C78.6723 50.5581 78.6363 50.7501 78.6023 50.9381L78.5743 51.0921C78.5503 51.2261 78.5283 51.3501 78.5083 51.4781C78.4963 51.5461 78.4863 51.6121 78.4783 51.6761L78.4723 51.7161C78.4703 51.7321 78.4683 51.7481 78.4643 51.7641C78.4423 51.9201 78.4203 52.0761 78.4023 52.2321C78.3763 52.4341 78.3543 52.6301 78.3343 52.8261L78.3263 52.8841C78.3123 53.0381 78.2983 53.1961 78.2843 53.3501L78.2643 53.6041C78.2523 53.7621 78.2423 53.9181 78.2363 54.0721L78.2323 54.1141C78.2323 54.1261 78.2323 54.1381 78.2323 54.1481V54.1981C78.2223 54.3741 78.2123 54.5581 78.2103 54.7421V54.7721C78.2083 54.7861 78.2063 54.8001 78.2063 54.8141V54.8421V54.8681C78.2003 55.0581 78.1983 55.2461 78.1983 55.4361C78.1983 55.6501 78.2003 55.8681 78.2063 56.0801C78.2103 56.2881 78.2203 56.4901 78.2283 56.6901C78.2283 56.7061 78.2283 56.7221 78.2303 56.7381V56.7721C78.2403 56.9301 78.2503 57.0841 78.2603 57.2421L78.2743 57.4221C78.2903 57.6081 78.3043 57.7961 78.3243 57.9861C78.3503 58.2461 78.3803 58.5001 78.4163 58.7641C78.4303 58.8861 78.4443 58.9961 78.4623 59.1021C78.4803 59.2341 78.5003 59.3581 78.5223 59.4801C78.5483 59.6421 78.5743 59.7981 78.6023 59.9501C78.6423 60.1721 78.6843 60.3901 78.7303 60.6081C78.7603 60.7501 78.7903 60.8881 78.8203 61.0241C78.8523 61.1581 78.8803 61.2821 78.9123 61.4081L78.9103 61.4061ZM78.2723 53.4241V53.4321C78.2723 53.4321 78.2723 53.4261 78.2723 53.4241ZM77.0863 53.2361C77.0863 53.2361 77.0863 53.2421 77.0863 53.2441V53.2361Z" fill="#8CC3E1"/>
<path d="M103.342 81.7801C103.122 81.7801 102.898 81.7781 102.678 81.7701H102.648C102.422 81.7641 102.216 81.7561 102.012 81.7461H101.982C101.768 81.7341 101.556 81.7221 101.344 81.7061H101.304C101.09 81.6841 100.878 81.6661 100.668 81.6461L100.626 81.6401C100.626 81.6401 100.622 81.6401 100.618 81.6401C100.408 81.6201 100.196 81.5941 99.9855 81.5681C99.8375 81.5501 99.6875 81.5301 99.5395 81.5061C99.4975 81.5021 99.4415 81.4941 99.3855 81.4841C99.2775 81.4701 99.1735 81.4521 99.0675 81.4341C98.9775 81.4201 98.8735 81.4041 98.7695 81.3841C98.7155 81.3761 98.6575 81.3661 98.6015 81.3541C98.4115 81.3201 98.2215 81.2841 98.0315 81.2441C97.8475 81.2081 97.6595 81.1661 97.4755 81.1241L97.3655 81.0981C97.3215 81.0881 97.2795 81.0781 97.2355 81.0681C97.1155 81.0421 96.9995 81.0121 96.8815 80.9801C96.8055 80.9621 96.7135 80.9381 96.6235 80.9141C96.2435 80.8141 95.9115 80.7201 95.6095 80.6261C95.4595 80.5801 95.3075 80.5321 95.1535 80.4801C95.0215 80.4381 94.8775 80.3901 94.7355 80.3401C94.6975 80.3261 94.6595 80.3141 94.6235 80.3021C94.3555 80.2081 94.0935 80.1101 93.8115 80.0001C93.6795 79.9501 93.5415 79.8961 93.4075 79.8381C93.2915 79.7921 93.1635 79.7381 93.0375 79.6861C92.9075 79.6301 92.7855 79.5781 92.6615 79.5221C92.4535 79.4281 92.2515 79.3381 92.0495 79.2421C91.9135 79.1761 91.7815 79.1121 91.6475 79.0461C91.5095 78.9781 91.3675 78.9061 91.2295 78.8341C90.9395 78.6821 90.6595 78.5321 90.3975 78.3821L90.1115 78.2181C89.9955 78.1521 89.8815 78.0861 89.7675 78.0141C89.4635 77.8321 89.1315 77.6241 88.7975 77.4021L88.1875 76.9961L124.904 40.2761L125.31 40.8841C125.402 41.0221 125.494 41.1641 125.584 41.3041C125.786 41.6241 125.976 41.9381 126.152 42.2421L126.166 42.2661C126.24 42.3961 126.313 42.5241 126.388 42.6561C126.396 42.6721 126.404 42.6841 126.412 42.6981L126.432 42.7321C126.498 42.8521 126.562 42.9721 126.626 43.0941L126.722 43.2781C126.764 43.3561 126.81 43.4441 126.854 43.5321L126.866 43.5561C126.892 43.6081 126.912 43.6481 126.932 43.6881L127.026 43.8801C127.068 43.9681 127.112 44.0541 127.152 44.1421C127.226 44.2941 127.3 44.4581 127.376 44.6221C127.45 44.7841 127.52 44.9481 127.592 45.1101C127.654 45.2581 127.71 45.3961 127.766 45.5341L127.782 45.5701C127.792 45.5921 127.802 45.6141 127.81 45.6361L127.954 46.0061C127.976 46.0621 128.002 46.1261 128.024 46.1901C128.08 46.3341 128.132 46.4801 128.184 46.6281C128.242 46.7921 128.302 46.9641 128.358 47.1361C128.534 47.6681 128.692 48.1941 128.824 48.6981L128.886 48.9361C128.932 49.1181 128.976 49.3001 129.018 49.4801L129.026 49.5101C129.07 49.7001 129.11 49.8881 129.148 50.0801C129.156 50.1141 129.162 50.1461 129.168 50.1801C129.206 50.3661 129.242 50.5541 129.276 50.7401C129.282 50.7661 129.286 50.7961 129.29 50.8281C129.314 50.9621 129.336 51.0981 129.358 51.2321L129.372 51.3141C129.382 51.3761 129.392 51.4381 129.4 51.4981C129.428 51.6801 129.454 51.8761 129.478 52.0741C129.506 52.2941 129.532 52.5121 129.554 52.7321C129.572 52.9041 129.588 53.0781 129.602 53.2501C129.606 53.2741 129.606 53.2981 129.608 53.3141C129.614 53.3781 129.618 53.4421 129.624 53.5041C129.636 53.6681 129.646 53.8301 129.654 53.9961C129.658 54.0441 129.662 54.0901 129.662 54.1381C129.67 54.3261 129.68 54.5161 129.682 54.7041C129.684 54.7481 129.686 54.7941 129.684 54.8381C129.69 55.0341 129.692 55.2321 129.692 55.4281C129.692 69.9541 117.874 81.7741 103.346 81.7741L103.342 81.7801ZM102.696 80.5721C102.922 80.5781 103.134 80.5801 103.342 80.5801C117.208 80.5801 128.487 69.3001 128.487 55.4341C128.487 55.2441 128.488 55.0541 128.48 54.8641V54.8341V54.8041C128.48 54.7961 128.48 54.7821 128.478 54.7701V54.7401C128.474 54.5581 128.466 54.3721 128.458 54.1901V54.1621C128.458 54.1481 128.458 54.1341 128.454 54.1201L128.45 54.0741C128.444 53.9121 128.432 53.7541 128.422 53.5941C128.418 53.5361 128.414 53.4781 128.408 53.4181L128.404 53.3681C128.39 53.2001 128.376 53.0301 128.358 52.8621C128.336 52.6501 128.312 52.4401 128.284 52.2301C128.26 52.0421 128.236 51.8541 128.208 51.6681C128.2 51.6061 128.192 51.5601 128.184 51.5141L128.17 51.4301C128.148 51.2961 128.126 51.1581 128.102 51.0241L128.096 50.9761C128.058 50.7801 128.024 50.5961 127.986 50.4161L127.982 50.3921C127.982 50.3801 127.978 50.3701 127.976 50.3581L127.97 50.3321C127.932 50.1481 127.894 49.9641 127.852 49.7801L127.846 49.7561C127.806 49.5841 127.764 49.4121 127.72 49.2401L127.66 49.0061C127.536 48.5281 127.386 48.0261 127.216 47.5161C127.162 47.3501 127.106 47.1901 127.05 47.0301C127 46.8861 126.952 46.7521 126.9 46.6181L126.892 46.5981C126.874 46.5481 126.856 46.5001 126.836 46.4521L126.678 46.0501C126.668 46.0281 126.658 46.0061 126.65 45.9841C126.598 45.8521 126.542 45.7201 126.486 45.5861C126.42 45.4381 126.352 45.2781 126.28 45.1201C126.21 44.9661 126.14 44.8121 126.066 44.6601C126.024 44.5701 125.986 44.4901 125.946 44.4101L125.858 44.2341C125.834 44.1881 125.812 44.1421 125.79 44.0961L125.784 44.0841C125.742 44.0041 125.7 43.9221 125.658 43.8421L125.56 43.6521C125.504 43.5441 125.446 43.4361 125.386 43.3281C125.368 43.2981 125.35 43.2681 125.334 43.2361C125.266 43.1141 125.196 42.9921 125.126 42.8681L125.114 42.8461C124.984 42.6241 124.85 42.4001 124.708 42.1701L90.0795 76.8001C90.1875 76.8661 90.2935 76.9321 90.3975 76.9941C90.5115 77.0661 90.6095 77.1221 90.7075 77.1781L90.9895 77.3401C91.2375 77.4821 91.5035 77.6261 91.7795 77.7701C91.9095 77.8381 92.0435 77.9061 92.1775 77.9721C92.3095 78.0381 92.4375 78.1001 92.5655 78.1621C92.7555 78.2521 92.9515 78.3401 93.1455 78.4281C93.2675 78.4841 93.3835 78.5341 93.5015 78.5841C93.6195 78.6341 93.7415 78.6841 93.8615 78.7321C93.9935 78.7881 94.1175 78.8361 94.2415 78.8841C94.5155 78.9921 94.7655 79.0841 95.0095 79.1701C95.0435 79.1821 95.0875 79.1961 95.1295 79.2101C95.2575 79.2541 95.3895 79.3001 95.5215 79.3401C95.6755 79.3921 95.8175 79.4381 95.9615 79.4801C96.2495 79.5701 96.5675 79.6601 96.9335 79.7561C97.0155 79.7781 97.0935 79.7981 97.1735 79.8181C97.2915 79.8501 97.3935 79.8741 97.4955 79.8981C97.5435 79.9081 97.5935 79.9201 97.6415 79.9321L97.7395 79.9541C97.9135 79.9941 98.0915 80.0321 98.2675 80.0681C98.4535 80.1061 98.6375 80.1421 98.8215 80.1741L98.8435 80.1781C98.8795 80.1861 98.9175 80.1921 98.9515 80.1981L98.9875 80.2041C99.0795 80.2221 99.1735 80.2361 99.2655 80.2521C99.3715 80.2721 99.4615 80.2861 99.5535 80.2981L99.5755 80.3021C99.6175 80.3101 99.6615 80.3141 99.7055 80.3201C99.8595 80.3441 99.9955 80.3621 100.134 80.3781C100.34 80.4041 100.544 80.4281 100.746 80.4481L100.788 80.4541C100.788 80.4541 100.792 80.4541 100.796 80.4541C100.99 80.4721 101.186 80.4901 101.38 80.5061C101.4 80.5061 101.424 80.5061 101.452 80.5121C101.642 80.5261 101.834 80.5361 102.026 80.5461H102.056C102.256 80.5581 102.46 80.5641 102.664 80.5721H102.694H102.696Z" fill="#8CC3E1"/>
<g opacity="0.25">
<path d="M80.9046 68.0659C80.7426 67.7799 80.5846 67.4879 80.4326 67.1939C80.5806 67.4879 80.7386 67.7779 80.9046 68.0659ZM79.5926 65.3939C79.4646 65.0879 79.3426 64.7779 79.2246 64.4659C79.3406 64.7779 79.4606 65.0879 79.5926 65.3939Z" fill="#8CC3E1"/>
</g>
<g opacity="0.75">
<path d="M136.923 48.8541C133.855 33.1061 119.985 21.2181 103.341 21.2181C86.697 21.2181 72.825 33.1061 69.757 48.8541C69.341 50.9821 69.125 53.1821 69.125 55.4341C69.125 74.3281 84.445 89.6481 103.341 89.6481C122.237 89.6481 137.555 74.3281 137.555 55.4341C137.555 53.1821 137.339 50.9821 136.923 48.8541ZM82.497 70.5461C82.409 70.4281 82.325 70.3101 82.243 70.1901C81.951 69.7741 81.673 69.3501 81.405 68.9161C81.329 68.7981 81.259 68.6801 81.189 68.5601C81.167 68.5221 81.143 68.4841 81.121 68.4421C81.045 68.3181 80.973 68.1921 80.905 68.0661C80.741 67.7801 80.583 67.4881 80.433 67.1941C80.357 67.0481 80.281 66.9001 80.211 66.7521C80.137 66.6041 80.065 66.4541 79.997 66.3021C79.925 66.1541 79.855 66.0021 79.791 65.8501C79.723 65.6961 79.657 65.5461 79.593 65.3921C79.463 65.0881 79.341 64.7761 79.225 64.4641C79.165 64.3081 79.107 64.1501 79.053 63.9921C78.995 63.8361 78.941 63.6781 78.891 63.5181C78.837 63.3601 78.785 63.2001 78.737 63.0401C78.631 62.7001 78.533 62.3561 78.441 62.0101C78.405 61.8721 78.369 61.7321 78.337 61.5921C78.333 61.5801 78.331 61.5701 78.327 61.5581C78.293 61.4241 78.259 61.2901 78.229 61.1521C78.197 61.0101 78.165 60.8701 78.137 60.7281C78.089 60.5041 78.047 60.2821 78.007 60.0561C77.977 59.8981 77.951 59.7401 77.925 59.5801C77.903 59.4521 77.883 59.3221 77.865 59.1921C77.849 59.0761 77.831 58.9601 77.817 58.8421C77.781 58.5781 77.749 58.3141 77.723 58.0461C77.705 57.8541 77.687 57.6581 77.671 57.4641L77.657 57.2821C77.645 57.1221 77.637 56.9641 77.627 56.8041C77.625 56.7761 77.625 56.7521 77.623 56.7261C77.613 56.5181 77.605 56.3081 77.601 56.0981C77.595 55.8761 77.591 55.6561 77.591 55.4341C77.591 55.2381 77.593 55.0421 77.601 54.8461C77.599 54.8081 77.601 54.7701 77.603 54.7341C77.605 54.5421 77.615 54.3521 77.623 54.1641C77.625 54.1261 77.625 54.0881 77.629 54.0461C77.635 53.8861 77.647 53.7261 77.659 53.5681C77.663 53.4941 77.669 53.4221 77.675 53.3461C77.675 53.3401 77.677 53.3321 77.677 53.3261C77.691 53.1541 77.707 52.9861 77.723 52.8161C77.725 52.8001 77.727 52.7821 77.729 52.7661C77.749 52.5621 77.771 52.3601 77.799 52.1561C77.819 51.9941 77.841 51.8321 77.865 51.6681C77.869 51.6461 77.871 51.6201 77.877 51.5981C77.887 51.5281 77.897 51.4561 77.909 51.3861C77.929 51.2521 77.951 51.1201 77.977 50.9881C77.987 50.9361 77.995 50.8841 78.005 50.8341C78.039 50.6361 78.077 50.4401 78.117 50.2421C78.157 50.0421 78.201 49.8421 78.245 49.6441C78.247 49.6341 78.249 49.6261 78.251 49.6161C78.291 49.4381 78.335 49.2621 78.379 49.0861C78.399 49.0081 78.419 48.9301 78.439 48.8521C78.577 48.3321 78.727 47.8201 78.897 47.3141C78.939 47.1841 78.985 47.0521 79.031 46.9241C79.051 46.8641 79.073 46.8021 79.097 46.7421C79.139 46.6181 79.185 46.4961 79.233 46.3741C79.245 46.3401 79.257 46.3061 79.271 46.2721C79.323 46.1341 79.375 45.9961 79.431 45.8621C79.635 45.3541 79.853 44.8561 80.087 44.3661C80.147 44.2321 80.213 44.1021 80.279 43.9721C80.293 43.9421 80.307 43.9161 80.321 43.8881C80.377 43.7721 80.437 43.6581 80.497 43.5441C80.527 43.4861 80.555 43.4281 80.587 43.3721C80.653 43.2441 80.723 43.1141 80.795 42.9881C80.877 42.8341 80.963 42.6861 81.053 42.5341C81.319 42.0721 81.601 41.6181 81.899 41.1761C81.959 41.0781 82.023 40.9841 82.091 40.8901C82.137 40.8241 82.179 40.7621 82.225 40.6981C82.305 40.5801 82.387 40.4661 82.473 40.3501C82.573 40.2101 82.677 40.0701 82.783 39.9321C82.991 39.6541 83.205 39.3821 83.427 39.1161C83.517 39.0041 83.613 38.8881 83.707 38.7781C83.731 38.7501 83.755 38.7221 83.779 38.6941C83.873 38.5821 83.973 38.4681 84.073 38.3581C84.089 38.3401 84.105 38.3221 84.119 38.3061C84.227 38.1841 84.337 38.0621 84.451 37.9421C85.059 37.2861 85.697 36.6621 86.367 36.0761C86.461 35.9901 86.559 35.9061 86.659 35.8261C86.697 35.7921 86.735 35.7601 86.771 35.7321C86.863 35.6501 86.957 35.5741 87.049 35.5001C87.469 35.1581 87.897 34.8281 88.337 34.5121C88.421 34.4521 88.507 34.3901 88.591 34.3321C88.699 34.2561 88.807 34.1781 88.919 34.1061C88.943 34.0881 88.969 34.0721 88.991 34.0581C89.113 33.9721 89.237 33.8921 89.363 33.8121C89.421 33.7721 89.481 33.7361 89.539 33.6961C89.687 33.6021 89.839 33.5061 89.993 33.4141C90.169 33.3061 90.347 33.2021 90.525 33.0981C90.679 33.0121 90.829 32.9261 90.981 32.8441C91.089 32.7841 91.199 32.7241 91.311 32.6681C91.379 32.6321 91.447 32.5961 91.515 32.5601C91.625 32.5041 91.737 32.4441 91.849 32.3901C91.889 32.3701 91.931 32.3501 91.971 32.3301C92.073 32.2801 92.175 32.2301 92.275 32.1821C92.401 32.1221 92.529 32.0621 92.659 32.0041C92.699 31.9861 92.741 31.9681 92.781 31.9481C92.959 31.8701 93.139 31.7901 93.323 31.7141C93.461 31.6561 93.599 31.5981 93.739 31.5421C93.771 31.5281 93.803 31.5141 93.833 31.5041C93.989 31.4441 94.143 31.3821 94.301 31.3241C94.315 31.3201 94.325 31.3141 94.335 31.3121C94.495 31.2521 94.657 31.1921 94.821 31.1361C94.823 31.1341 94.825 31.1341 94.827 31.1321C94.971 31.0821 95.115 31.0321 95.263 30.9861C95.417 30.9341 95.569 30.8861 95.723 30.8401C95.867 30.7921 96.015 30.7501 96.161 30.7101C96.567 30.5901 96.977 30.4821 97.393 30.3861C97.497 30.3621 97.603 30.3361 97.707 30.3141C97.841 30.2821 97.975 30.2541 98.111 30.2261C98.141 30.2201 98.169 30.2141 98.199 30.2081C98.365 30.1741 98.535 30.1421 98.705 30.1101C98.753 30.1001 98.797 30.0941 98.845 30.0861C98.985 30.0621 99.125 30.0381 99.265 30.0161C99.345 30.0021 99.423 29.9921 99.501 29.9781C99.691 29.9501 99.877 29.9241 100.067 29.9021C100.259 29.8781 100.453 29.8541 100.647 29.8341C100.755 29.8221 100.863 29.8121 100.971 29.8041C101.041 29.7941 101.109 29.7881 101.179 29.7841C101.319 29.7721 101.461 29.7621 101.603 29.7521C101.755 29.7401 101.905 29.7321 102.057 29.7241C102.237 29.7141 102.415 29.7081 102.597 29.7041C102.845 29.6981 103.095 29.6921 103.347 29.6921C103.571 29.6921 103.791 29.6941 104.013 29.7021C104.223 29.7061 104.431 29.7161 104.639 29.7241C104.667 29.7261 104.693 29.7261 104.717 29.7281C104.881 29.7381 105.045 29.7461 105.207 29.7601C105.261 29.7621 105.317 29.7661 105.371 29.7721C105.569 29.7881 105.765 29.8041 105.963 29.8241C106.221 29.8521 106.477 29.8801 106.735 29.9161C106.861 29.9301 106.987 29.9481 107.115 29.9681C107.243 29.9861 107.369 30.0041 107.499 30.0261C107.659 30.0501 107.817 30.0781 107.975 30.1081C108.199 30.1481 108.425 30.1921 108.647 30.2381C108.789 30.2681 108.929 30.2981 109.071 30.3301C109.207 30.3601 109.341 30.3941 109.477 30.4281C109.487 30.4301 109.497 30.4321 109.511 30.4381C109.651 30.4701 109.789 30.5061 109.929 30.5421C110.275 30.6341 110.617 30.7321 110.959 30.8381C111.119 30.8861 111.279 30.9381 111.437 30.9921C111.595 31.0421 111.753 31.0961 111.911 31.1541C112.069 31.2081 112.227 31.2641 112.383 31.3261C112.539 31.3821 112.695 31.4421 112.847 31.5041C113.181 31.6381 113.511 31.7741 113.837 31.9221C113.937 31.9641 114.037 32.0121 114.137 32.0601C114.187 32.0821 114.235 32.1061 114.283 32.1281C114.411 32.1861 114.537 32.2481 114.665 32.3101C114.813 32.3821 114.963 32.4561 115.109 32.5341C115.255 32.6081 115.403 32.6881 115.547 32.7641C115.659 32.8241 115.773 32.8861 115.885 32.9521C115.933 32.9801 115.983 33.0061 116.029 33.0341C116.155 33.1041 116.281 33.1761 116.405 33.2521C116.547 33.3341 116.689 33.4161 116.829 33.5061C117.109 33.6781 117.385 33.8561 117.657 34.0381C117.795 34.1261 117.931 34.2181 118.063 34.3161C118.199 34.4061 118.331 34.5041 118.465 34.6021L104.205 48.8621L82.505 70.5621C82.505 70.5621 82.503 70.5581 82.501 70.5561L82.497 70.5461ZM103.341 81.1781C103.125 81.1781 102.909 81.1761 102.695 81.1681H102.645C102.437 81.1641 102.229 81.1541 102.025 81.1441H102.011C101.803 81.1321 101.593 81.1221 101.385 81.1061C101.375 81.1041 101.365 81.1041 101.351 81.1041C101.141 81.0861 100.931 81.0681 100.721 81.0481C100.709 81.0461 100.701 81.0461 100.689 81.0441C100.479 81.0241 100.269 80.9981 100.059 80.9721C99.915 80.9541 99.773 80.9361 99.631 80.9141C99.577 80.9081 99.525 80.9001 99.473 80.8921C99.373 80.8781 99.273 80.8621 99.173 80.8441C99.071 80.8281 98.969 80.8121 98.869 80.7921C98.819 80.7861 98.767 80.7761 98.715 80.7641C98.525 80.7301 98.335 80.6941 98.149 80.6561C97.969 80.6201 97.785 80.5801 97.605 80.5381C97.527 80.5201 97.445 80.5001 97.363 80.4821C97.253 80.4541 97.141 80.4281 97.033 80.4001C96.947 80.3801 96.863 80.3581 96.779 80.3341C96.445 80.2461 96.113 80.1541 95.787 80.0521C95.639 80.0061 95.489 79.9601 95.343 79.9101C95.205 79.8681 95.067 79.8201 94.931 79.7721C94.893 79.7581 94.851 79.7441 94.811 79.7321C94.547 79.6401 94.287 79.5421 94.027 79.4401C93.897 79.3901 93.765 79.3381 93.637 79.2841C93.513 79.2341 93.389 79.1821 93.265 79.1301C93.143 79.0781 93.023 79.0261 92.903 78.9721C92.703 78.8821 92.501 78.7921 92.303 78.6961C92.173 78.6361 92.039 78.5721 91.911 78.5041C91.773 78.4381 91.635 78.3681 91.501 78.2961C91.227 78.1561 90.957 78.0101 90.691 77.8561C90.597 77.8041 90.501 77.7501 90.407 77.6941C90.301 77.6301 90.195 77.5701 90.089 77.5041C89.765 77.3101 89.443 77.1061 89.127 76.8961L117.171 48.8501L124.807 41.2141C124.899 41.3501 124.987 41.4881 125.075 41.6241C125.265 41.9261 125.449 42.2321 125.631 42.5401C125.709 42.6741 125.785 42.8061 125.859 42.9421C125.873 42.9661 125.887 42.9921 125.901 43.0161C125.965 43.1321 126.027 43.2481 126.089 43.3661C126.121 43.4261 126.153 43.4881 126.183 43.5481C126.235 43.6381 126.283 43.7301 126.327 43.8261C126.359 43.8921 126.393 43.9561 126.427 44.0241C126.487 44.1461 126.547 44.2681 126.603 44.3901C126.681 44.5481 126.755 44.7081 126.825 44.8661C126.897 45.0261 126.967 45.1861 127.037 45.3461C127.093 45.4801 127.149 45.6141 127.203 45.7521C127.217 45.7861 127.233 45.8201 127.245 45.8541C127.295 45.9761 127.343 46.0981 127.387 46.2201C127.409 46.2761 127.433 46.3361 127.453 46.3941C127.507 46.5341 127.559 46.6761 127.609 46.8201C127.669 46.9841 127.727 47.1521 127.781 47.3181C127.947 47.8221 128.101 48.3321 128.237 48.8481C128.257 48.9261 128.277 49.0041 128.297 49.0821C128.343 49.2581 128.385 49.4341 128.425 49.6121C128.427 49.6221 128.429 49.6301 128.431 49.6401C128.473 49.8281 128.515 50.0161 128.553 50.2061C128.559 50.2341 128.565 50.2601 128.569 50.2881C128.609 50.4741 128.643 50.6581 128.677 50.8461C128.681 50.8681 128.687 50.8921 128.689 50.9141C128.719 51.0781 128.747 51.2461 128.773 51.4101C128.783 51.4641 128.791 51.5181 128.797 51.5721C128.827 51.7641 128.853 51.9581 128.875 52.1501C128.905 52.3641 128.929 52.5781 128.949 52.7961C128.967 52.9701 128.983 53.1441 128.997 53.3181C128.999 53.3301 128.999 53.3401 128.999 53.3521C129.005 53.4181 129.011 53.4821 129.015 53.5481C129.029 53.7121 129.037 53.8781 129.045 54.0441C129.049 54.0821 129.051 54.1181 129.051 54.1561C129.063 54.3461 129.069 54.5361 129.071 54.7261C129.073 54.7621 129.075 54.8001 129.073 54.8361C129.079 55.0321 129.083 55.2281 129.083 55.4281C129.083 69.6441 117.559 81.1741 103.337 81.1741L103.341 81.1781Z" fill="#8CC3E1"/>
</g>
<path d="M103.341 90.25C84.1434 90.25 68.5254 74.632 68.5254 55.436C68.5254 53.18 68.7414 50.928 69.1674 48.74C72.3434 32.446 86.7154 20.618 103.341 20.618C119.967 20.618 134.337 32.444 137.513 48.74C137.939 50.926 138.155 53.178 138.155 55.434C138.155 74.63 122.537 90.248 103.341 90.248V90.25ZM103.341 21.82C87.2874 21.82 73.4114 33.238 70.3454 48.97C69.9334 51.082 69.7254 53.256 69.7254 55.436C69.7254 73.97 84.8054 89.05 103.341 89.05C121.877 89.05 136.955 73.97 136.955 55.436C136.955 53.256 136.747 51.082 136.335 48.97C133.269 33.238 119.393 21.818 103.341 21.818V21.82Z" fill="#8CC3E1"/>
<path d="M167.092 87.094H137.248C136.916 87.094 136.648 86.826 136.648 86.494C136.648 86.162 136.916 85.894 137.248 85.894H167.092C167.424 85.894 167.692 86.162 167.692 86.494C167.692 86.826 167.424 87.094 167.092 87.094Z" fill="#8CC3E1"/>
<path d="M148.602 93.566H137.248C136.916 93.566 136.648 93.298 136.648 92.966C136.648 92.634 136.916 92.366 137.248 92.366H148.602C148.934 92.366 149.202 92.634 149.202 92.966C149.202 93.298 148.934 93.566 148.602 93.566Z" fill="#8CC3E1"/>
<path d="M80.4562 93.566H52.0902C51.7582 93.566 51.4902 93.298 51.4902 92.966C51.4902 92.634 51.7582 92.366 52.0902 92.366H80.4562C80.7882 92.366 81.0562 92.634 81.0562 92.966C81.0562 93.298 80.7882 93.566 80.4562 93.566Z" fill="#8CC3E1"/>
<path d="M64.0303 87.094H52.0883C51.7563 87.094 51.4883 86.826 51.4883 86.494C51.4883 86.162 51.7563 85.894 52.0883 85.894H64.0303C64.3623 85.894 64.6303 86.162 64.6303 86.494C64.6303 86.826 64.3623 87.094 64.0303 87.094Z" fill="#8CC3E1"/>
<path d="M64.0303 80.624H52.0883C51.7563 80.624 51.4883 80.356 51.4883 80.024C51.4883 79.692 51.7563 79.424 52.0883 79.424H64.0303C64.3623 79.424 64.6303 79.692 64.6303 80.024C64.6303 80.356 64.3623 80.624 64.0303 80.624Z" fill="#8CC3E1"/>
<path d="M65.984 117.402H36.6C36.268 117.402 36 117.134 36 116.802C36 116.47 36.268 116.202 36.6 116.202H65.984C66.316 116.202 66.584 116.47 66.584 116.802C66.584 117.134 66.316 117.402 65.984 117.402Z" fill="#8CC3E1"/>
<path d="M49.908 122.62H36.6C36.268 122.62 36 122.352 36 122.02C36 121.688 36.268 121.42 36.6 121.42H49.908C50.24 121.42 50.508 121.688 50.508 122.02C50.508 122.352 50.24 122.62 49.908 122.62Z" fill="#8CC3E1"/>
<path d="M147.162 141.772H79.0863C78.7543 141.772 78.4863 141.504 78.4863 141.172C78.4863 140.84 78.7543 140.572 79.0863 140.572H147.162C147.494 140.572 147.762 140.84 147.762 141.172C147.762 141.504 147.494 141.772 147.162 141.772Z" fill="#8CC3E1"/>
<path d="M124.346 148.226H79.0844C78.7524 148.226 78.4844 147.958 78.4844 147.626C78.4844 147.294 78.7524 147.026 79.0844 147.026H124.346C124.678 147.026 124.946 147.294 124.946 147.626C124.946 147.958 124.678 148.226 124.346 148.226Z" fill="#8CC3E1"/>
<g opacity="0.5">
<path d="M62.4174 175.354C62.9074 175.844 62.9074 176.64 62.4174 177.13L60.6234 178.93C60.1294 179.42 59.3334 179.42 58.8434 178.93L53.9074 173.99C53.4174 173.5 52.6214 173.5 52.1314 173.99L47.1954 178.926C46.7054 179.416 45.9094 179.416 45.4194 178.926L43.6254 177.132C43.1354 176.642 43.1354 175.846 43.6254 175.356L48.5614 170.42C49.0514 169.93 49.0514 169.134 48.5614 168.644L43.6214 163.708C43.1314 163.218 43.1314 162.422 43.6214 161.928L45.4214 160.134C45.9114 159.644 46.7074 159.644 47.1974 160.134L52.1334 165.07C52.6274 165.56 53.4194 165.56 53.9134 165.07L58.8494 160.134C59.3394 159.644 60.1354 159.644 60.6254 160.134L62.4194 161.928C62.9094 162.418 62.9094 163.214 62.4194 163.704L57.4834 168.64C56.9934 169.134 56.9934 169.926 57.4834 170.42L62.4194 175.356L62.4174 175.354Z" fill="#8CC3E1"/>
</g>
<g opacity="0.5">
<path d="M99.3295 172.522C99.5815 172.774 99.5815 173.182 99.3295 173.434L98.4075 174.358C98.1535 174.61 97.7435 174.61 97.4915 174.358L94.9535 171.818C94.7015 171.566 94.2935 171.566 94.0415 171.818L91.5035 174.356C91.2515 174.608 90.8435 174.608 90.5915 174.356L89.6695 173.434C89.4175 173.182 89.4175 172.774 89.6695 172.522L92.2075 169.984C92.4595 169.732 92.4595 169.324 92.2075 169.072L89.6675 166.534C89.4155 166.282 89.4155 165.874 89.6675 165.618L90.5915 164.696C90.8435 164.444 91.2515 164.444 91.5035 164.696L94.0415 167.234C94.2955 167.486 94.7015 167.486 94.9575 167.234L97.4955 164.696C97.7475 164.444 98.1555 164.444 98.4075 164.696L99.3295 165.618C99.5815 165.87 99.5815 166.278 99.3295 166.53L96.7915 169.068C96.5395 169.322 96.5395 169.728 96.7915 169.984L99.3295 172.522Z" fill="#8CC3E1"/>
</g>
<g opacity="0.5">
<path d="M67.6166 35.7001C67.8686 35.9521 67.8686 36.3601 67.6166 36.6121L66.6946 37.5361C66.4406 37.7881 66.0306 37.7881 65.7786 37.5361L63.2406 34.9961C62.9886 34.7441 62.5806 34.7441 62.3286 34.9961L59.7906 37.5341C59.5386 37.7861 59.1306 37.7861 58.8786 37.5341L57.9566 36.6121C57.7046 36.3601 57.7046 35.9521 57.9566 35.7001L60.4946 33.1621C60.7466 32.9101 60.7466 32.5021 60.4946 32.2501L57.9546 29.7121C57.7026 29.4601 57.7026 29.0521 57.9546 28.7961L58.8786 27.8741C59.1306 27.6221 59.5386 27.6221 59.7906 27.8741L62.3286 30.4121C62.5826 30.6641 62.9886 30.6641 63.2446 30.4121L65.7826 27.8741C66.0346 27.6221 66.4426 27.6221 66.6946 27.8741L67.6166 28.7961C67.8686 29.0481 67.8686 29.4561 67.6166 29.7081L65.0786 32.2461C64.8266 32.5001 64.8266 32.9061 65.0786 33.1621L67.6166 35.7001Z" fill="#8CC3E1"/>
</g>
<g opacity="0.5">
<path d="M148.482 33.404C148.644 33.566 148.644 33.83 148.482 33.992L147.888 34.588C147.724 34.75 147.462 34.75 147.3 34.588L145.668 32.954C145.506 32.792 145.242 32.792 145.08 32.954L143.448 34.586C143.286 34.748 143.022 34.748 142.86 34.586L142.266 33.992C142.104 33.83 142.104 33.566 142.266 33.404L143.898 31.772C144.06 31.61 144.06 31.346 143.898 31.184L142.264 29.552C142.102 29.39 142.102 29.126 142.264 28.964L142.86 28.37C143.022 28.208 143.286 28.208 143.448 28.37L145.08 30.002C145.244 30.164 145.506 30.164 145.668 30.002L147.3 28.37C147.462 28.208 147.726 28.208 147.888 28.37L148.482 28.964C148.644 29.126 148.644 29.39 148.482 29.552L146.85 31.184C146.688 31.348 146.688 31.61 146.85 31.772L148.482 33.404Z" fill="#8CC3E1"/>
</g>
</g>
</svg>
