<svg width="200" height="200" viewBox="0 0 200 200" fill="none" xmlns="http://www.w3.org/2000/svg">
<g opacity="0.5">
<path d="M164.528 164.361L146.342 21.5201C145.646 16.0733 140.707 12.1915 135.252 12.8065L51.4743 22.2369C47.9603 22.6359 45.0737 24.7971 43.6045 27.7459L43.5879 27.7771C42.7671 29.4333 42.3929 31.3369 42.6091 33.3091L58.4153 178.299C58.8433 182.189 61.4265 185.304 64.8345 186.603C66.3473 187.179 68.0203 187.399 69.7409 187.166L155.904 175.587C161.375 174.852 165.226 169.835 164.528 164.361ZM153.876 161.296L69.0823 172.58C67.2909 172.819 65.6533 171.539 65.4519 169.744L50.5519 36.9335C50.3565 35.1795 51.6055 33.5939 53.3573 33.3757L137.346 22.8709C139.121 22.6485 140.738 23.9141 140.948 25.6909L156.652 157.718C156.86 159.469 155.623 161.063 153.876 161.296Z" fill="#8CC3E1"/>
</g>
<path d="M68.4016 187.656C67.1374 187.656 65.8764 187.427 64.6936 186.977C61.0078 185.573 58.4504 182.264 58.0188 178.343L42.2128 33.3524C41.9956 31.3708 42.3476 29.3814 43.2308 27.5994L43.2528 27.5579C44.8348 24.3825 47.8938 22.241 51.4306 21.8394L135.208 12.409C140.846 11.773 146.021 15.8376 146.74 21.4694L164.926 164.311C165.65 169.985 161.627 175.222 155.958 175.984L69.7956 187.563C69.3328 187.625 68.867 187.656 68.4016 187.656ZM136.372 13.1435C136.017 13.1435 135.658 13.1632 135.298 13.2038L51.5204 22.6342C48.2546 23.005 45.4294 24.9827 43.9638 27.9243L43.9422 27.965C43.1324 29.5994 42.8076 31.4359 43.0082 33.2654L58.8142 178.256C59.2126 181.877 61.5748 184.932 64.9782 186.229C66.4724 186.798 68.1018 186.984 69.6886 186.77L155.852 175.191C161.086 174.487 164.801 169.651 164.132 164.412L145.947 21.5702C145.328 16.7304 141.146 13.1435 136.372 13.1435Z" fill="#8CC3E1"/>
<path d="M68.6479 173.009C67.8447 173.009 67.0697 172.744 66.4255 172.24C65.6513 171.635 65.1645 170.764 65.0551 169.788L50.1551 36.9781C49.9363 35.0165 51.3511 33.2227 53.3085 32.9787L137.297 22.4739C138.262 22.3527 139.216 22.6165 139.981 23.2163C140.747 23.8159 141.232 24.6781 141.346 25.6439L157.05 157.67C157.282 159.628 155.882 161.432 153.929 161.692L69.1357 172.977C68.9725 172.998 68.8097 173.009 68.6479 173.009ZM137.754 23.2455C137.635 23.2455 137.516 23.2529 137.397 23.2679L53.4075 33.7727C51.8821 33.9627 50.7797 35.3607 50.9501 36.8893L65.8501 169.699C65.9355 170.46 66.3149 171.139 66.9183 171.61C67.5219 172.081 68.2727 172.285 69.0303 172.184L153.824 160.9C155.346 160.697 156.437 159.291 156.256 157.765L140.551 25.7381C140.462 24.9851 140.085 24.3133 139.488 23.8461C138.986 23.4533 138.381 23.2455 137.754 23.2455Z" fill="#8CC3E1"/>
<g opacity="0.25">
<path d="M156.652 157.718L140.947 25.6908C140.737 23.914 139.121 22.6484 137.346 22.8708L53.3568 33.3756C51.605 33.5938 50.356 35.1794 50.5514 36.9334L65.4514 169.744C65.653 171.539 67.2906 172.819 69.0818 172.58L153.875 161.296C155.623 161.063 156.859 159.469 156.652 157.718ZM74.5534 46.7484L59.0132 48.868C58.3026 48.9656 57.6478 48.467 57.5502 47.7562L56.5776 40.624C56.48 39.9132 56.9786 39.2566 57.6894 39.159L73.2296 37.0394C73.9424 36.9438 74.597 37.4404 74.6946 38.1532L75.6672 45.2852C75.763 45.996 75.2662 46.6506 74.5534 46.7484ZM137.296 39.0198L121.756 41.1394C121.045 41.237 120.388 40.7384 120.293 40.0276L119.32 32.8956C119.223 32.1848 119.721 31.5302 120.432 31.4326L135.972 29.313C136.683 29.2154 137.34 29.714 137.435 30.4248L138.41 37.5568C138.505 38.2676 138.009 38.9242 137.296 39.0198Z" fill="#8CC3E1"/>
</g>
<g opacity="0.5">
<path d="M64.8342 186.604L56.0324 184.953C53.1976 184.421 51.0546 182.086 50.7654 179.218L43.2688 104.802L46.1738 104.494C47.1764 104.386 47.9006 103.489 47.7952 102.486L42.796 55.4399C42.688 54.4373 41.7906 53.7131 40.7908 53.8185L38.1586 54.0995L36.9668 42.2657C36.8344 40.9605 37.0992 39.6471 37.7288 38.4985L43.5876 27.7781C42.766 29.4347 42.3932 31.3373 42.6094 33.3099L58.4158 178.3C58.843 182.188 61.4264 185.304 64.8342 186.604Z" fill="#8CC3E1"/>
</g>
<path d="M64.7605 186.997L55.9587 185.346C52.9715 184.785 50.6723 182.282 50.3675 179.258L42.8311 104.446L46.1319 104.096C46.9115 104.012 47.4797 103.308 47.3977 102.528L42.3981 55.4823C42.3141 54.7025 41.6107 54.1345 40.8329 54.2163L37.8011 54.5401L36.5689 42.3059C36.4277 40.9129 36.7075 39.5299 37.3783 38.3063L43.2371 27.5863L43.9465 27.9559C43.1315 29.5989 42.8067 31.4353 43.0075 33.2665L58.8139 178.257C59.2113 181.876 61.5729 184.932 64.9769 186.231L64.7605 186.997ZM43.7069 105.158L51.1635 179.179C51.4329 181.851 53.4655 184.064 56.1063 184.56L62.3543 185.732C59.9487 184.029 58.3503 181.368 58.0183 178.343L42.2119 33.3533C42.1309 32.6139 42.1289 31.8739 42.2043 31.1439L38.0799 38.6903C37.4871 39.7717 37.2399 40.9939 37.3649 42.2253L38.5163 53.6591L40.7485 53.4207C41.9649 53.2919 43.0625 54.1791 43.1937 55.3971L48.1935 102.444C48.3215 103.663 47.4347 104.761 46.2169 104.892L43.7069 105.158Z" fill="#8CC3E1"/>
<g opacity="0.5">
<path d="M127.876 89.5154L113.754 91.2008L103.015 92.4808L103.009 92.4143L96.286 93.2342L80.2218 95.1951C78.5334 95.4009 76.9872 94.2206 76.7422 92.5354C76.721 92.384 76.709 92.2359 76.709 92.0846C76.709 91.1466 77.1266 90.245 77.874 89.6518C79.0994 88.6744 80.806 86.9648 81.614 84.5412C82.8334 80.883 72.6212 51.8079 91.6568 43.5019C93.5388 42.6789 95.7054 42.0585 98.1986 41.6895L98.2106 41.7773C99.7658 41.6593 101.221 41.6623 102.583 41.7803C125.132 43.7107 121.879 76.1417 123.994 79.5003C125.343 81.6427 127.386 82.8983 128.808 83.5578C129.822 84.0299 130.518 84.995 130.624 86.1087C130.784 87.7999 129.564 89.3128 127.876 89.5154Z" fill="#8CC3E1"/>
</g>
<path d="M79.8478 95.6176C78.1248 95.6176 76.5994 94.3356 76.3458 92.5926C76.3206 92.4116 76.3086 92.246 76.3086 92.0842C76.3086 91.003 76.7882 90.002 77.6248 89.3382C78.847 88.3634 80.4662 86.7174 81.234 84.4144C81.4812 83.6726 81.1606 81.4796 80.7546 78.703C80.0444 73.8468 78.9712 66.5078 79.9488 59.7058C81.1222 51.5414 85.0074 45.9662 91.4964 43.1348C93.4646 42.274 95.6998 41.6544 98.1396 41.2932L98.5392 41.234L98.5554 41.3516C99.9764 41.2608 101.341 41.2706 102.617 41.3812C110.361 42.0442 116.008 46.372 119.399 54.244C122.22 60.7902 122.954 68.515 123.44 73.6268C123.706 76.4196 123.916 78.6256 124.332 79.2866C125.622 81.3346 127.57 82.5422 128.976 83.1946C130.12 83.7272 130.903 84.829 131.022 86.0704C131.201 87.9624 129.811 89.6858 127.924 89.9124L102.654 92.9264L102.649 92.861L80.27 95.592C80.1286 95.6092 79.9874 95.6176 79.8478 95.6176ZM97.8574 42.1464C95.6432 42.504 93.6126 43.0826 91.8166 43.868C77.3894 50.163 80.0934 68.6536 81.546 78.5874C82.0002 81.6934 82.3004 83.7452 81.9928 84.6674C81.1632 87.1562 79.4302 88.9216 78.1226 89.9642C77.4776 90.476 77.1084 91.2484 77.1084 92.0842C77.1084 92.2086 77.118 92.3382 77.1378 92.4798C77.3496 93.935 78.7112 94.976 80.173 94.7976L103.37 91.967L103.376 92.0346L127.828 89.118C129.288 88.9426 130.363 87.6094 130.225 86.146C130.133 85.186 129.525 84.333 128.638 83.92C127.135 83.2226 125.049 81.9262 123.655 79.7128C123.137 78.8908 122.941 76.8266 122.643 73.7024C122.162 68.6406 121.434 60.9912 118.664 54.5604C115.398 46.9802 109.976 42.8142 102.548 42.1782C101.203 42.0616 99.7534 42.0608 98.2402 42.1754L97.865 42.204L97.8574 42.1464Z" fill="#8CC3E1"/>
<path d="M102.586 41.6891C102.586 41.7193 102.586 41.7496 102.583 41.7798C101.222 41.6618 99.7662 41.6588 98.2108 41.7768L98.1988 41.6891C95.7054 42.0583 93.539 42.6784 91.657 43.5014C91.4634 42.9326 91.3574 42.3245 91.3574 41.6891C91.3574 38.5877 93.8718 36.076 96.9704 36.076C100.072 36.0762 102.586 38.5877 102.586 41.6891Z" fill="#8CC3E1"/>
<path d="M113.753 91.2008C113.723 96.0664 109.768 100 104.894 100C100.724 100 97.2262 97.1164 96.2852 93.2342L103.009 92.4142L103.015 92.4808L113.753 91.2008Z" fill="#8CC3E1"/>
<g opacity="0.5">
<path d="M74.5544 46.7485L59.0142 48.8681C58.3036 48.9657 57.6488 48.4671 57.5512 47.7563L56.5786 40.6241C56.481 39.9133 56.9796 39.2567 57.6904 39.1591L73.2306 37.0395C73.9434 36.9439 74.598 37.4405 74.6956 38.1533L75.6682 45.2853C75.764 45.9961 75.2672 46.6507 74.5544 46.7485Z" fill="#8CC3E1"/>
<path d="M137.297 39.0199L121.756 41.1395C121.046 41.2371 120.389 40.7385 120.293 40.0277L119.321 32.8957C119.223 32.1849 119.722 31.5303 120.433 31.4327L135.973 29.3131C136.683 29.2155 137.34 29.7141 137.436 30.4249L138.41 37.5569C138.506 38.2677 138.009 38.9243 137.297 39.0199Z" fill="#8CC3E1"/>
</g>
<path d="M58.8338 49.2805C58.4656 49.2805 58.109 49.1609 57.8102 48.9337C57.4492 48.6591 57.2162 48.2603 57.1546 47.8107L56.182 40.6781C56.0544 39.7499 56.7066 38.8905 57.6356 38.7627L73.176 36.6431C74.109 36.5181 74.9644 37.1719 75.0914 38.0989L76.064 45.2313C76.1888 46.1595 75.5356 47.0173 74.6082 47.1445L59.0678 49.2641C58.9894 49.2751 58.9114 49.2805 58.8338 49.2805ZM73.404 37.4279C73.3642 37.4279 73.324 37.4305 73.2832 37.4359L57.7442 39.5553C57.2524 39.6229 56.907 40.0781 56.9744 40.5697L57.947 47.7023C57.9798 47.9401 58.103 48.1515 58.2944 48.2971C58.4854 48.4425 58.7222 48.5045 58.959 48.4719L74.4994 46.3523C74.991 46.2849 75.3372 45.8303 75.271 45.3389L74.2986 38.2075C74.237 37.7565 73.8482 37.4279 73.404 37.4279Z" fill="#8CC3E1"/>
<path d="M121.576 41.5519C121.207 41.5519 120.85 41.4321 120.551 41.2047C120.19 40.9297 119.957 40.5305 119.897 40.0811L118.924 32.9497C118.862 32.5005 118.98 32.0539 119.255 31.6921C119.529 31.3309 119.928 31.0981 120.378 31.0363L135.918 28.9165C136.369 28.8547 136.815 28.9723 137.177 29.2477C137.539 29.5229 137.771 29.9219 137.832 30.3713L138.806 37.5025C138.867 37.9531 138.749 38.3997 138.475 38.7609C138.2 39.1229 137.801 39.3555 137.35 39.4161L121.81 41.5357C121.732 41.5467 121.654 41.5519 121.576 41.5519ZM136.151 29.7007C136.11 29.7007 136.068 29.7035 136.027 29.7091L120.486 31.8289C120.249 31.8617 120.037 31.9851 119.892 32.1763C119.746 32.3675 119.684 32.6035 119.717 32.8409L120.689 39.9735C120.721 40.2115 120.844 40.4223 121.035 40.5679C121.227 40.7135 121.463 40.7757 121.701 40.7431L137.243 38.6233C137.481 38.5913 137.692 38.4685 137.838 38.2769C137.983 38.0855 138.046 37.8487 138.013 37.6103L137.039 30.4789C137.007 30.2407 136.884 30.0299 136.693 29.8845C136.535 29.7641 136.346 29.7007 136.151 29.7007Z" fill="#8CC3E1"/>
<path d="M81.6123 84.941C81.4131 84.941 81.2407 84.7924 81.2159 84.5896C81.1891 84.3702 81.3451 84.1708 81.5643 84.1438L115.234 80.0226C115.454 79.996 115.653 80.1518 115.68 80.371C115.707 80.5904 115.551 80.7898 115.332 80.8168L81.6615 84.938C81.6449 84.94 81.6285 84.941 81.6123 84.941Z" fill="#8CC3E1"/>
<path d="M86.0282 75.3C85.8266 75.3 85.6532 75.148 85.6312 74.9428C85.6076 74.7232 85.7664 74.526 85.986 74.5024L96.2432 73.3984C96.4586 73.373 96.66 73.5334 96.6836 73.7532C96.7072 73.9728 96.5484 74.17 96.3288 74.1936L86.0716 75.2976C86.057 75.2994 86.0426 75.3 86.0282 75.3Z" fill="#8CC3E1"/>
<path d="M73.6722 164.649C72.606 164.649 71.7038 163.85 71.5736 162.79L71.4168 161.516C71.3898 161.297 71.5458 161.097 71.765 161.07C71.9826 161.045 72.184 161.199 72.211 161.418L72.3678 162.693C72.4554 163.405 73.1092 163.93 73.8356 163.839L74.0522 163.812C74.2704 163.787 74.4712 163.941 74.498 164.16C74.525 164.38 74.3688 164.579 74.1498 164.606L73.9332 164.633C73.847 164.643 73.759 164.649 73.6722 164.649ZM78.269 164.096C78.07 164.096 77.8976 163.947 77.8726 163.745C77.8456 163.525 78.0016 163.326 78.2208 163.299L82.3894 162.786C82.608 162.761 82.8082 162.914 82.8352 163.134C82.8622 163.353 82.7062 163.553 82.487 163.58L78.3184 164.093C78.3018 164.095 78.2854 164.096 78.269 164.096ZM86.6058 163.069C86.4068 163.069 86.2344 162.921 86.2094 162.718C86.1824 162.499 86.3384 162.299 86.5576 162.272L90.7262 161.759C90.9456 161.734 91.1452 161.888 91.172 162.108C91.199 162.327 91.0432 162.526 90.8238 162.553L86.6552 163.066C86.6386 163.068 86.6222 163.069 86.6058 163.069ZM94.943 162.043C94.744 162.043 94.5716 161.895 94.5466 161.692C94.5196 161.473 94.6756 161.273 94.8948 161.246L99.0634 160.733C99.2808 160.708 99.4824 160.862 99.5092 161.081C99.5362 161.3 99.3802 161.5 99.161 161.527L94.9924 162.04C94.9758 162.042 94.9594 162.043 94.943 162.043ZM103.28 161.016C103.081 161.016 102.909 160.868 102.884 160.665C102.857 160.446 103.013 160.246 103.232 160.219L107.4 159.706C107.618 159.681 107.819 159.835 107.846 160.055C107.873 160.274 107.717 160.473 107.498 160.5L103.329 161.013C103.313 161.015 103.297 161.016 103.28 161.016ZM111.617 159.99C111.418 159.99 111.246 159.842 111.221 159.639C111.194 159.42 111.349 159.22 111.569 159.193L115.737 158.68C115.956 158.655 116.156 158.809 116.183 159.028C116.21 159.247 116.054 159.447 115.835 159.474L111.666 159.987C111.65 159.989 111.633 159.99 111.617 159.99ZM119.954 158.963C119.755 158.963 119.583 158.815 119.558 158.612C119.531 158.393 119.687 158.193 119.906 158.166L124.075 157.653C124.294 157.628 124.494 157.782 124.521 158.001C124.548 158.221 124.392 158.42 124.172 158.447L120.004 158.96C119.987 158.963 119.971 158.963 119.954 158.963ZM128.291 157.937C128.092 157.937 127.92 157.789 127.895 157.586C127.868 157.367 128.024 157.167 128.243 157.14L132.412 156.627C132.631 156.602 132.831 156.756 132.857 156.975C132.884 157.194 132.728 157.394 132.509 157.421L128.341 157.934C128.324 157.936 128.308 157.937 128.291 157.937ZM71.3 157.699C71.101 157.699 70.9286 157.55 70.9036 157.347L70.3904 153.179C70.3634 152.96 70.5194 152.76 70.7386 152.733C70.9568 152.708 71.1574 152.862 71.1846 153.081L71.6978 157.25C71.7248 157.469 71.5688 157.669 71.3496 157.696C71.3328 157.698 71.3164 157.699 71.3 157.699ZM136.628 156.911C136.429 156.911 136.257 156.762 136.232 156.559C136.205 156.34 136.361 156.14 136.58 156.114L140.749 155.601C140.966 155.575 141.168 155.729 141.194 155.949C141.221 156.168 141.066 156.368 140.846 156.395L136.678 156.908C136.661 156.91 136.645 156.911 136.628 156.911ZM144.965 155.884C144.766 155.884 144.594 155.736 144.569 155.533C144.542 155.314 144.698 155.114 144.917 155.087L149.086 154.574C149.217 154.559 149.341 154.607 149.426 154.697C149.436 154.575 149.502 154.459 149.614 154.389C150.001 154.151 150.242 153.722 150.242 153.269C150.242 153.215 150.238 153.161 150.232 153.106L149.958 150.884C149.931 150.665 150.087 150.466 150.306 150.439C150.525 150.414 150.725 150.567 150.752 150.787L151.026 153.008C151.036 153.095 151.042 153.183 151.042 153.269C151.042 153.998 150.655 154.688 150.034 155.071C149.869 155.172 149.66 155.14 149.533 155.005C149.518 155.19 149.374 155.345 149.183 155.368L145.014 155.882C144.998 155.883 144.982 155.884 144.965 155.884ZM70.2734 149.362C70.0744 149.362 69.9018 149.213 69.8768 149.01L69.3638 144.842C69.3368 144.623 69.4928 144.423 69.712 144.396C69.9308 144.371 70.1308 144.525 70.1578 144.744L70.6708 148.913C70.6978 149.132 70.5418 149.332 70.3226 149.359C70.3062 149.361 70.2898 149.362 70.2734 149.362ZM149.841 147.067C149.642 147.067 149.47 146.918 149.445 146.716L148.932 142.547C148.905 142.328 149.061 142.128 149.28 142.101C149.499 142.076 149.699 142.23 149.726 142.449L150.239 146.618C150.266 146.837 150.11 147.037 149.891 147.064C149.874 147.066 149.858 147.067 149.841 147.067ZM69.247 141.024C69.048 141.024 68.8756 140.876 68.8506 140.673L68.3374 136.505C68.3104 136.286 68.4664 136.086 68.6856 136.059C68.9052 136.034 69.1046 136.188 69.1314 136.407L69.6446 140.576C69.6716 140.795 69.5156 140.994 69.2964 141.021C69.28 141.023 69.2634 141.024 69.247 141.024ZM148.815 138.73C148.616 138.73 148.443 138.581 148.418 138.378L147.905 134.21C147.878 133.991 148.034 133.791 148.253 133.764C148.473 133.738 148.672 133.893 148.699 134.112L149.212 138.281C149.239 138.5 149.083 138.7 148.864 138.727C148.848 138.729 148.831 138.73 148.815 138.73ZM68.2206 132.688C68.0216 132.688 67.8492 132.539 67.8242 132.336L67.311 128.168C67.284 127.949 67.44 127.749 67.6592 127.722C67.8768 127.697 68.0782 127.851 68.1052 128.07L68.6184 132.239C68.6454 132.458 68.4894 132.657 68.2702 132.684C68.2534 132.687 68.237 132.688 68.2206 132.688ZM147.788 130.393C147.589 130.393 147.417 130.244 147.392 130.042L146.879 125.873C146.852 125.654 147.008 125.454 147.227 125.427C147.445 125.402 147.646 125.556 147.673 125.775L148.186 129.944C148.213 130.163 148.057 130.363 147.838 130.39C147.821 130.392 147.805 130.393 147.788 130.393ZM67.1942 124.35C66.9952 124.35 66.8228 124.202 66.7978 123.999L66.2846 119.831C66.2576 119.611 66.4136 119.412 66.6328 119.385C66.8542 119.359 67.0518 119.514 67.0786 119.733L67.5918 123.902C67.6188 124.121 67.4628 124.32 67.2436 124.347C67.227 124.349 67.2106 124.35 67.1942 124.35ZM146.762 122.056C146.563 122.056 146.391 121.907 146.366 121.704L145.852 117.536C145.825 117.317 145.981 117.117 146.201 117.09C146.419 117.064 146.619 117.219 146.646 117.438L147.16 121.607C147.187 121.826 147.031 122.026 146.811 122.053C146.795 122.055 146.778 122.056 146.762 122.056ZM66.1832 116.012C66.1818 116.012 66.1804 116.012 66.179 116.012C65.9582 116.01 65.781 115.829 65.7832 115.608C65.794 114.552 66.593 113.659 67.642 113.53L69.3606 113.319C69.582 113.293 69.7796 113.448 69.8064 113.667C69.8332 113.886 69.6774 114.086 69.4582 114.113L67.7394 114.324C67.0868 114.404 66.5898 114.96 66.5832 115.616C66.581 115.836 66.4024 116.012 66.1832 116.012ZM145.736 113.719C145.537 113.719 145.364 113.57 145.339 113.367L144.826 109.199C144.799 108.98 144.955 108.78 145.174 108.753C145.393 108.728 145.593 108.882 145.62 109.101L146.133 113.27C146.16 113.489 146.004 113.689 145.785 113.716C145.768 113.718 145.752 113.719 145.736 113.719ZM73.5774 113.603C73.3784 113.603 73.206 113.454 73.181 113.252C73.154 113.032 73.31 112.833 73.5292 112.806L77.6978 112.293C77.9174 112.267 78.1168 112.421 78.1436 112.641C78.1706 112.86 78.0146 113.06 77.7954 113.087L73.6268 113.6C73.6102 113.602 73.5938 113.603 73.5774 113.603ZM81.9144 112.576C81.7154 112.576 81.543 112.428 81.518 112.225C81.491 112.006 81.647 111.806 81.8662 111.779L86.0346 111.266C86.2522 111.241 86.4536 111.395 86.4806 111.614C86.5076 111.834 86.3516 112.033 86.1324 112.06L81.964 112.573C81.9472 112.575 81.9308 112.576 81.9144 112.576ZM90.2514 111.55C90.0524 111.55 89.88 111.401 89.855 111.199C89.828 110.979 89.984 110.78 90.2032 110.753L94.3718 110.239C94.59 110.214 94.7906 110.368 94.8176 110.588C94.8446 110.807 94.6886 111.006 94.4694 111.034L90.3008 111.547C90.2842 111.549 90.2678 111.55 90.2514 111.55ZM98.5884 110.523C98.3894 110.523 98.217 110.375 98.192 110.172C98.165 109.953 98.321 109.753 98.5402 109.726L102.709 109.213C102.928 109.188 103.128 109.342 103.155 109.561C103.182 109.78 103.026 109.98 102.806 110.007L98.6378 110.52C98.6214 110.522 98.605 110.523 98.5884 110.523ZM106.926 109.497C106.727 109.497 106.554 109.348 106.529 109.146C106.502 108.926 106.658 108.727 106.877 108.7L111.046 108.187C111.265 108.161 111.465 108.315 111.492 108.535C111.519 108.754 111.363 108.954 111.143 108.981L106.975 109.494C106.958 109.496 106.942 109.497 106.926 109.497ZM115.263 108.47C115.064 108.47 114.891 108.322 114.866 108.119C114.839 107.9 114.995 107.7 115.214 107.673L119.383 107.16C119.6 107.136 119.802 107.289 119.829 107.508C119.856 107.728 119.7 107.927 119.48 107.954L115.312 108.467C115.295 108.469 115.279 108.47 115.263 108.47ZM123.6 107.444C123.401 107.444 123.228 107.296 123.203 107.093C123.176 106.874 123.332 106.674 123.551 106.647L127.72 106.134C127.938 106.108 128.139 106.262 128.166 106.482C128.193 106.701 128.037 106.901 127.818 106.928L123.649 107.441C123.632 107.443 123.616 107.444 123.6 107.444ZM131.937 106.417C131.738 106.417 131.565 106.269 131.54 106.066C131.513 105.847 131.669 105.647 131.888 105.62L136.057 105.107C136.276 105.082 136.476 105.236 136.503 105.455C136.53 105.675 136.374 105.874 136.155 105.901L131.986 106.414C131.97 106.416 131.953 106.417 131.937 106.417ZM144.332 105.521C144.233 105.521 144.134 105.484 144.057 105.411C143.771 105.141 143.386 105.01 142.989 105.06L140.323 105.388C140.104 105.415 139.904 105.259 139.877 105.04C139.85 104.821 140.006 104.621 140.225 104.594L142.892 104.266C143.52 104.19 144.148 104.396 144.607 104.83C144.767 104.982 144.774 105.235 144.622 105.396C144.543 105.479 144.438 105.521 144.332 105.521Z" fill="#8CC3E1"/>
<g opacity="0.25">
<path d="M46.1747 104.494L43.2697 104.802L42.5265 104.88C41.5267 104.986 40.6295 104.262 40.5213 103.259L35.5219 56.2126C35.4165 55.21 36.1407 54.3128 37.1433 54.2074L38.1595 54.0994L40.7917 53.8184C41.7915 53.713 42.6889 54.4372 42.7969 55.4398L47.7963 102.486C47.9015 103.489 47.1773 104.386 46.1747 104.494Z" fill="#8CC3E1"/>
</g>
<path d="M42.3342 105.291C41.2138 105.291 40.2464 104.441 40.1234 103.302L35.1238 56.255C35.0616 55.6634 35.2328 55.0838 35.6058 54.6222C35.979 54.1604 36.51 53.872 37.1014 53.8096L40.749 53.4206C41.9656 53.291 43.0628 54.179 43.1942 55.397L48.194 102.444C48.322 103.663 47.4352 104.761 46.2174 104.892L46.2168 104.892L42.5684 105.278C42.4896 105.287 42.4116 105.291 42.3342 105.291ZM40.983 54.2084C40.9336 54.2084 40.8836 54.211 40.8334 54.2162L37.1856 54.6054C36.8066 54.6452 36.4668 54.8298 36.228 55.1252C35.9894 55.4206 35.8798 55.792 35.9196 56.171L40.919 103.217C41.0032 103.997 41.7086 104.563 42.4844 104.483L46.132 104.096C46.9122 104.012 47.4802 103.309 47.3982 102.528L42.3986 55.4822C42.3202 54.7526 41.7004 54.2084 40.983 54.2084Z" fill="#8CC3E1"/>
<path d="M99.3851 129.127C98.4453 129.127 97.5309 128.835 96.7509 128.277C95.7641 127.57 95.1113 126.522 94.9131 125.325C94.5037 122.853 96.1809 120.509 98.6515 120.1C101.124 119.689 103.471 121.367 103.88 123.839C104.078 125.037 103.799 126.24 103.092 127.227C102.385 128.214 101.335 128.867 100.137 129.065C99.8857 129.107 99.6345 129.127 99.3851 129.127ZM95.7021 125.194C95.8655 126.181 96.4035 127.044 97.2165 127.627C98.0295 128.209 99.0201 128.439 100.006 128.276C100.994 128.112 101.859 127.574 102.441 126.761C103.024 125.948 103.254 124.957 103.091 123.97C102.754 121.933 100.819 120.552 98.7823 120.889C96.7467 121.226 95.3649 123.157 95.7021 125.194Z" fill="#8CC3E1"/>
<path d="M102.136 142.966C102.029 142.966 101.92 142.956 101.811 142.937C100.821 142.759 100.151 141.811 100.319 140.823C100.354 140.62 101.243 135.858 106.928 133.622C107.909 133.232 109 132.936 110.17 132.742C111.328 132.55 112.452 132.48 113.515 132.531C119.43 132.825 121.575 136.903 121.8 137.367C122.227 138.302 121.824 139.397 120.906 139.821C120.758 139.892 120.602 139.941 120.43 139.97C119.617 140.104 118.806 139.676 118.456 138.927C118.44 138.894 116.689 135.4 110.772 136.38C104.845 137.362 103.982 141.299 103.948 141.466C103.781 142.345 103.003 142.966 102.136 142.966ZM112.835 133.314C112.021 133.314 111.171 133.387 110.3 133.531C109.187 133.715 108.151 133.996 107.222 134.365C101.949 136.44 101.139 140.775 101.107 140.958C101.013 141.514 101.392 142.049 101.953 142.149C102.514 142.251 103.056 141.875 103.163 141.312C103.26 140.833 104.286 136.644 110.642 135.591C117.173 134.508 119.162 138.546 119.181 138.587C119.379 139.013 119.839 139.255 120.299 139.18C120.396 139.164 120.481 139.138 120.56 139.099L120.568 139.095C121.089 138.857 121.317 138.235 121.078 137.71C120.877 137.296 118.93 133.601 113.475 133.329C113.264 133.319 113.051 133.314 112.835 133.314Z" fill="#8CC3E1"/>
<path d="M117.38 126.146C116.439 126.146 115.524 125.855 114.744 125.297C113.757 124.59 113.103 123.542 112.905 122.344C112.496 119.873 114.175 117.528 116.649 117.118C119.119 116.71 121.463 118.387 121.872 120.859C122.071 122.056 121.791 123.259 121.085 124.246C120.378 125.233 119.33 125.886 118.134 126.084C117.882 126.126 117.63 126.146 117.38 126.146ZM117.393 117.857C117.19 117.857 116.985 117.874 116.78 117.908C114.741 118.245 113.357 120.177 113.694 122.214C113.858 123.2 114.396 124.064 115.209 124.646C116.023 125.228 117.016 125.459 118.003 125.295C118.989 125.132 119.852 124.594 120.434 123.781C121.016 122.967 121.247 121.976 121.083 120.99C120.78 119.159 119.19 117.857 117.393 117.857Z" fill="#8CC3E1"/>
<g opacity="0.75">
<path d="M113.496 132.93C112.521 132.883 111.436 132.938 110.236 133.136C109.04 133.335 107.993 133.629 107.075 133.994C101.585 136.153 100.753 140.667 100.714 140.89C100.581 141.67 101.105 142.403 101.883 142.543C102.66 142.683 103.409 142.162 103.556 141.386C103.592 141.21 104.461 137.02 110.708 135.985C116.878 134.963 118.752 138.614 118.82 138.758C119.1 139.359 119.74 139.678 120.365 139.575C120.492 139.554 120.616 139.518 120.736 139.459C121.46 139.127 121.773 138.269 121.442 137.544C121.344 137.341 119.364 133.222 113.496 132.93Z" fill="#8CC3E1"/>
<path d="M116.715 117.513C114.454 117.888 112.926 120.02 113.301 122.279C113.675 124.537 115.808 126.064 118.069 125.689C120.325 125.316 121.853 123.182 121.479 120.924C121.104 118.665 118.971 117.139 116.715 117.513Z" fill="#8CC3E1"/>
<path d="M103.487 123.905C103.112 121.645 100.979 120.12 98.7177 120.494C96.4617 120.868 94.9341 123 95.3083 125.259C95.6823 127.517 97.8159 129.045 100.072 128.671C102.333 128.296 103.861 126.163 103.487 123.905Z" fill="#8CC3E1"/>
</g>
<path d="M161.161 65.0942C161.101 65.0942 161.04 65.0806 160.983 65.052C160.785 64.9532 160.705 64.713 160.804 64.5152L167.012 52.0996C167.11 51.9024 167.35 51.8216 167.549 51.9206C167.746 52.0194 167.826 52.2596 167.728 52.4574L161.52 64.873C161.449 65.0132 161.308 65.0942 161.161 65.0942Z" fill="#8CC3E1"/>
<path d="M163.072 77.5098C162.883 77.5098 162.714 77.3752 162.679 77.1826C162.638 76.9654 162.782 76.7566 162.999 76.7164L174.937 74.5066C175.156 74.4664 175.363 74.61 175.403 74.8272C175.443 75.0444 175.3 75.2532 175.083 75.2934L163.145 77.5032C163.12 77.5076 163.096 77.5098 163.072 77.5098Z" fill="#8CC3E1"/>
<path d="M177.239 98.1273C177.174 98.1273 177.107 98.1111 177.046 98.0771L165.267 91.5509C165.073 91.4437 165.004 91.2005 165.111 91.0071C165.218 90.8139 165.461 90.7443 165.655 90.8511L177.433 97.3773C177.627 97.4845 177.697 97.7279 177.589 97.9211C177.516 98.0529 177.38 98.1273 177.239 98.1273Z" fill="#8CC3E1"/>
<path d="M23.8209 130.303C21.3037 130.303 19.2559 128.255 19.2559 125.738C19.2559 123.221 21.3037 121.173 23.8209 121.173C26.3381 121.173 28.3859 123.221 28.3859 125.738C28.3859 128.255 26.3381 130.303 23.8209 130.303ZM23.8209 121.973C21.7449 121.973 20.0559 123.662 20.0559 125.738C20.0559 127.814 21.7449 129.503 23.8209 129.503C25.8969 129.503 27.5859 127.814 27.5859 125.738C27.5859 123.662 25.8967 121.973 23.8209 121.973Z" fill="#8CC3E1"/>
<path d="M36.7847 144.045C35.8621 144.045 35.1113 143.294 35.1113 142.372C35.1113 141.449 35.8621 140.698 36.7847 140.698C37.7073 140.698 38.4579 141.449 38.4579 142.372C38.4579 143.294 37.7073 144.045 36.7847 144.045ZM36.7847 141.498C36.3031 141.498 35.9113 141.89 35.9113 142.371C35.9113 142.853 36.3031 143.245 36.7847 143.245C37.2661 143.245 37.6579 142.853 37.6579 142.371C37.6579 141.89 37.2661 141.498 36.7847 141.498Z" fill="#8CC3E1"/>
<path d="M165.873 33.0766C164.108 33.0766 162.672 31.6404 162.672 29.8752C162.672 28.11 164.108 26.6738 165.873 26.6738C167.638 26.6738 169.075 28.11 169.075 29.8752C169.075 31.6406 167.638 33.0766 165.873 33.0766ZM165.873 27.474C164.549 27.474 163.472 28.5512 163.472 29.8754C163.472 31.1996 164.549 32.2768 165.873 32.2768C167.197 32.2768 168.275 31.1996 168.275 29.8754C168.275 28.5512 167.197 27.474 165.873 27.474Z" fill="#8CC3E1"/>
<g opacity="0.25">
<path d="M35.2459 43.5833H37.0999L36.9673 42.2657C36.8349 40.9605 37.0997 39.6471 37.7293 38.4985L43.5865 27.7811C43.5871 27.7799 43.5877 27.7787 43.5883 27.7773L43.6049 27.7461C45.0741 24.7973 47.9607 22.6361 51.4747 22.2371L135.252 12.8067C140.707 12.1915 145.646 16.0735 146.343 21.5203L149.425 45.7337C152.036 44.3615 155.009 43.5833 158.164 43.5833H164.755C169.949 43.5833 174.649 41.4773 178.053 38.0755C181.455 34.6711 183.561 29.9707 183.561 24.7769C183.561 14.3915 175.14 5.97046 164.755 5.97046H35.2459C30.0519 5.97046 25.3517 8.07626 21.9473 11.4783C18.5455 14.8827 16.4395 19.5831 16.4395 24.7769C16.4393 35.1621 24.8605 43.5833 35.2459 43.5833Z" fill="#8CC3E1"/>
</g>
<g opacity="0.25">
<path d="M43.2912 28.4388C42.9988 29.154 42.7882 29.9082 42.668 30.6882C42.7884 29.9082 42.999 29.154 43.2912 28.4388Z" fill="#8CC3E1"/>
</g>
<g opacity="0.25">
<path d="M164.755 156.419H163.517L164.528 164.361C165.227 169.835 161.376 174.851 155.904 175.587L69.7414 187.166C68.0206 187.399 66.3479 187.179 64.835 186.603C63.4719 186.084 62.2415 185.273 61.2272 184.239C62.2412 185.273 63.4716 186.084 64.8346 186.604L56.0328 184.953C53.198 184.42 51.055 182.086 50.7659 179.218L48.0207 151.967C44.7423 154.743 40.5015 156.419 35.8711 156.419H35.2459C30.0519 156.419 25.3517 158.523 21.9473 161.927C18.5455 165.329 16.4395 170.029 16.4395 175.223C16.4395 185.611 24.8607 194.03 35.2461 194.03H164.755C169.949 194.03 174.649 191.924 178.053 188.522C181.455 185.12 183.561 180.417 183.561 175.223C183.561 164.838 175.14 156.419 164.755 156.419Z" fill="#8CC3E1"/>
</g>
<g opacity="0.25">
<path d="M164.754 81.1936H158.163C156.689 81.1936 155.254 81.0236 153.877 80.7026L158.728 118.806H164.754C169.948 118.806 174.649 116.703 178.053 113.299C181.455 109.894 183.561 105.194 183.561 100C183.561 89.6146 175.14 81.1936 164.754 81.1936Z" fill="#8CC3E1"/>
</g>
<g opacity="0.25">
<path d="M35.2461 118.806H35.8713C39.1487 118.806 42.23 119.646 44.9132 121.12L43.2695 104.802L42.5262 104.881C41.5264 104.986 40.6293 104.262 40.5211 103.259L38.1763 81.1938H35.2461C30.0521 81.1938 25.3519 83.2996 21.9475 86.7016C18.5455 90.1058 16.4395 94.8086 16.4395 100C16.4395 110.388 24.8607 118.806 35.2461 118.806Z" fill="#8CC3E1"/>
</g>
</svg>
