<svg width="218" height="200" viewBox="0 0 218 200" fill="none" xmlns="http://www.w3.org/2000/svg">
<g opacity="0.25">
<path d="M99.3934 74.665C99.4413 74.5671 99.4913 74.467 99.5457 74.3691H73.0684C73.1641 74.2973 73.2577 74.2168 73.3512 74.1406C75.5705 72.2955 77.359 70.0936 78.5753 67.648H104.006C102.239 69.8129 100.69 72.1606 99.3913 74.665H99.3934Z" fill="#8CC3E1"/>
<path d="M199.317 160.588C198.151 163.333 195.426 165.259 192.258 165.259H175.805L172.171 167.204C169.569 168.599 166.36 167.722 164.817 165.259H58.2224C53.9861 165.259 50.5527 161.823 50.5527 157.589V130.842C50.5527 126.606 53.9861 123.175 58.2224 123.175H107.7C105.485 121.095 103.505 118.771 101.799 116.245C101.845 116.314 101.891 116.384 101.939 116.454H24.1384C19.9043 116.454 16.4687 113.02 16.4687 108.784V82.0366C16.4687 81.6842 16.4926 81.3338 16.5405 80.9922C12.9221 81.9801 9.68016 83.6641 7.04744 85.853C2.69365 89.4757 0 94.4779 0 100C0 111.047 10.7746 120.002 24.0601 120.002H25.6767C29.3364 120.002 32.8046 120.681 35.9095 121.897H41.7602C42.574 121.897 43.2333 122.557 43.2333 123.368V126.325C47.2672 129.9 49.7389 134.711 49.7389 139.998C49.7389 145.285 47.0474 150.522 42.6915 154.141C38.3377 157.759 32.3194 160 25.6767 160H24.0601C17.4173 160 11.4012 162.239 7.04744 165.86C2.69365 169.48 0 174.478 0 180C0 191.047 10.7746 200 24.0601 200H193.52C200.163 200 206.179 197.763 210.533 194.141C214.887 190.522 217.581 185.527 217.581 180C217.581 170.616 209.804 162.742 199.317 160.588ZM106.112 178.331C106.112 179.147 105.453 179.804 104.641 179.804H56.9147C56.101 179.804 55.4417 179.145 55.4417 178.331V172.034C55.4417 171.219 56.1031 170.561 56.9147 170.561H104.641C105.455 170.561 106.112 171.221 106.112 172.034V178.331Z" fill="#8CC3E1"/>
<path d="M193.52 80H187.28C181.656 80 176.484 78.3986 172.389 75.7072C174.978 81.0662 176.432 87.0801 176.432 93.4313C176.432 103.44 172.831 112.609 166.845 119.706C166.76 119.804 166.68 119.902 166.595 120H193.518C200.161 120 206.177 117.761 210.531 114.141C214.885 110.522 217.578 105.52 217.578 99.9978C217.578 88.9513 206.804 79.9978 193.518 79.9978L193.52 80ZM197.722 114.43C197.722 115.242 197.063 115.903 196.249 115.903H183.401C182.587 115.903 181.928 115.242 181.928 114.43V108.131C181.928 107.317 182.589 106.66 183.401 106.66H196.249C197.065 106.66 197.722 107.319 197.722 108.131V114.43Z" fill="#8CC3E1"/>
<path d="M0 20C0 14.4778 2.69365 9.47781 7.04744 5.85945C11.4012 2.23891 17.4173 0 24.0601 0H193.52C206.806 0 217.581 8.95344 217.581 20C217.581 25.5222 214.887 30.5244 210.533 34.1427C206.179 37.7611 200.163 40 193.52 40H187.774V33.2333C187.774 28.9991 184.341 25.5635 180.107 25.5635H46.0705C41.8342 25.5635 38.4008 28.9991 38.4008 33.2333V40H24.0622C10.7746 40 0 31.0444 0 20Z" fill="#8CC3E1"/>
<path d="M197.923 59.0252C197.923 66.2446 192.068 72.0975 184.848 72.0975C180.934 72.0975 177.418 70.3764 175.024 67.6501H180.107C184.341 67.6501 187.775 64.2167 187.775 59.9826V46.2816C193.586 47.6088 197.923 52.809 197.923 59.0252Z" fill="#8CC3E1"/>
<path d="M42.8701 139.402C42.8701 146.621 37.0171 152.474 29.7978 152.474C22.5785 152.474 16.7256 146.621 16.7256 139.402C16.7256 132.987 21.3448 127.652 27.4371 126.541V129.667C27.4371 130.481 28.0963 131.14 28.9079 131.14H39.9306C41.7669 133.39 42.8701 136.266 42.8701 139.402Z" fill="#8CC3E1"/>
</g>
<g opacity="0.5">
<path d="M180.106 25.5637H46.0701C41.8338 25.5637 38.4004 28.9993 38.4004 33.2334V59.9806C38.4004 64.2147 41.8338 67.6481 46.0701 67.6481H104.007C111.488 58.4858 122.874 52.6329 135.628 52.6329C148.383 52.6329 159.771 58.4858 167.254 67.6481H180.106C184.34 67.6481 187.774 64.2147 187.774 59.9806V33.2334C187.774 28.9993 184.34 25.5637 180.106 25.5637ZM61.1223 58.364C54.6297 58.364 49.3643 53.0985 49.3643 46.6059C49.3643 40.1133 54.6297 34.8501 61.1223 34.8501C67.6149 34.8501 72.8782 40.1133 72.8782 46.6059C72.8782 53.0985 67.6149 58.364 61.1223 58.364Z" fill="#8CC3E1"/>
</g>
<path d="M180.107 68.3029H166.945L166.749 68.0635C159.082 58.6728 147.737 53.2876 135.629 53.2876C123.52 53.2876 112.18 58.6728 104.513 68.0635L104.317 68.3029H46.0705C41.4817 68.3029 37.748 64.5714 37.748 59.9826V33.2354C37.748 28.6466 41.4817 24.913 46.0705 24.913H180.107C184.695 24.913 188.427 28.6466 188.427 33.2354V59.9826C188.427 64.5714 184.693 68.3029 180.107 68.3029ZM167.563 66.9974H180.107C183.975 66.9974 187.121 63.8512 187.121 59.9826V33.2354C187.121 29.3668 183.975 26.2184 180.107 26.2184H46.0705C42.2019 26.2184 39.0535 29.3668 39.0535 33.2354V59.9826C39.0535 63.8512 42.2019 66.9974 46.0705 66.9974H103.699C111.61 57.4521 123.229 51.9822 135.629 51.9822C148.029 51.9822 159.648 57.4521 167.563 66.9974Z" fill="#8CC3E1"/>
<g opacity="0.25">
<path d="M72.8792 46.6057C72.8792 53.0983 67.6159 58.3638 61.1233 58.3638C54.6307 58.3638 49.3652 53.0983 49.3652 46.6057C49.3652 40.1131 54.6307 34.8499 61.1233 34.8499C67.6159 34.8499 72.8792 40.1131 72.8792 46.6057Z" fill="#8CC3E1"/>
</g>
<path d="M61.1227 59.0166C54.2798 59.0166 48.7119 53.4487 48.7119 46.6058C48.7119 39.7629 54.2798 34.1971 61.1227 34.1971C67.9656 34.1971 73.5313 39.7629 73.5313 46.6058C73.5313 53.4487 67.9656 59.0166 61.1227 59.0166ZM61.1227 35.5048C55 35.5048 50.0174 40.4852 50.0174 46.6079C50.0174 52.7306 55 57.7132 61.1227 57.7132C67.2454 57.7132 72.2258 52.7306 72.2258 46.6079C72.2258 40.4852 67.2454 35.5048 61.1227 35.5048Z" fill="#8CC3E1"/>
<path d="M167.326 38.1223H80.9311C80.5699 38.1223 80.2783 37.8307 80.2783 37.4695C80.2783 37.1083 80.5699 36.8168 80.9311 36.8168H167.326C167.687 36.8168 167.979 37.1083 167.979 37.4695C167.979 37.8307 167.687 38.1223 167.326 38.1223Z" fill="#8CC3E1"/>
<path d="M141.836 45.6788H80.9311C80.5699 45.6788 80.2783 45.3873 80.2783 45.0261C80.2783 44.6649 80.5699 44.3734 80.9311 44.3734H141.836C142.197 44.3734 142.489 44.6649 142.489 45.0261C142.489 45.3873 142.197 45.6788 141.836 45.6788Z" fill="#8CC3E1"/>
<path d="M108.05 55.1633H80.9311C80.5699 55.1633 80.2783 54.8717 80.2783 54.5105C80.2783 54.1493 80.5699 53.8578 80.9311 53.8578H108.05C108.411 53.8578 108.703 54.1493 108.703 54.5105C108.703 54.8717 108.411 55.1633 108.05 55.1633Z" fill="#8CC3E1"/>
<g opacity="0.5">
<path d="M164.617 164.92L152.372 142.058L151.41 142.572C148.695 144.027 145.311 143.003 143.856 140.287L140.459 133.949C138.875 134.136 137.261 134.234 135.627 134.234C124.82 134.234 114.996 130.033 107.698 123.172H58.2205C53.9842 123.172 50.5508 126.606 50.5508 130.84V157.587C50.5508 161.821 53.9842 165.257 58.2205 165.257H164.813C164.744 165.146 164.678 165.033 164.615 164.917L164.617 164.92ZM73.2749 155.973C66.7823 155.973 61.5168 150.709 61.5168 144.217C61.5168 137.724 66.7823 132.459 73.2749 132.459C79.7675 132.459 85.0308 137.724 85.0308 144.217C85.0308 150.709 79.7675 155.973 73.2749 155.973Z" fill="#8CC3E1"/>
</g>
<g opacity="0.5">
<path d="M199.928 130.842V157.589C199.928 161.823 196.492 165.259 192.258 165.259H175.803L177.006 164.613C179.724 163.157 180.746 159.776 179.291 157.056L167.043 134.197L168.003 133.684C170.72 132.228 171.743 128.845 170.285 126.129L168.701 123.172H192.256C196.49 123.172 199.926 126.606 199.926 130.84L199.928 130.842Z" fill="#8CC3E1"/>
</g>
<path d="M165.985 165.914H58.2199C53.6311 165.914 49.8975 162.18 49.8975 157.591V130.844C49.8975 126.255 53.6311 122.524 58.2199 122.524H107.957L108.146 122.7C115.613 129.719 125.374 133.584 135.629 133.584C137.208 133.584 138.807 133.49 140.385 133.303L140.827 133.251L144.432 139.98C145.054 141.14 146.09 141.989 147.35 142.372C148.609 142.752 149.943 142.62 151.103 142L152.639 141.177L165.191 164.613C165.246 164.715 165.307 164.817 165.37 164.917L165.985 165.914ZM58.2199 123.827C54.3513 123.827 51.2029 126.974 51.2029 130.842V157.589C51.2029 161.458 54.3513 164.606 58.2199 164.606H163.707L152.104 142.942L151.719 143.148C150.252 143.934 148.568 144.101 146.973 143.621C145.378 143.138 144.068 142.065 143.283 140.596L140.095 134.65C138.612 134.809 137.112 134.889 135.629 134.889C125.126 134.889 115.126 130.964 107.441 123.827H58.2199Z" fill="#8CC3E1"/>
<path d="M192.259 165.914H173.205L176.7 164.041C179.095 162.757 180 159.763 178.716 157.367L166.162 133.934L167.696 133.111C168.856 132.489 169.704 131.453 170.087 130.194C170.468 128.934 170.335 127.6 169.713 126.443L167.613 122.524H192.259C196.847 122.524 200.581 126.258 200.581 130.844V157.591C200.581 162.18 196.847 165.914 192.259 165.914ZM178.212 164.608H192.259C196.127 164.608 199.276 161.46 199.276 157.591V130.844C199.276 126.976 196.127 123.829 192.259 123.829H169.794L170.864 125.825C171.652 127.291 171.819 128.977 171.336 130.57C170.855 132.165 169.78 133.475 168.314 134.262L167.931 134.469L179.87 156.752C181.321 159.463 180.557 162.779 178.214 164.608H178.212Z" fill="#8CC3E1"/>
<g opacity="0.25">
<path d="M85.0305 144.217C85.0305 150.709 79.7673 155.973 73.2747 155.973C66.7821 155.973 61.5166 150.709 61.5166 144.217C61.5166 137.724 66.7821 132.459 73.2747 132.459C79.7673 132.459 85.0305 137.724 85.0305 144.217Z" fill="#8CC3E1"/>
</g>
<path d="M73.2751 156.625C66.4322 156.625 60.8643 151.06 60.8643 144.217C60.8643 137.374 66.4322 131.806 73.2751 131.806C80.118 131.806 85.6837 137.374 85.6837 144.217C85.6837 151.06 80.118 156.625 73.2751 156.625ZM73.2751 133.114C67.1523 133.114 62.1697 138.096 62.1697 144.219C62.1697 150.342 67.1523 155.322 73.2751 155.322C79.3978 155.322 84.3782 150.342 84.3782 144.219C84.3782 138.096 79.3978 133.114 73.2751 133.114Z" fill="#8CC3E1"/>
<path d="M121.534 135.731H93.0815C92.7203 135.731 92.4287 135.439 92.4287 135.078C92.4287 134.717 92.7203 134.426 93.0815 134.426H121.534C121.896 134.426 122.187 134.717 122.187 135.078C122.187 135.439 121.896 135.731 121.534 135.731Z" fill="#8CC3E1"/>
<path d="M132.5 143.288H93.0815C92.7203 143.288 92.4287 142.996 92.4287 142.635C92.4287 142.274 92.7203 141.982 93.0815 141.982H132.5C132.862 141.982 133.153 142.274 133.153 142.635C133.153 142.996 132.862 143.288 132.5 143.288Z" fill="#8CC3E1"/>
<path d="M144.652 152.772H93.0834C92.7222 152.772 92.4307 152.48 92.4307 152.119C92.4307 151.758 92.7222 151.467 93.0834 151.467H144.652C145.013 151.467 145.305 151.758 145.305 152.119C145.305 152.48 145.013 152.772 144.652 152.772Z" fill="#8CC3E1"/>
<g opacity="0.5">
<path d="M94.8304 93.4335C94.8304 86.5471 96.5362 80.0588 99.5475 74.3691H24.1385C19.9043 74.3691 16.4688 77.8025 16.4688 82.0388V108.784C16.4688 113.02 19.9043 116.453 24.1385 116.453H101.939C97.4522 109.9 94.8304 101.976 94.8304 93.4335ZM39.1907 107.167C32.6981 107.167 27.4348 101.904 27.4348 95.4113C27.4348 88.9187 32.6981 83.6554 39.1907 83.6554C45.6833 83.6554 50.9487 88.9187 50.9487 95.4113C50.9487 101.904 45.6833 107.167 39.1907 107.167Z" fill="#8CC3E1"/>
</g>
<path d="M103.176 117.108H24.1379C19.5491 117.108 15.8154 113.375 15.8154 108.786V82.0409C15.8154 77.4521 19.5491 73.7184 24.1379 73.7184H100.63L100.124 74.6758C97.0861 80.4134 95.4825 86.9017 95.4825 93.4356C95.4825 101.569 97.902 109.404 102.478 116.088L103.176 117.108ZM24.1379 75.0218C20.2693 75.0218 17.1209 78.1701 17.1209 82.0387V108.784C17.1209 112.652 20.2693 115.801 24.1379 115.801H100.722C96.4355 109.127 94.177 101.421 94.177 93.4334C94.177 87.0474 95.6609 80.7071 98.4786 75.0218H24.1379Z" fill="#8CC3E1"/>
<g opacity="0.25">
<path d="M50.9485 95.4112C50.9485 101.904 45.683 107.167 39.1904 107.167C32.6978 107.167 27.4346 101.904 27.4346 95.4112C27.4346 88.9186 32.6978 83.6553 39.1904 83.6553C45.683 83.6553 50.9485 88.9186 50.9485 95.4112Z" fill="#8CC3E1"/>
</g>
<path d="M39.1908 107.82C32.3501 107.82 26.7822 102.254 26.7822 95.4112C26.7822 88.5683 32.3479 83.0026 39.1908 83.0026C46.0337 83.0026 51.6016 88.5683 51.6016 95.4112C51.6016 102.254 46.0337 107.82 39.1908 107.82ZM39.1908 84.3103C33.0681 84.3103 28.0877 89.2907 28.0877 95.4134C28.0877 101.536 33.0681 106.517 39.1908 106.517C45.3136 106.517 50.2961 101.536 50.2961 95.4134C50.2961 89.2907 45.3136 84.3103 39.1908 84.3103Z" fill="#8CC3E1"/>
<path d="M89.2801 86.9257H58.9994C58.6382 86.9257 58.3467 86.6341 58.3467 86.2729C58.3467 85.9117 58.6382 85.6202 58.9994 85.6202H89.2801C89.6413 85.6202 89.9328 85.9117 89.9328 86.2729C89.9328 86.6341 89.6413 86.9257 89.2801 86.9257Z" fill="#8CC3E1"/>
<path d="M85.9381 94.4843H58.9994C58.6382 94.4843 58.3467 94.1928 58.3467 93.8316C58.3467 93.4704 58.6382 93.1788 58.9994 93.1788H85.9381C86.2992 93.1788 86.5908 93.4704 86.5908 93.8316C86.5908 94.1928 86.2992 94.4843 85.9381 94.4843Z" fill="#8CC3E1"/>
<path d="M86.1187 103.969H58.9994C58.6382 103.969 58.3467 103.677 58.3467 103.316C58.3467 102.955 58.6382 102.663 58.9994 102.663H86.1187C86.4799 102.663 86.7714 102.955 86.7714 103.316C86.7714 103.677 86.4799 103.969 86.1187 103.969Z" fill="#8CC3E1"/>
<g opacity="0.25">
<path d="M163.49 93.4334C163.49 108.821 151.016 121.295 135.629 121.295C120.241 121.295 107.77 108.821 107.77 93.4334C107.77 78.0461 120.241 65.5743 135.629 65.5743C151.016 65.5743 163.49 78.0461 163.49 93.4334Z" fill="#8CC3E1"/>
</g>
<path d="M135.629 121.947C119.909 121.947 107.117 109.156 107.117 93.4334C107.117 77.711 119.907 64.9216 135.629 64.9216C151.351 64.9216 164.143 77.711 164.143 93.4334C164.143 109.156 151.351 121.947 135.629 121.947ZM135.629 66.2293C120.627 66.2293 108.423 78.4334 108.423 93.4356C108.423 108.438 120.627 120.644 135.629 120.644C150.631 120.644 162.837 108.438 162.837 93.4356C162.837 78.4334 150.631 66.2293 135.629 66.2293Z" fill="#8CC3E1"/>
<g opacity="0.5">
<path d="M135.629 52.6349C113.096 52.6349 94.8301 70.9008 94.8301 93.4334C94.8301 115.966 113.096 134.234 135.629 134.234C137.265 134.234 138.877 134.136 140.461 133.949C151.016 132.705 160.339 127.43 166.847 119.706C172.831 112.609 176.434 103.44 176.434 93.4312C176.434 70.8986 158.166 52.6327 135.631 52.6327L135.629 52.6349ZM135.629 121.295C120.241 121.295 107.77 108.821 107.77 93.4334C107.77 78.0461 120.241 65.5744 135.629 65.5744C151.016 65.5744 163.49 78.0461 163.49 93.4334C163.49 108.821 151.016 121.295 135.629 121.295Z" fill="#8CC3E1"/>
</g>
<path d="M135.629 134.889C112.772 134.889 94.1777 116.292 94.1777 93.4356C94.1777 70.5787 112.772 51.9843 135.629 51.9843C158.486 51.9843 177.087 70.5787 177.087 93.4356C177.087 103.198 173.627 112.681 167.348 120.131C160.527 128.229 151.005 133.368 140.54 134.602C138.912 134.793 137.261 134.891 135.631 134.891L135.629 134.889ZM135.629 53.2876C113.492 53.2876 95.4832 71.2968 95.4832 93.4334C95.4832 115.57 113.492 133.581 135.629 133.581C137.209 133.581 138.808 133.488 140.385 133.301C150.52 132.106 159.741 127.13 166.347 119.286C172.431 112.071 175.779 102.889 175.779 93.4334C175.779 71.2968 157.768 53.2876 135.627 53.2876H135.629Z" fill="#8CC3E1"/>
<g opacity="0.75">
<path d="M177.007 164.615L172.172 167.204C169.456 168.662 166.071 167.637 164.617 164.919L152.372 142.058L167.046 134.199L179.293 157.058C180.749 159.776 179.724 163.159 177.009 164.615H177.007Z" fill="#8CC3E1"/>
</g>
<path d="M169.545 168.523C168.938 168.523 168.329 168.433 167.733 168.253C166.138 167.77 164.828 166.697 164.042 165.228L151.49 141.793L167.313 133.318L179.867 156.752C181.49 159.782 180.346 163.568 177.315 165.191L172.48 167.781C171.562 168.272 170.559 168.523 169.545 168.523ZM153.257 142.326L165.193 164.611C165.816 165.772 166.851 166.621 168.111 167.002C169.371 167.383 170.705 167.25 171.864 166.628L176.699 164.038C179.095 162.755 180 159.761 178.716 157.365L166.777 135.083L153.255 142.326H153.257Z" fill="#8CC3E1"/>
<path d="M168.004 133.686L167.045 134.202L152.371 142.061L151.412 142.576C148.696 144.032 145.311 143.007 143.857 140.292L140.461 133.953C142.798 133.677 145.076 133.205 147.276 132.55C152.719 130.933 157.689 128.207 161.921 124.637C163.699 123.138 165.348 121.488 166.847 119.708L170.287 126.131C171.745 128.847 170.72 132.232 168.004 133.686Z" fill="#8CC3E1"/>
<path d="M149.939 102.302C150.685 103.048 150.685 104.26 149.939 105.004L147.206 107.744C146.453 108.49 145.241 108.49 144.495 107.744L136.98 100.222C136.233 99.4756 135.022 99.4756 134.277 100.222L126.762 107.737C126.016 108.483 124.804 108.483 124.06 107.737L121.327 105.004C120.581 104.258 120.581 103.046 121.327 102.302L128.842 94.7867C129.589 94.0404 129.589 92.8285 128.842 92.0844L121.32 84.5691C120.574 83.8228 120.574 82.6109 121.32 81.8581L124.06 79.1253C124.806 78.379 126.018 78.379 126.762 79.1253L134.277 86.6405C135.03 87.3868 136.236 87.3868 136.988 86.6405L144.504 79.1253C145.25 78.379 146.462 78.379 147.206 79.1253L149.939 81.8581C150.685 82.6044 150.685 83.8163 149.939 84.5604L142.424 92.0757C141.677 92.8285 141.677 94.0339 142.424 94.7867L149.939 102.302Z" fill="#8CC3E1"/>
<g opacity="0.25">
<path d="M104.78 170.561H56.7752C56.0384 170.561 55.4414 171.158 55.4414 171.895V178.473C55.4414 179.209 56.0384 179.806 56.7752 179.806H104.78C105.517 179.806 106.114 179.209 106.114 178.473V171.895C106.114 171.158 105.517 170.561 104.78 170.561Z" fill="#8CC3E1"/>
</g>
<path d="M104.78 180.459H56.7756C55.6811 180.459 54.7891 179.569 54.7891 178.473V171.895C54.7891 170.801 55.679 169.909 56.7756 169.909H104.78C105.875 169.909 106.767 170.798 106.767 171.895V178.473C106.767 179.567 105.877 180.459 104.78 180.459ZM56.7756 171.214C56.4013 171.214 56.0945 171.519 56.0945 171.895V178.473C56.0945 178.847 56.3992 179.154 56.7756 179.154H104.78C105.155 179.154 105.461 178.849 105.461 178.473V171.895C105.461 171.521 105.157 171.214 104.78 171.214H56.7756Z" fill="#8CC3E1"/>
<g opacity="0.25">
<path d="M196.385 106.66H183.257C182.52 106.66 181.923 107.257 181.923 107.994V114.571C181.923 115.308 182.52 115.905 183.257 115.905H196.385C197.122 115.905 197.719 115.308 197.719 114.571V107.994C197.719 107.257 197.122 106.66 196.385 106.66Z" fill="#8CC3E1"/>
</g>
<path d="M196.388 116.556H183.257C182.163 116.556 181.271 115.666 181.271 114.569V107.992C181.271 106.897 182.16 106.005 183.257 106.005H196.388C197.482 106.005 198.375 106.895 198.375 107.992V114.569C198.375 115.664 197.485 116.556 196.388 116.556ZM183.257 107.311C182.883 107.311 182.576 107.615 182.576 107.992V114.569C182.576 114.943 182.881 115.25 183.257 115.25H196.388C196.762 115.25 197.069 114.946 197.069 114.569V107.992C197.069 107.618 196.764 107.311 196.388 107.311H183.257Z" fill="#8CC3E1"/>
<g opacity="0.25">
<path d="M41.8971 121.895H28.7683C28.0316 121.895 27.4346 122.492 27.4346 123.229V129.806C27.4346 130.543 28.0316 131.14 28.7683 131.14H41.8971C42.6339 131.14 43.2309 130.543 43.2309 129.806V123.229C43.2309 122.492 42.6339 121.895 41.8971 121.895Z" fill="#8CC3E1"/>
</g>
<path d="M41.8997 131.793H28.7687C27.6743 131.793 26.7822 130.903 26.7822 129.806V123.229C26.7822 122.134 27.6721 121.242 28.7687 121.242H41.8997C42.9941 121.242 43.8862 122.132 43.8862 123.229V129.806C43.8862 130.901 42.9963 131.793 41.8997 131.793ZM28.7687 122.548C28.3945 122.548 28.0877 122.852 28.0877 123.229V129.806C28.0877 130.181 28.3923 130.487 28.7687 130.487H41.8997C42.274 130.487 42.5807 130.183 42.5807 129.806V123.229C42.5807 122.855 42.2761 122.548 41.8997 122.548H28.7687Z" fill="#8CC3E1"/>
<path d="M167.004 120.002H166.597C166.682 119.904 166.762 119.806 166.847 119.708L167.004 120.002Z" fill="#8CC3E1"/>
<path d="M166.849 119.708C166.764 119.806 166.683 119.904 166.599 120.002H167.006L166.849 119.708Z" fill="#8CC3E1"/>
</svg>
