<svg width="48" height="48" viewBox="0 0 48 48" fill="none" xmlns="http://www.w3.org/2000/svg">
<circle cx="24" cy="24" r="23.5" fill="white" stroke="#FFE278"/>
<path d="M25.4062 16.8703C25.0179 16.8703 24.7031 16.5555 24.7031 16.1672V14.6094C24.7031 14.2217 24.3877 13.9062 24 13.9062C23.6123 13.9062 23.2969 14.2217 23.2969 14.6094V16.1672C23.2969 16.5555 22.9821 16.8703 22.5938 16.8703C22.2054 16.8703 21.8906 16.5555 21.8906 16.1672V14.6094C21.8906 13.4463 22.8369 12.5 24 12.5C25.1631 12.5 26.1094 13.4463 26.1094 14.6094V16.1672C26.1094 16.5555 25.7946 16.8703 25.4062 16.8703Z" fill="#FFB454"/>
<path d="M24.7031 14.6094V16.1672C24.7031 16.5555 25.0179 16.8703 25.4062 16.8703C25.7946 16.8703 26.1094 16.5555 26.1094 16.1672V14.6094C26.1094 13.4463 25.1631 12.5 24 12.5V13.9062C24.3878 13.9062 24.7031 14.2217 24.7031 14.6094Z" fill="#FF8E00"/>
<path d="M24 36.5C22.0615 36.5 20.4844 34.9229 20.4844 32.9844C20.4844 32.5961 20.7992 32.2812 21.1875 32.2812H26.8125C27.2008 32.2812 27.5156 32.5961 27.5156 32.9844C27.5156 34.9229 25.9386 36.5 24 36.5Z" fill="#FFB454"/>
<path d="M26.8125 32.2812H24V36.5C25.9385 36.5 27.5156 34.9229 27.5156 32.9844C27.5156 32.5961 27.2008 32.2812 26.8125 32.2812Z" fill="#FF8E00"/>
<path d="M33.8437 33.6875H14.1562C14.0184 33.6875 13.8836 33.647 13.7687 33.571C13.6537 33.4951 13.5636 33.387 13.5095 33.2602C13.4554 33.1335 13.4398 32.9936 13.4646 32.8581C13.4893 32.7225 13.5534 32.5972 13.6488 32.4977C15.6385 30.4227 16.7343 27.6965 16.7343 24.8217V22.5781C16.7343 18.5719 19.9937 15.3125 24 15.3125C28.0062 15.3125 31.2656 18.5719 31.2656 22.5781V24.8217C31.2656 27.6966 32.3614 30.4227 34.3512 32.4977C34.4466 32.5972 34.5107 32.7225 34.5354 32.8581C34.5602 32.9936 34.5446 33.1335 34.4905 33.2603C34.4364 33.387 34.3463 33.4951 34.2313 33.571C34.1163 33.647 33.9815 33.6875 33.8437 33.6875Z" fill="#FFE278"/>
<path d="M33.8438 33.6875C33.9816 33.6875 34.1163 33.647 34.2313 33.571C34.3463 33.4951 34.4364 33.387 34.4905 33.2603C34.5446 33.1335 34.5602 32.9936 34.5355 32.8581C34.5107 32.7225 34.4466 32.5972 34.3513 32.4977C32.3615 30.4227 31.2656 27.6965 31.2656 24.8217V22.5781C31.2656 18.5719 28.0063 15.3125 24 15.3125V33.6875H33.8438Z" fill="#FFB454"/>
</svg>
