<svg width="35" height="35" viewBox="0 0 35 35" fill="none" xmlns="http://www.w3.org/2000/svg">
<circle cx="17.5" cy="17.5" r="17.5" fill="white"/>
<path d="M10.0924 21.5555L9.25836 21.0038H9.25835L10.0924 21.5555ZM11.11 18.2422L10.11 18.2316V18.2422H11.11ZM11.1313 16.239L12.1313 16.2497V16.239H11.1313ZM23.9131 21.5716L24.7575 21.0359L24.7575 21.0359L23.9131 21.5716ZM22.9337 18.2422L21.9337 18.231V18.2422H22.9337ZM22.9551 16.3383L23.9551 16.3495V16.3383H22.9551ZM14.6667 24.5C14.1144 24.5 13.6667 24.9477 13.6667 25.5C13.6667 26.0523 14.1144 26.5 14.6667 26.5V25.5V24.5ZM19.3333 26.5C19.8856 26.5 20.3333 26.0523 20.3333 25.5C20.3333 24.9477 19.8856 24.5 19.3333 24.5V25.5V26.5ZM10.0924 21.5555L10.9264 22.1072C11.5235 21.2047 12.11 19.8676 12.11 18.2422H11.11H10.11C10.11 19.3818 9.6969 20.3408 9.25836 21.0038L10.0924 21.5555ZM11.11 18.2422L12.1099 18.2529L12.1313 16.2497L11.1313 16.239L10.1314 16.2284L10.11 18.2316L11.11 18.2422ZM23.9131 21.5716L24.7575 21.0359C24.3368 20.3728 23.9337 19.4019 23.9337 18.2422H22.9337H21.9337C21.9337 19.8665 22.4958 21.2043 23.0686 22.1073L23.9131 21.5716ZM22.9337 18.2422L23.9337 18.2535L23.955 16.3495L22.9551 16.3383L21.9552 16.3271L21.9338 18.231L22.9337 18.2422ZM22.9551 16.3383H23.9551C23.9551 12.1437 20.9666 8.5 17 8.5V9.5V10.5C19.6112 10.5 21.9551 12.9796 21.9551 16.3383H22.9551ZM23.5567 22.5V23.5C24.3423 23.5 24.751 22.884 24.8896 22.5102C25.0382 22.1093 25.0738 21.5345 24.7575 21.0359L23.9131 21.5716L23.0686 22.1073C23.0133 22.02 23.0021 21.9453 23.0003 21.9089C22.9985 21.8722 23.004 21.8428 23.0143 21.815C23.0235 21.7903 23.0511 21.7278 23.1267 21.6597C23.2101 21.5845 23.3593 21.5 23.5567 21.5V22.5ZM11.1313 16.239H12.1313C12.1313 12.9351 14.4365 10.5 17 10.5V9.5V8.5C13.0812 8.5 10.1313 12.0992 10.1313 16.239H11.1313ZM10.4442 22.5V21.5C10.6456 21.5 10.7962 21.5876 10.8787 21.6634C10.9531 21.7318 10.9792 21.7933 10.9873 21.8159C10.9966 21.8417 11.0017 21.8696 10.9995 21.9056C10.9974 21.9412 10.9854 22.018 10.9264 22.1072L10.0924 21.5555L9.25835 21.0038C8.92675 21.505 8.96044 22.0898 9.10522 22.4926C9.23949 22.866 9.64599 23.5 10.4442 23.5V22.5ZM23.5567 22.5V21.5H10.4442V22.5V23.5H23.5567V22.5ZM14.6667 25.5V26.5H19.3333V25.5V24.5H14.6667V25.5Z" fill="#152644"/>
</svg>
