<svg width="20" height="20" viewBox="0 0 20 20" fill="none" xmlns="http://www.w3.org/2000/svg">
<path d="M13.2088 0H2.84379C2.55522 0 2.32129 0.233929 2.32129 0.687857V19.6429C2.32129 19.7661 2.55522 20 2.84379 20H17.1559C17.4445 20 17.6784 19.7661 17.6784 19.6429V4.635C17.6784 4.38643 17.6452 4.30643 17.5866 4.2475L13.4309 0.0917857C13.3719 0.0330979 13.292 0.000109214 13.2088 0Z" fill="#E9E9E0"/>
<path d="M13.3926 0.0539551V4.28574H17.6244L13.3926 0.0539551Z" fill="#D9D7CA"/>
<path d="M6.96915 11.9014C6.84486 11.9014 6.72557 11.8611 6.62379 11.785C6.252 11.5061 6.202 11.1957 6.22557 10.9843C6.29057 10.4029 7.0095 9.79431 8.36307 9.17431C8.90022 7.99716 9.41129 6.54681 9.71593 5.33502C9.3595 4.55931 9.01307 3.55288 9.26557 2.96252C9.35415 2.75573 9.4645 2.59716 9.67057 2.52859C9.78904 2.49544 9.91066 2.47486 10.0334 2.46716C10.2134 2.46716 10.3716 2.69895 10.4838 2.84181C10.5891 2.97609 10.8281 3.26073 10.3506 5.27109C10.832 6.26538 11.5141 7.27823 12.1677 7.97181C12.6359 7.88716 13.0388 7.84395 13.367 7.84395C13.9263 7.84395 14.2652 7.97431 14.4034 8.24288C14.5177 8.46502 14.4709 8.72466 14.2641 9.01431C14.0652 9.29252 13.7909 9.43966 13.4713 9.43966C13.037 9.43966 12.5313 9.16538 11.9674 8.62359C10.9541 8.83538 9.77093 9.21324 8.8145 9.63145C8.51593 10.265 8.22986 10.7754 7.96343 11.1497C7.59736 11.6622 7.28165 11.9014 6.96915 11.9014ZM7.91986 10.0707C7.15665 10.4997 6.84557 10.8522 6.82307 11.0507C6.8195 11.0836 6.80986 11.17 6.977 11.2979C7.03022 11.2811 7.34093 11.1393 7.91986 10.0707ZM12.7902 8.48431C13.0813 8.70823 13.1524 8.82145 13.3427 8.82145C13.4263 8.82145 13.6645 8.81788 13.7749 8.66395C13.8281 8.58931 13.8488 8.54145 13.857 8.51574C13.8131 8.49252 13.7549 8.44538 13.4374 8.44538C13.257 8.44573 13.0302 8.45359 12.7902 8.48431ZM10.1224 6.13359C9.85499 7.05128 9.53615 7.95318 9.16736 8.83502C9.92341 8.54212 10.6985 8.30108 11.4874 8.11359C11.0052 7.55359 10.5234 6.85431 10.1224 6.13359ZM9.90557 3.11145C9.87057 3.12323 9.43058 3.73895 9.93986 4.26002C10.2788 3.50466 9.92093 3.10645 9.90557 3.11145ZM17.1559 20H2.84379C2.70521 20 2.57231 19.945 2.47433 19.847C2.37634 19.749 2.32129 19.6161 2.32129 19.4775V13.9286H17.6784V19.4775C17.6784 19.7661 17.4445 20 17.1559 20Z" fill="#CC4B4C"/>
<path d="M6.20912 18.9285H5.62305V15.33H6.65805C6.8109 15.33 6.96233 15.3542 7.11198 15.4032C7.26162 15.4521 7.3959 15.5253 7.51483 15.6228C7.63376 15.7203 7.72983 15.8385 7.80305 15.9767C7.87626 16.115 7.91305 16.2703 7.91305 16.4432C7.91305 16.6257 7.88198 16.7907 7.82019 16.9389C7.76261 17.081 7.67417 17.2086 7.56126 17.3125C7.45055 17.4132 7.31698 17.4914 7.1609 17.5467C7.00483 17.6021 6.83198 17.6296 6.6434 17.6296H6.20876L6.20912 18.9285ZM6.20912 15.7742V17.2H6.74626C6.81769 17.2 6.8884 17.1878 6.95876 17.1632C7.02876 17.1389 7.09305 17.0989 7.15162 17.0435C7.21019 16.9882 7.25733 16.911 7.29305 16.8117C7.32876 16.7125 7.34662 16.5896 7.34662 16.4432C7.34662 16.3846 7.3384 16.3167 7.32233 16.2407C7.30464 16.1613 7.27058 16.0865 7.22233 16.021C7.16632 15.9465 7.09351 15.8863 7.00983 15.8453C6.91876 15.7982 6.79805 15.7746 6.6484 15.7746L6.20912 15.7742ZM11.507 17.0292C11.507 17.3253 11.4752 17.5785 11.4116 17.7885C11.348 17.9985 11.2677 18.1742 11.1698 18.316C11.072 18.4578 10.9623 18.5692 10.8402 18.6507C10.718 18.7321 10.6002 18.7928 10.4863 18.8339C10.3853 18.8714 10.2805 18.8976 10.1738 18.9121C10.0795 18.9228 10.0095 18.9285 9.96376 18.9285H8.60162V15.33H9.68555C9.9884 15.33 10.2545 15.3782 10.4838 15.4739C10.713 15.5696 10.9038 15.6978 11.0552 15.8571C11.2066 16.0164 11.3195 16.1982 11.3945 16.4014C11.4695 16.605 11.507 16.8142 11.507 17.0292ZM9.76876 18.4989C10.1659 18.4989 10.4523 18.3721 10.628 18.1182C10.8038 17.8642 10.8916 17.4964 10.8916 17.0146C10.8916 16.865 10.8738 16.7167 10.838 16.5703C10.802 16.4239 10.733 16.2914 10.6305 16.1725C10.528 16.0535 10.3888 15.9575 10.213 15.8842C10.0373 15.811 9.80948 15.7742 9.52948 15.7742H9.18769V18.4989H9.76876ZM12.9523 15.7742V16.9071H14.4563V17.3075H12.9523V18.9285H12.3566V15.33H14.6073V15.7742H12.9523Z" fill="white"/>
</svg>
