<svg width="35" height="35" viewBox="0 0 35 35" fill="none" xmlns="http://www.w3.org/2000/svg">
<circle cx="17.5" cy="17.5" r="17.5" fill="white"/>
<path d="M23.3337 16V11.8333C23.3337 11.3731 22.9606 11 22.5003 11H12.5003C12.0401 11 11.667 11.3731 11.667 11.8333V16" stroke="#152644" stroke-width="1.5" stroke-linecap="round" stroke-linejoin="round"/>
<path d="M24.1667 16H10.8333C10.3731 16 10 16.3731 10 16.8333V23.5C10 23.9602 10.3731 24.3333 10.8333 24.3333H24.1667C24.6269 24.3333 25 23.9602 25 23.5V16.8333C25 16.3731 24.6269 16 24.1667 16Z" stroke="#152644" stroke-width="1.5" stroke-linecap="round" stroke-linejoin="round"/>
<path d="M22.083 24.3333V21.8333C22.083 21.3731 21.7099 21 21.2497 21H16.6663C16.2061 21 15.833 21.3731 15.833 21.8333V24.3333" stroke="#152644" stroke-width="1.5" stroke-linecap="round" stroke-linejoin="round"/>
<path d="M12.5 18.5H14.1667" stroke="#152644" stroke-width="1.5" stroke-linecap="round" stroke-linejoin="round"/>
</svg>
