<svg width="32" height="32" viewBox="0 0 32 32" fill="none" xmlns="http://www.w3.org/2000/svg">
<path d="M16 12L15.5 5H16.5L22 10L24 13.5L20 13L16 12Z" fill="#CBFD42"/>
<path d="M12.6376 4H9.66699C8.01014 4 6.66699 5.34315 6.66699 7V25C6.66699 26.6569 8.01014 28 9.66699 28H21.667C23.3239 28 24.667 26.6569 24.667 25V16C24.667 14.3431 23.3239 13 21.667 13H18.667C17.0101 13 15.667 11.6569 15.667 10V7C15.667 5.34315 14.2945 4 12.6376 4Z" fill="#8CC3E1"/>
<path d="M12.6376 4H9.66699C8.01014 4 6.66699 5.34315 6.66699 7V25C6.66699 26.6569 8.01014 28 9.66699 28H21.667C23.3239 28 24.667 26.6569 24.667 25V16M12.6376 4C14.2945 4 15.667 5.34315 15.667 7V10C15.667 11.6569 17.0101 13 18.667 13H21.667C23.3239 13 24.667 14.3431 24.667 16M12.6376 4C17.5575 4 24.667 11.1463 24.667 16" stroke="#152644" stroke-width="1.5" stroke-linecap="round" stroke-linejoin="round"/>
<path d="M12 22H20" stroke="#152644" stroke-width="1.5" stroke-linecap="round" stroke-linejoin="round"/>
<path d="M12 18H17.3333" stroke="#152644" stroke-width="1.5" stroke-linecap="round" stroke-linejoin="round"/>
</svg>
