<svg width="145" height="145" viewBox="0 0 145 145" fill="none" xmlns="http://www.w3.org/2000/svg">
<g filter="url(#filter0_d_1049_4720)">
<circle cx="72.1118" cy="69.053" r="65" fill="#152644"/>
<circle cx="72.1118" cy="69.053" r="63.8529" stroke="#CBFD42" stroke-width="2.29412"/>
</g>
<g filter="url(#filter1_d_1049_4720)">
<path d="M67.012 39.2529H59.5453C57.4835 39.2529 55.812 40.9244 55.812 42.9863V50.4529M67.012 72.8529H59.5453C57.4835 72.8529 55.812 71.1815 55.812 69.1196V61.6529M78.212 39.2529H85.6787C87.7405 39.2529 89.412 40.9244 89.412 42.9863V50.4529M89.412 61.6529V69.1196C89.412 71.1815 87.7405 72.8529 85.6787 72.8529H78.212M55.812 56.0534H89.412" stroke="#CBFD42" stroke-width="2.29412" stroke-linecap="round"/>
</g>
<path d="M47.2838 100.151C46.6398 100.151 46.0611 100.039 45.5478 99.815C45.0438 99.5816 44.6471 99.2643 44.3578 98.863C44.0685 98.4523 43.9191 97.981 43.9098 97.449H45.2678C45.3145 97.9063 45.5011 98.2936 45.8278 98.611C46.1638 98.919 46.6491 99.073 47.2838 99.073C47.8905 99.073 48.3665 98.9236 48.7118 98.625C49.0665 98.317 49.2438 97.925 49.2438 97.449C49.2438 97.0756 49.1411 96.7723 48.9358 96.539C48.7305 96.3056 48.4738 96.1283 48.1658 96.007C47.8578 95.8856 47.4425 95.755 46.9198 95.615C46.2758 95.447 45.7578 95.279 45.3658 95.111C44.9831 94.943 44.6518 94.6816 44.3718 94.327C44.1011 93.963 43.9658 93.4776 43.9658 92.871C43.9658 92.339 44.1011 91.8676 44.3718 91.457C44.6425 91.0463 45.0205 90.729 45.5058 90.505C46.0005 90.281 46.5651 90.169 47.1998 90.169C48.1145 90.169 48.8611 90.3976 49.4398 90.855C50.0278 91.3123 50.3592 91.919 50.4338 92.675H49.0338C48.9871 92.3016 48.7911 91.975 48.4458 91.695C48.1005 91.4056 47.6431 91.261 47.0738 91.261C46.5418 91.261 46.1078 91.401 45.7718 91.681C45.4358 91.9516 45.2678 92.3343 45.2678 92.829C45.2678 93.1836 45.3658 93.473 45.5618 93.697C45.7671 93.921 46.0145 94.0936 46.3038 94.215C46.6025 94.327 47.0178 94.4576 47.5498 94.607C48.1938 94.7843 48.7118 94.9616 49.1038 95.139C49.4958 95.307 49.8318 95.573 50.1118 95.937C50.3918 96.2916 50.5318 96.777 50.5318 97.393C50.5318 97.869 50.4058 98.317 50.1538 98.737C49.9018 99.157 49.5285 99.4976 49.0338 99.759C48.5391 100.02 47.9558 100.151 47.2838 100.151ZM51.9306 96.203C51.9306 95.4096 52.0893 94.719 52.4066 94.131C52.7239 93.5336 53.1626 93.0716 53.7226 92.745C54.2919 92.4183 54.9406 92.255 55.6686 92.255C56.6113 92.255 57.3859 92.4836 57.9926 92.941C58.6086 93.3983 59.0146 94.033 59.2106 94.845H57.8386C57.7079 94.3783 57.4513 94.0096 57.0686 93.739C56.6953 93.4683 56.2286 93.333 55.6686 93.333C54.9406 93.333 54.3526 93.585 53.9046 94.089C53.4566 94.5836 53.2326 95.2883 53.2326 96.203C53.2326 97.127 53.4566 97.841 53.9046 98.345C54.3526 98.849 54.9406 99.101 55.6686 99.101C56.2286 99.101 56.6953 98.9703 57.0686 98.709C57.4419 98.4476 57.6986 98.0743 57.8386 97.589H59.2106C59.0053 98.373 58.5946 99.003 57.9786 99.479C57.3626 99.9456 56.5926 100.179 55.6686 100.179C54.9406 100.179 54.2919 100.016 53.7226 99.689C53.1626 99.3623 52.7239 98.9003 52.4066 98.303C52.0893 97.7056 51.9306 97.0056 51.9306 96.203ZM60.4345 96.189C60.4345 95.405 60.5932 94.719 60.9105 94.131C61.2279 93.5336 61.6619 93.0716 62.2125 92.745C62.7725 92.4183 63.3932 92.255 64.0745 92.255C64.7465 92.255 65.3299 92.3996 65.8245 92.689C66.3192 92.9783 66.6879 93.3423 66.9305 93.781V92.381H68.2185V100.053H66.9305V98.625C66.6785 99.073 66.3005 99.4463 65.7965 99.745C65.3019 100.034 64.7232 100.179 64.0605 100.179C63.3792 100.179 62.7632 100.011 62.2125 99.675C61.6619 99.339 61.2279 98.8676 60.9105 98.261C60.5932 97.6543 60.4345 96.9636 60.4345 96.189ZM66.9305 96.203C66.9305 95.6243 66.8139 95.1203 66.5805 94.691C66.3472 94.2616 66.0299 93.935 65.6285 93.711C65.2365 93.4776 64.8025 93.361 64.3265 93.361C63.8505 93.361 63.4165 93.473 63.0245 93.697C62.6325 93.921 62.3199 94.2476 62.0865 94.677C61.8532 95.1063 61.7365 95.6103 61.7365 96.189C61.7365 96.777 61.8532 97.2903 62.0865 97.729C62.3199 98.1583 62.6325 98.4896 63.0245 98.723C63.4165 98.947 63.8505 99.059 64.3265 99.059C64.8025 99.059 65.2365 98.947 65.6285 98.723C66.0299 98.4896 66.3472 98.1583 66.5805 97.729C66.8139 97.2903 66.9305 96.7816 66.9305 96.203ZM74.1095 92.241C75.0428 92.241 75.7988 92.5256 76.3775 93.095C76.9561 93.655 77.2455 94.467 77.2455 95.531V100.053H75.9855V95.713C75.9855 94.9476 75.7941 94.3643 75.4115 93.963C75.0288 93.5523 74.5061 93.347 73.8435 93.347C73.1715 93.347 72.6348 93.557 72.2335 93.977C71.8415 94.397 71.6455 95.0083 71.6455 95.811V100.053H70.3715V92.381H71.6455V93.473C71.8975 93.081 72.2381 92.7776 72.6675 92.563C73.1061 92.3483 73.5868 92.241 74.1095 92.241ZM90.885 101.901L88.939 99.955C88.463 100.086 87.9776 100.151 87.483 100.151C86.5776 100.151 85.7516 99.941 85.005 99.521C84.2583 99.0916 83.6656 98.499 83.227 97.743C82.7976 96.9776 82.583 96.119 82.583 95.167C82.583 94.215 82.7976 93.361 83.227 92.605C83.6656 91.8396 84.2583 91.247 85.005 90.827C85.7516 90.3976 86.5776 90.183 87.483 90.183C88.3976 90.183 89.2283 90.3976 89.975 90.827C90.7216 91.247 91.3096 91.835 91.739 92.591C92.1683 93.347 92.383 94.2056 92.383 95.167C92.383 96.1003 92.1776 96.9403 91.767 97.687C91.3563 98.4336 90.7916 99.0216 90.073 99.451L92.537 101.901H90.885ZM83.885 95.167C83.885 95.9416 84.039 96.623 84.347 97.211C84.6643 97.799 85.0936 98.2516 85.635 98.569C86.1856 98.8863 86.8016 99.045 87.483 99.045C88.1643 99.045 88.7756 98.8863 89.317 98.569C89.8676 98.2516 90.297 97.799 90.605 97.211C90.9223 96.623 91.081 95.9416 91.081 95.167C91.081 94.383 90.9223 93.7016 90.605 93.123C90.297 92.535 89.8723 92.0823 89.331 91.765C88.7896 91.4476 88.1736 91.289 87.483 91.289C86.7923 91.289 86.1763 91.4476 85.635 91.765C85.0936 92.0823 84.6643 92.535 84.347 93.123C84.039 93.7016 83.885 94.383 83.885 95.167ZM99.2302 100.053L96.9062 96.063H95.3662V100.053H94.0922V90.295H97.2422C97.9795 90.295 98.6002 90.421 99.1042 90.673C99.6175 90.925 100 91.2656 100.252 91.695C100.504 92.1243 100.63 92.6143 100.63 93.165C100.63 93.837 100.434 94.4296 100.042 94.943C99.6595 95.4563 99.0808 95.797 98.3062 95.965L100.756 100.053H99.2302ZM95.3662 95.041H97.2422C97.9328 95.041 98.4508 94.873 98.7962 94.537C99.1415 94.1916 99.3142 93.7343 99.3142 93.165C99.3142 92.5863 99.1415 92.1383 98.7962 91.821C98.4602 91.5036 97.9422 91.345 97.2422 91.345H95.3662V95.041Z" fill="#CBFD42"/>
<defs>
<filter id="filter0_d_1049_4720" x="5.14984e-05" y="3.71933e-05" width="144.224" height="144.224" filterUnits="userSpaceOnUse" color-interpolation-filters="sRGB">
<feFlood flood-opacity="0" result="BackgroundImageFix"/>
<feColorMatrix in="SourceAlpha" type="matrix" values="0 0 0 0 0 0 0 0 0 0 0 0 0 0 0 0 0 0 127 0" result="hardAlpha"/>
<feOffset dy="3.05882"/>
<feGaussianBlur stdDeviation="3.55588"/>
<feComposite in2="hardAlpha" operator="out"/>
<feColorMatrix type="matrix" values="0 0 0 0 0.796078 0 0 0 0 0.992157 0 0 0 0 0.258824 0 0 0 0.6 0"/>
<feBlend mode="normal" in2="BackgroundImageFix" result="effect1_dropShadow_1049_4720"/>
<feBlend mode="normal" in="SourceGraphic" in2="effect1_dropShadow_1049_4720" result="shape"/>
</filter>
<filter id="filter1_d_1049_4720" x="47.5533" y="34.053" width="50.1176" height="50.1176" filterUnits="userSpaceOnUse" color-interpolation-filters="sRGB">
<feFlood flood-opacity="0" result="BackgroundImageFix"/>
<feColorMatrix in="SourceAlpha" type="matrix" values="0 0 0 0 0 0 0 0 0 0 0 0 0 0 0 0 0 0 127 0" result="hardAlpha"/>
<feOffset dy="3.05882"/>
<feGaussianBlur stdDeviation="3.55588"/>
<feComposite in2="hardAlpha" operator="out"/>
<feColorMatrix type="matrix" values="0 0 0 0 0.796078 0 0 0 0 0.992157 0 0 0 0 0.258824 0 0 0 0.6 0"/>
<feBlend mode="normal" in2="BackgroundImageFix" result="effect1_dropShadow_1049_4720"/>
<feBlend mode="normal" in="SourceGraphic" in2="effect1_dropShadow_1049_4720" result="shape"/>
</filter>
</defs>
</svg>
