<svg width="35" height="35" viewBox="0 0 35 35" fill="none" xmlns="http://www.w3.org/2000/svg">
<path d="M0 17.5C0 7.83502 7.83502 0 17.5 0C27.165 0 35 7.83502 35 17.5C35 27.165 27.165 35 17.5 35C7.83502 35 0 27.165 0 17.5Z" fill="white"/>
<path d="M21.5 21.375L25 24.875M23.25 17C23.25 18.2114 22.8908 19.3956 22.2178 20.4029C21.5447 21.4101 20.5881 22.1952 19.4689 22.6588C18.3497 23.1223 17.1182 23.2436 15.9301 23.0073C14.7419 22.771 13.6506 22.1876 12.794 21.331C11.9374 20.4744 11.354 19.3831 11.1177 18.1949C10.8814 17.0068 11.0027 15.7753 11.4662 14.6561C11.9298 13.5369 12.7149 12.5803 13.7221 11.9072C14.7294 11.2342 15.9136 10.875 17.125 10.875" stroke="#152644" stroke-width="1.5" stroke-linecap="round" stroke-linejoin="round"/>
<path d="M21.0625 10L21.2882 10.6099C21.584 11.4096 21.7319 11.8095 22.0232 12.1009C22.3155 12.3931 22.7154 12.541 23.5151 12.8367L24.125 13.0625L23.5151 13.2882C22.7154 13.584 22.3155 13.7319 22.0241 14.0232C21.7319 14.3155 21.584 14.7154 21.2882 15.5151L21.0625 16.125L20.8367 15.5151C20.541 14.7154 20.3931 14.3155 20.1017 14.0241C19.8095 13.7319 19.4096 13.584 18.6099 13.2882L18 13.0625L18.6099 12.8367C19.4096 12.541 19.8095 12.3931 20.1009 12.1017C20.3931 11.8095 20.541 11.4096 20.8367 10.6099L21.0625 10Z" stroke="#152644" stroke-width="1.5" stroke-linecap="round" stroke-linejoin="round"/>
</svg>
