<svg width="48" height="48" viewBox="0 0 48 48" fill="none" xmlns="http://www.w3.org/2000/svg">
<circle cx="24" cy="24" r="23.5" fill="white" stroke="#98D9FF"/>
<path d="M32.4375 14.8594H18.375C17.9812 14.8594 17.6719 15.1687 17.6719 15.5625V35.2969C17.6719 35.6906 17.9812 36 18.375 36H32.4375C32.8313 36 33.1406 35.6906 33.1406 35.2969V15.5625C33.1406 15.1687 32.8313 14.8594 32.4375 14.8594Z" fill="#B3E4FF"/>
<path d="M33.1406 15.5625V35.2969C33.1406 35.6906 32.8313 36 32.4375 36H22.5938V14.8594H32.4375C32.8313 14.8594 33.1406 15.1687 33.1406 15.5625Z" fill="#5DACFF"/>
<path d="M29.625 12H15.5625C15.1687 12 14.8594 12.3093 14.8594 12.7031V32.4844C14.8594 32.8781 15.1687 33.1875 15.5625 33.1875H29.625C30.0188 33.1875 30.3281 32.8781 30.3281 32.4844V12.7031C30.3281 12.3093 30.0188 12 29.625 12Z" fill="#EDF0FF"/>
<path d="M30.3281 12.7031V32.4844C30.3281 32.8781 30.0188 33.1875 29.625 33.1875H22.5938V12H29.625C30.0188 12 30.3281 12.3093 30.3281 12.7031Z" fill="#B3E4FF"/>
<path d="M23.2969 16.9688C23.2969 17.3625 22.9875 17.6719 22.5938 17.6719H18.375C17.9812 17.6719 17.6719 17.3625 17.6719 16.9688C17.6719 16.575 17.9812 16.2656 18.375 16.2656H22.5938C22.9875 16.2656 23.2969 16.575 23.2969 16.9688ZM27.5156 19.7812C27.5156 20.175 27.2063 20.4844 26.8125 20.4844H18.375C17.9812 20.4844 17.6719 20.175 17.6719 19.7812C17.6719 19.3875 17.9812 19.0781 18.375 19.0781H26.8125C27.2063 19.0781 27.5156 19.3875 27.5156 19.7812ZM27.5156 22.5938C27.5156 22.9875 27.2063 23.2969 26.8125 23.2969H18.375C17.9812 23.2969 17.6719 22.9875 17.6719 22.5938C17.6719 22.2 17.9812 21.8906 18.375 21.8906H26.8125C27.2063 21.8906 27.5156 22.2 27.5156 22.5938ZM27.5156 25.4062C27.5156 25.8 27.2063 26.1094 26.8125 26.1094H18.375C17.9812 26.1094 17.6719 25.8 17.6719 25.4062C17.6719 25.0125 17.9812 24.7031 18.375 24.7031H26.8125C27.2063 24.7031 27.5156 25.0125 27.5156 25.4062Z" fill="#B3E4FF"/>
<path d="M26.8125 28.9219H24C23.6114 28.9219 23.2969 28.6074 23.2969 28.2188C23.2969 27.8301 23.6114 27.5156 24 27.5156H26.8125C27.2011 27.5156 27.5156 27.8301 27.5156 28.2188C27.5156 28.6074 27.2011 28.9219 26.8125 28.9219Z" fill="#52A5FD"/>
<path d="M22.5938 17.6719V16.2656C22.9875 16.2656 23.2969 16.575 23.2969 16.9688C23.2969 17.3625 22.9875 17.6719 22.5938 17.6719ZM27.5156 25.4062C27.5156 25.8 27.2063 26.1094 26.8125 26.1094H22.5938V24.7031H26.8125C27.2063 24.7031 27.5156 25.0125 27.5156 25.4062ZM27.5156 22.5938C27.5156 22.9875 27.2063 23.2969 26.8125 23.2969H22.5938V21.8906H26.8125C27.2063 21.8906 27.5156 22.2 27.5156 22.5938ZM26.8125 20.4844H22.5938V19.0781H26.8125C27.2063 19.0781 27.5156 19.3875 27.5156 19.7812C27.5156 20.175 27.2063 20.4844 26.8125 20.4844Z" fill="#5DACFF"/>
</svg>
